G04 #@! TF.GenerationSoftware,KiCad,Pcbnew,(6.0.5)*
G04 #@! TF.CreationDate,2022-06-23T18:32:15+02:00*
G04 #@! TF.ProjectId,microjuice,6d696372-6f6a-4756-9963-652e6b696361,rev?*
G04 #@! TF.SameCoordinates,Original*
G04 #@! TF.FileFunction,Paste,Top*
G04 #@! TF.FilePolarity,Positive*
%FSLAX46Y46*%
G04 Gerber Fmt 4.6, Leading zero omitted, Abs format (unit mm)*
G04 Created by KiCad (PCBNEW (6.0.5)) date 2022-06-23 18:32:15*
%MOMM*%
%LPD*%
G01*
G04 APERTURE LIST*
G04 Aperture macros list*
%AMRoundRect*
0 Rectangle with rounded corners*
0 $1 Rounding radius*
0 $2 $3 $4 $5 $6 $7 $8 $9 X,Y pos of 4 corners*
0 Add a 4 corners polygon primitive as box body*
4,1,4,$2,$3,$4,$5,$6,$7,$8,$9,$2,$3,0*
0 Add four circle primitives for the rounded corners*
1,1,$1+$1,$2,$3*
1,1,$1+$1,$4,$5*
1,1,$1+$1,$6,$7*
1,1,$1+$1,$8,$9*
0 Add four rect primitives between the rounded corners*
20,1,$1+$1,$2,$3,$4,$5,0*
20,1,$1+$1,$4,$5,$6,$7,0*
20,1,$1+$1,$6,$7,$8,$9,0*
20,1,$1+$1,$8,$9,$2,$3,0*%
G04 Aperture macros list end*
%ADD10C,0.800000*%
%ADD11RoundRect,0.200000X0.275000X-0.200000X0.275000X0.200000X-0.275000X0.200000X-0.275000X-0.200000X0*%
%ADD12RoundRect,0.150000X0.150000X-0.587500X0.150000X0.587500X-0.150000X0.587500X-0.150000X-0.587500X0*%
%ADD13RoundRect,0.150000X0.150000X-0.512500X0.150000X0.512500X-0.150000X0.512500X-0.150000X-0.512500X0*%
%ADD14RoundRect,0.250000X1.500000X0.550000X-1.500000X0.550000X-1.500000X-0.550000X1.500000X-0.550000X0*%
%ADD15R,1.800000X2.500000*%
%ADD16RoundRect,0.225000X0.250000X-0.225000X0.250000X0.225000X-0.250000X0.225000X-0.250000X-0.225000X0*%
%ADD17RoundRect,0.250000X0.425000X-0.450000X0.425000X0.450000X-0.425000X0.450000X-0.425000X-0.450000X0*%
%ADD18RoundRect,0.250000X-0.450000X-0.425000X0.450000X-0.425000X0.450000X0.425000X-0.450000X0.425000X0*%
%ADD19R,1.500000X2.000000*%
%ADD20R,3.800000X2.000000*%
%ADD21RoundRect,0.200000X-0.275000X0.200000X-0.275000X-0.200000X0.275000X-0.200000X0.275000X0.200000X0*%
%ADD22RoundRect,0.218750X0.256250X-0.218750X0.256250X0.218750X-0.256250X0.218750X-0.256250X-0.218750X0*%
G04 APERTURE END LIST*
D10*
G04 #@! TO.C,H9*
X120520001Y-119039999D02*
G75*
G03*
X123319999Y-119039999I1399999J2201795D01*
G01*
X119720000Y-115440000D02*
G75*
G03*
X119720000Y-118239998I2201795J-1399999D01*
G01*
X123320000Y-114640000D02*
G75*
G03*
X120520002Y-114640000I-1399999J-2201795D01*
G01*
X124119999Y-118239999D02*
G75*
G03*
X124120000Y-115440002I-2201789J1399999D01*
G01*
G04 #@! TO.C,H7*
X98130000Y-115440000D02*
G75*
G03*
X98130000Y-118239998I2201795J-1399999D01*
G01*
X98930001Y-119039999D02*
G75*
G03*
X101729999Y-119039999I1399999J2201795D01*
G01*
X101730000Y-114640000D02*
G75*
G03*
X98930002Y-114640000I-1399999J-2201795D01*
G01*
X102529999Y-118239999D02*
G75*
G03*
X102530000Y-115440002I-2201789J1399999D01*
G01*
G04 #@! TO.C,H5*
X144909999Y-114640001D02*
G75*
G03*
X142110001Y-114640001I-1399999J-2201795D01*
G01*
X142110000Y-119040000D02*
G75*
G03*
X144909998Y-119040000I1399999J2201795D01*
G01*
X141310001Y-115440001D02*
G75*
G03*
X141310000Y-118239998I2201789J-1399999D01*
G01*
X145710000Y-118240000D02*
G75*
G03*
X145710000Y-115440002I-2201795J1399999D01*
G01*
G04 #@! TO.C,H8*
X111890000Y-114640000D02*
G75*
G03*
X109090002Y-114640000I-1399999J-2201795D01*
G01*
X109090001Y-119039999D02*
G75*
G03*
X111889999Y-119039999I1399999J2201795D01*
G01*
X108290000Y-115440000D02*
G75*
G03*
X108290000Y-118239998I2201795J-1399999D01*
G01*
X112689999Y-118239999D02*
G75*
G03*
X112690000Y-115440002I-2201789J1399999D01*
G01*
G04 #@! TO.C,H4*
X135550000Y-118240000D02*
G75*
G03*
X135550000Y-115440002I-2201795J1399999D01*
G01*
X131950000Y-119040000D02*
G75*
G03*
X134749998Y-119040000I1399999J2201795D01*
G01*
X131150001Y-115440001D02*
G75*
G03*
X131150000Y-118239998I2201789J-1399999D01*
G01*
X134749999Y-114640001D02*
G75*
G03*
X131950001Y-114640001I-1399999J-2201795D01*
G01*
G04 #@! TD*
D11*
G04 #@! TO.C,R2*
X115500000Y-116250000D03*
X115500000Y-114600000D03*
G04 #@! TD*
D12*
G04 #@! TO.C,D3*
X112050000Y-110437500D03*
X113950000Y-110437500D03*
X113000000Y-108562500D03*
G04 #@! TD*
D13*
G04 #@! TO.C,U4*
X117550000Y-110637500D03*
X118500000Y-110637500D03*
X119450000Y-110637500D03*
X119450000Y-108362500D03*
X117550000Y-108362500D03*
G04 #@! TD*
D14*
G04 #@! TO.C,C1*
X128700000Y-109500000D03*
X123300000Y-109500000D03*
G04 #@! TD*
D12*
G04 #@! TO.C,D2*
X102300000Y-110437500D03*
X104200000Y-110437500D03*
X103250000Y-108562500D03*
G04 #@! TD*
D15*
G04 #@! TO.C,D1*
X134000000Y-111200000D03*
X134000000Y-107200000D03*
G04 #@! TD*
D16*
G04 #@! TO.C,C4*
X96500000Y-110275000D03*
X96500000Y-108725000D03*
G04 #@! TD*
G04 #@! TO.C,C5*
X115750000Y-110275000D03*
X115750000Y-108725000D03*
G04 #@! TD*
G04 #@! TO.C,C3*
X106250000Y-110275000D03*
X106250000Y-108725000D03*
G04 #@! TD*
D17*
G04 #@! TO.C,C6*
X146000000Y-110850000D03*
X146000000Y-108150000D03*
G04 #@! TD*
D13*
G04 #@! TO.C,U3*
X108100000Y-110637500D03*
X109050000Y-110637500D03*
X110000000Y-110637500D03*
X110000000Y-108362500D03*
X108100000Y-108362500D03*
G04 #@! TD*
D18*
G04 #@! TO.C,C2*
X140150000Y-102500000D03*
X142850000Y-102500000D03*
G04 #@! TD*
D11*
G04 #@! TO.C,R1*
X105250000Y-116325000D03*
X105250000Y-114675000D03*
G04 #@! TD*
D19*
G04 #@! TO.C,U1*
X142800000Y-105350000D03*
X140500000Y-105350000D03*
D20*
X140500000Y-111650000D03*
D19*
X138200000Y-105350000D03*
G04 #@! TD*
D13*
G04 #@! TO.C,U2*
X98550000Y-110637500D03*
X99500000Y-110637500D03*
X100450000Y-110637500D03*
X100450000Y-108362500D03*
X98550000Y-108362500D03*
G04 #@! TD*
D21*
G04 #@! TO.C,R4*
X94000000Y-108675000D03*
X94000000Y-110325000D03*
G04 #@! TD*
D22*
G04 #@! TO.C,D4*
X94000000Y-114037500D03*
X94000000Y-112462500D03*
G04 #@! TD*
D11*
G04 #@! TO.C,R3*
X127000000Y-116325000D03*
X127000000Y-114675000D03*
G04 #@! TD*
M02*
