G04 #@! TF.GenerationSoftware,KiCad,Pcbnew,(6.0.5)*
G04 #@! TF.CreationDate,2022-06-23T18:32:15+02:00*
G04 #@! TF.ProjectId,microjuice,6d696372-6f6a-4756-9963-652e6b696361,rev?*
G04 #@! TF.SameCoordinates,Original*
G04 #@! TF.FileFunction,Copper,L1,Top*
G04 #@! TF.FilePolarity,Positive*
%FSLAX46Y46*%
G04 Gerber Fmt 4.6, Leading zero omitted, Abs format (unit mm)*
G04 Created by KiCad (PCBNEW (6.0.5)) date 2022-06-23 18:32:15*
%MOMM*%
%LPD*%
G01*
G04 APERTURE LIST*
G04 Aperture macros list*
%AMRoundRect*
0 Rectangle with rounded corners*
0 $1 Rounding radius*
0 $2 $3 $4 $5 $6 $7 $8 $9 X,Y pos of 4 corners*
0 Add a 4 corners polygon primitive as box body*
4,1,4,$2,$3,$4,$5,$6,$7,$8,$9,$2,$3,0*
0 Add four circle primitives for the rounded corners*
1,1,$1+$1,$2,$3*
1,1,$1+$1,$4,$5*
1,1,$1+$1,$6,$7*
1,1,$1+$1,$8,$9*
0 Add four rect primitives between the rounded corners*
20,1,$1+$1,$2,$3,$4,$5,0*
20,1,$1+$1,$4,$5,$6,$7,0*
20,1,$1+$1,$6,$7,$8,$9,0*
20,1,$1+$1,$8,$9,$2,$3,0*%
G04 Aperture macros list end*
G04 #@! TA.AperFunction,SMDPad,CuDef*
%ADD10RoundRect,0.200000X0.275000X-0.200000X0.275000X0.200000X-0.275000X0.200000X-0.275000X-0.200000X0*%
G04 #@! TD*
G04 #@! TA.AperFunction,SMDPad,CuDef*
%ADD11RoundRect,0.150000X0.150000X-0.587500X0.150000X0.587500X-0.150000X0.587500X-0.150000X-0.587500X0*%
G04 #@! TD*
G04 #@! TA.AperFunction,ComponentPad*
%ADD12C,7.000000*%
G04 #@! TD*
G04 #@! TA.AperFunction,SMDPad,CuDef*
%ADD13RoundRect,0.150000X0.150000X-0.512500X0.150000X0.512500X-0.150000X0.512500X-0.150000X-0.512500X0*%
G04 #@! TD*
G04 #@! TA.AperFunction,SMDPad,CuDef*
%ADD14RoundRect,0.250000X1.500000X0.550000X-1.500000X0.550000X-1.500000X-0.550000X1.500000X-0.550000X0*%
G04 #@! TD*
G04 #@! TA.AperFunction,SMDPad,CuDef*
%ADD15R,1.800000X2.500000*%
G04 #@! TD*
G04 #@! TA.AperFunction,ComponentPad*
%ADD16C,6.200000*%
G04 #@! TD*
G04 #@! TA.AperFunction,SMDPad,CuDef*
%ADD17RoundRect,0.225000X0.250000X-0.225000X0.250000X0.225000X-0.250000X0.225000X-0.250000X-0.225000X0*%
G04 #@! TD*
G04 #@! TA.AperFunction,ComponentPad*
%ADD18R,1.700000X1.700000*%
G04 #@! TD*
G04 #@! TA.AperFunction,ComponentPad*
%ADD19O,1.700000X1.700000*%
G04 #@! TD*
G04 #@! TA.AperFunction,SMDPad,CuDef*
%ADD20RoundRect,0.250000X0.425000X-0.450000X0.425000X0.450000X-0.425000X0.450000X-0.425000X-0.450000X0*%
G04 #@! TD*
G04 #@! TA.AperFunction,SMDPad,CuDef*
%ADD21RoundRect,0.250000X-0.450000X-0.425000X0.450000X-0.425000X0.450000X0.425000X-0.450000X0.425000X0*%
G04 #@! TD*
G04 #@! TA.AperFunction,SMDPad,CuDef*
%ADD22R,1.500000X2.000000*%
G04 #@! TD*
G04 #@! TA.AperFunction,SMDPad,CuDef*
%ADD23R,3.800000X2.000000*%
G04 #@! TD*
G04 #@! TA.AperFunction,ConnectorPad*
%ADD24R,1.900000X8.000000*%
G04 #@! TD*
G04 #@! TA.AperFunction,ConnectorPad*
%ADD25R,2.000000X7.500000*%
G04 #@! TD*
G04 #@! TA.AperFunction,SMDPad,CuDef*
%ADD26RoundRect,0.200000X-0.275000X0.200000X-0.275000X-0.200000X0.275000X-0.200000X0.275000X0.200000X0*%
G04 #@! TD*
G04 #@! TA.AperFunction,SMDPad,CuDef*
%ADD27RoundRect,0.218750X0.256250X-0.218750X0.256250X0.218750X-0.256250X0.218750X-0.256250X-0.218750X0*%
G04 #@! TD*
G04 #@! TA.AperFunction,ViaPad*
%ADD28C,0.800000*%
G04 #@! TD*
G04 #@! TA.AperFunction,Conductor*
%ADD29C,0.800000*%
G04 #@! TD*
G04 #@! TA.AperFunction,Conductor*
%ADD30C,0.400000*%
G04 #@! TD*
G04 APERTURE END LIST*
D10*
G04 #@! TO.P,R2,1*
G04 #@! TO.N,Net-(H8-Pad1)*
X115500000Y-116250000D03*
G04 #@! TO.P,R2,2*
G04 #@! TO.N,Net-(D2-Pad2)*
X115500000Y-114600000D03*
G04 #@! TD*
D11*
G04 #@! TO.P,D3,1*
G04 #@! TO.N,unconnected-(D3-Pad1)*
X112050000Y-110437500D03*
G04 #@! TO.P,D3,2*
G04 #@! TO.N,Net-(D3-Pad2)*
X113950000Y-110437500D03*
G04 #@! TO.P,D3,3*
G04 #@! TO.N,+3V0*
X113000000Y-108562500D03*
G04 #@! TD*
D12*
G04 #@! TO.P,H6,1,1*
G04 #@! TO.N,VBUS*
X150800000Y-124600000D03*
G04 #@! TD*
D13*
G04 #@! TO.P,U4,1*
G04 #@! TO.N,GND*
X117550000Y-110637500D03*
G04 #@! TO.P,U4,2*
G04 #@! TO.N,Net-(D3-Pad2)*
X118500000Y-110637500D03*
G04 #@! TO.P,U4,3,GND*
G04 #@! TO.N,GND*
X119450000Y-110637500D03*
G04 #@! TO.P,U4,4*
G04 #@! TO.N,Net-(JP3-Pad1)*
X119450000Y-108362500D03*
G04 #@! TO.P,U4,5,VCC*
G04 #@! TO.N,VBUS*
X117550000Y-108362500D03*
G04 #@! TD*
D12*
G04 #@! TO.P,H10,1,1*
G04 #@! TO.N,+3V0*
X132000000Y-132588000D03*
G04 #@! TD*
D14*
G04 #@! TO.P,C1,1*
G04 #@! TO.N,VBUS*
X128700000Y-109500000D03*
G04 #@! TO.P,C1,2*
G04 #@! TO.N,GND*
X123300000Y-109500000D03*
G04 #@! TD*
D11*
G04 #@! TO.P,D2,1*
G04 #@! TO.N,Net-(D2-Pad1)*
X102300000Y-110437500D03*
G04 #@! TO.P,D2,2*
G04 #@! TO.N,Net-(D2-Pad2)*
X104200000Y-110437500D03*
G04 #@! TO.P,D2,3*
G04 #@! TO.N,+3V0*
X103250000Y-108562500D03*
G04 #@! TD*
D15*
G04 #@! TO.P,D1,1,K*
G04 #@! TO.N,+3V0*
X134000000Y-111200000D03*
G04 #@! TO.P,D1,2,A*
G04 #@! TO.N,Net-(C6-Pad1)*
X134000000Y-107200000D03*
G04 #@! TD*
D16*
G04 #@! TO.P,H9,1,1*
G04 #@! TO.N,Net-(H9-Pad1)*
X121920000Y-116840000D03*
G04 #@! TD*
D17*
G04 #@! TO.P,C4,1*
G04 #@! TO.N,GND*
X96500000Y-110275000D03*
G04 #@! TO.P,C4,2*
G04 #@! TO.N,VBUS*
X96500000Y-108725000D03*
G04 #@! TD*
G04 #@! TO.P,C5,1*
G04 #@! TO.N,GND*
X115750000Y-110275000D03*
G04 #@! TO.P,C5,2*
G04 #@! TO.N,VBUS*
X115750000Y-108725000D03*
G04 #@! TD*
G04 #@! TO.P,C3,1*
G04 #@! TO.N,GND*
X106250000Y-110275000D03*
G04 #@! TO.P,C3,2*
G04 #@! TO.N,VBUS*
X106250000Y-108725000D03*
G04 #@! TD*
D18*
G04 #@! TO.P,J5,1,Pin_1*
G04 #@! TO.N,GND*
X122000000Y-102500000D03*
D19*
G04 #@! TO.P,J5,2,Pin_2*
G04 #@! TO.N,VBUS*
X124540000Y-102500000D03*
G04 #@! TO.P,J5,3,Pin_3*
G04 #@! TO.N,Net-(JP3-Pad1)*
X127080000Y-102500000D03*
G04 #@! TD*
D20*
G04 #@! TO.P,C6,1*
G04 #@! TO.N,Net-(C6-Pad1)*
X146000000Y-110850000D03*
G04 #@! TO.P,C6,2*
G04 #@! TO.N,GND*
X146000000Y-108150000D03*
G04 #@! TD*
D13*
G04 #@! TO.P,U3,1*
G04 #@! TO.N,GND*
X108100000Y-110637500D03*
G04 #@! TO.P,U3,2*
G04 #@! TO.N,Net-(D2-Pad2)*
X109050000Y-110637500D03*
G04 #@! TO.P,U3,3,GND*
G04 #@! TO.N,GND*
X110000000Y-110637500D03*
G04 #@! TO.P,U3,4*
G04 #@! TO.N,Net-(J4-Pad3)*
X110000000Y-108362500D03*
G04 #@! TO.P,U3,5,VCC*
G04 #@! TO.N,VBUS*
X108100000Y-108362500D03*
G04 #@! TD*
D21*
G04 #@! TO.P,C2,1*
G04 #@! TO.N,VBUS*
X140150000Y-102500000D03*
G04 #@! TO.P,C2,2*
G04 #@! TO.N,GND*
X142850000Y-102500000D03*
G04 #@! TD*
D18*
G04 #@! TO.P,J4,1,Pin_1*
G04 #@! TO.N,GND*
X112000000Y-102500000D03*
D19*
G04 #@! TO.P,J4,2,Pin_2*
G04 #@! TO.N,VBUS*
X114540000Y-102500000D03*
G04 #@! TO.P,J4,3,Pin_3*
G04 #@! TO.N,Net-(J4-Pad3)*
X117080000Y-102500000D03*
G04 #@! TD*
D10*
G04 #@! TO.P,R1,1*
G04 #@! TO.N,Net-(H7-Pad1)*
X105250000Y-116325000D03*
G04 #@! TO.P,R1,2*
G04 #@! TO.N,Net-(D2-Pad1)*
X105250000Y-114675000D03*
G04 #@! TD*
D22*
G04 #@! TO.P,U1,1,GND*
G04 #@! TO.N,GND*
X142800000Y-105350000D03*
G04 #@! TO.P,U1,2,VO*
G04 #@! TO.N,Net-(C6-Pad1)*
X140500000Y-105350000D03*
D23*
X140500000Y-111650000D03*
D22*
G04 #@! TO.P,U1,3,VI*
G04 #@! TO.N,VBUS*
X138200000Y-105350000D03*
G04 #@! TD*
D16*
G04 #@! TO.P,H7,1,1*
G04 #@! TO.N,Net-(H7-Pad1)*
X100330000Y-116840000D03*
G04 #@! TD*
G04 #@! TO.P,H5,1,1*
G04 #@! TO.N,GND*
X143510000Y-116840000D03*
G04 #@! TD*
D12*
G04 #@! TO.P,H2,1,1*
G04 #@! TO.N,Net-(D2-Pad2)*
X112000000Y-132588000D03*
G04 #@! TD*
D13*
G04 #@! TO.P,U2,1*
G04 #@! TO.N,GND*
X98550000Y-110637500D03*
G04 #@! TO.P,U2,2*
G04 #@! TO.N,Net-(D2-Pad1)*
X99500000Y-110637500D03*
G04 #@! TO.P,U2,3,GND*
G04 #@! TO.N,GND*
X100450000Y-110637500D03*
G04 #@! TO.P,U2,4*
G04 #@! TO.N,Net-(J3-Pad3)*
X100450000Y-108362500D03*
G04 #@! TO.P,U2,5,VCC*
G04 #@! TO.N,VBUS*
X98550000Y-108362500D03*
G04 #@! TD*
D24*
G04 #@! TO.P,J1,1,VBUS*
G04 #@! TO.N,VBUS*
X137790000Y-92900000D03*
D25*
G04 #@! TO.P,J1,2,D-*
G04 #@! TO.N,unconnected-(J1-Pad2)*
X140300000Y-93150000D03*
G04 #@! TO.P,J1,3,D+*
G04 #@! TO.N,unconnected-(J1-Pad3)*
X142900000Y-93150000D03*
D24*
G04 #@! TO.P,J1,4,GND*
G04 #@! TO.N,GND*
X145410000Y-92900000D03*
G04 #@! TD*
D26*
G04 #@! TO.P,R4,1*
G04 #@! TO.N,VBUS*
X94000000Y-108675000D03*
G04 #@! TO.P,R4,2*
G04 #@! TO.N,Net-(D4-Pad2)*
X94000000Y-110325000D03*
G04 #@! TD*
D12*
G04 #@! TO.P,H11,1,1*
G04 #@! TO.N,GND*
X142000000Y-132588000D03*
G04 #@! TD*
G04 #@! TO.P,H1,1,1*
G04 #@! TO.N,Net-(D2-Pad1)*
X102000000Y-132588000D03*
G04 #@! TD*
D27*
G04 #@! TO.P,D4,1,K*
G04 #@! TO.N,GND*
X94000000Y-114037500D03*
G04 #@! TO.P,D4,2,A*
G04 #@! TO.N,Net-(D4-Pad2)*
X94000000Y-112462500D03*
G04 #@! TD*
D18*
G04 #@! TO.P,J3,1,Pin_1*
G04 #@! TO.N,GND*
X102000000Y-102500000D03*
D19*
G04 #@! TO.P,J3,2,Pin_2*
G04 #@! TO.N,VBUS*
X104540000Y-102500000D03*
G04 #@! TO.P,J3,3,Pin_3*
G04 #@! TO.N,Net-(J3-Pad3)*
X107080000Y-102500000D03*
G04 #@! TD*
D16*
G04 #@! TO.P,H8,1,1*
G04 #@! TO.N,Net-(H8-Pad1)*
X110490000Y-116840000D03*
G04 #@! TD*
D10*
G04 #@! TO.P,R3,1*
G04 #@! TO.N,Net-(H9-Pad1)*
X127000000Y-116325000D03*
G04 #@! TO.P,R3,2*
G04 #@! TO.N,Net-(D3-Pad2)*
X127000000Y-114675000D03*
G04 #@! TD*
D12*
G04 #@! TO.P,H3,1,1*
G04 #@! TO.N,Net-(D3-Pad2)*
X121920000Y-132588000D03*
G04 #@! TD*
D16*
G04 #@! TO.P,H4,1,1*
G04 #@! TO.N,+3V0*
X133350000Y-116840000D03*
G04 #@! TD*
D28*
G04 #@! TO.N,GND*
X101400500Y-110500000D03*
X145700000Y-100600000D03*
X120500000Y-110500000D03*
X123250000Y-111000000D03*
X145300000Y-104800000D03*
X111000000Y-110500000D03*
X95250000Y-110250000D03*
X143100000Y-100600000D03*
X144400000Y-100600000D03*
G04 #@! TO.N,+3V0*
X110500000Y-112200000D03*
X118100000Y-114400000D03*
X107700000Y-112200500D03*
X124690332Y-113059668D03*
G04 #@! TO.N,VBUS*
X127400000Y-111250000D03*
X126200000Y-111250000D03*
X128600000Y-111250000D03*
G04 #@! TO.N,Net-(D2-Pad1)*
X99500000Y-112000000D03*
G04 #@! TO.N,Net-(D2-Pad2)*
X109000000Y-112000000D03*
G04 #@! TO.N,Net-(D3-Pad2)*
X115500000Y-111500000D03*
G04 #@! TO.N,Net-(J3-Pad3)*
X101500000Y-108000000D03*
G04 #@! TO.N,Net-(C6-Pad1)*
X140500000Y-109500000D03*
X140500000Y-106500000D03*
G04 #@! TO.N,Net-(J4-Pad3)*
X111250000Y-108000000D03*
G04 #@! TO.N,Net-(JP3-Pad1)*
X120500000Y-107750000D03*
G04 #@! TD*
D29*
G04 #@! TO.N,GND*
X142800000Y-102800000D02*
X142800000Y-105350000D01*
D30*
X119026069Y-109500000D02*
X119450000Y-109923931D01*
X97275000Y-110275000D02*
X97637500Y-110637500D01*
X100450000Y-109950000D02*
X100450000Y-110637500D01*
X106975000Y-110275000D02*
X107000000Y-110250000D01*
X94000000Y-114037500D02*
X94462500Y-114037500D01*
D29*
X145300000Y-104800000D02*
X146000000Y-105500000D01*
D30*
X96500000Y-110275000D02*
X97275000Y-110275000D01*
X120500000Y-110500000D02*
X120362500Y-110637500D01*
X107000000Y-110250000D02*
X107387500Y-110637500D01*
X95250000Y-113250000D02*
X95250000Y-110250000D01*
X100450000Y-110637500D02*
X101263000Y-110637500D01*
D29*
X123300000Y-110950000D02*
X123300000Y-109500000D01*
D30*
X117550000Y-109950000D02*
X118000000Y-109500000D01*
D29*
X146000000Y-105500000D02*
X146000000Y-108150000D01*
D30*
X110000000Y-110637500D02*
X110000000Y-110000000D01*
X98550000Y-110637500D02*
X98550000Y-109923931D01*
X98550000Y-109923931D02*
X98973931Y-109500000D01*
X109500000Y-109500000D02*
X108500000Y-109500000D01*
X120362500Y-110637500D02*
X119450000Y-110637500D01*
X101263000Y-110637500D02*
X101400500Y-110500000D01*
D29*
X142850000Y-102750000D02*
X142800000Y-102800000D01*
X142850000Y-102500000D02*
X142850000Y-102750000D01*
X145300000Y-104800000D02*
X143350000Y-104800000D01*
D30*
X100000000Y-109500000D02*
X100450000Y-109950000D01*
X108500000Y-109500000D02*
X108100000Y-109900000D01*
X106250000Y-110275000D02*
X106975000Y-110275000D01*
X98973931Y-109500000D02*
X100000000Y-109500000D01*
X97637500Y-110637500D02*
X98550000Y-110637500D01*
X107387500Y-110637500D02*
X108100000Y-110637500D01*
D29*
X121500000Y-109500000D02*
X120500000Y-110500000D01*
X123300000Y-109500000D02*
X121500000Y-109500000D01*
D30*
X108100000Y-109900000D02*
X108100000Y-110637500D01*
X117550000Y-110637500D02*
X117550000Y-109950000D01*
X94462500Y-114037500D02*
X95250000Y-113250000D01*
X95275000Y-110275000D02*
X96500000Y-110275000D01*
D29*
X143350000Y-104800000D02*
X142800000Y-105350000D01*
D30*
X110862500Y-110637500D02*
X110000000Y-110637500D01*
X111000000Y-110500000D02*
X110862500Y-110637500D01*
X118000000Y-109500000D02*
X119026069Y-109500000D01*
X116500000Y-110275000D02*
X116862500Y-110637500D01*
X110000000Y-110000000D02*
X109500000Y-109500000D01*
X115750000Y-110275000D02*
X116500000Y-110275000D01*
X116862500Y-110637500D02*
X117550000Y-110637500D01*
X119450000Y-109923931D02*
X119450000Y-110637500D01*
X95250000Y-110250000D02*
X95275000Y-110275000D01*
D29*
X123250000Y-111000000D02*
X123300000Y-110950000D01*
G04 #@! TO.N,+3V0*
X133600000Y-111600000D02*
X133600000Y-116590000D01*
D30*
X114300000Y-113000000D02*
X113000000Y-111700000D01*
X131127832Y-112172168D02*
X132100000Y-111200000D01*
X112700000Y-112200000D02*
X113000000Y-111900000D01*
X110500000Y-112200000D02*
X112700000Y-112200000D01*
X104462500Y-108562500D02*
X103250000Y-108562500D01*
D29*
X134000000Y-111200000D02*
X133600000Y-111600000D01*
D30*
X113000000Y-111700000D02*
X113000000Y-111300000D01*
X125577832Y-112172168D02*
X131127832Y-112172168D01*
X116700000Y-113000000D02*
X114300000Y-113000000D01*
X113000000Y-111900000D02*
X113000000Y-111300000D01*
X107700000Y-112200500D02*
X106500500Y-112200500D01*
D29*
X133600000Y-116590000D02*
X133350000Y-116840000D01*
D30*
X132100000Y-111200000D02*
X134000000Y-111200000D01*
X113000000Y-111002138D02*
X113000000Y-108562500D01*
X105100000Y-109200000D02*
X104462500Y-108562500D01*
X124690332Y-113059668D02*
X125577832Y-112172168D01*
X113000000Y-111300000D02*
X113000000Y-111002138D01*
X106500500Y-112200500D02*
X105100000Y-110800000D01*
X118100000Y-114400000D02*
X116700000Y-113000000D01*
X105100000Y-110800000D02*
X105100000Y-109200000D01*
G04 #@! TO.N,VBUS*
X106275000Y-108750000D02*
X107000000Y-108750000D01*
X106250000Y-108725000D02*
X106275000Y-108750000D01*
X116387500Y-108725000D02*
X116750000Y-108362500D01*
X94000000Y-108675000D02*
X96450000Y-108675000D01*
X107000000Y-108750000D02*
X107387500Y-108362500D01*
X97275000Y-108725000D02*
X97637500Y-108362500D01*
X96450000Y-108675000D02*
X96500000Y-108725000D01*
X97637500Y-108362500D02*
X98550000Y-108362500D01*
X115750000Y-108725000D02*
X116387500Y-108725000D01*
X116750000Y-108362500D02*
X117550000Y-108362500D01*
X117550000Y-108362500D02*
X117550000Y-106700000D01*
X96500000Y-108725000D02*
X97275000Y-108725000D01*
X107387500Y-108362500D02*
X108100000Y-108362500D01*
X98550000Y-108362500D02*
X98550000Y-106450000D01*
X108100000Y-108362500D02*
X108100000Y-106400000D01*
G04 #@! TO.N,Net-(H7-Pad1)*
X103205000Y-116675000D02*
X103040000Y-116840000D01*
X100845000Y-116325000D02*
X105250000Y-116325000D01*
X103040000Y-116840000D02*
X100330000Y-116840000D01*
X100175000Y-116685000D02*
X100330000Y-116840000D01*
X100330000Y-116840000D02*
X100845000Y-116325000D01*
G04 #@! TO.N,Net-(H8-Pad1)*
X110490000Y-116840000D02*
X111080000Y-116250000D01*
X111080000Y-116250000D02*
X115500000Y-116250000D01*
G04 #@! TO.N,Net-(H9-Pad1)*
X119590000Y-116840000D02*
X121920000Y-116840000D01*
X121920000Y-116840000D02*
X122435000Y-116325000D01*
X122435000Y-116325000D02*
X127000000Y-116325000D01*
G04 #@! TO.N,Net-(D4-Pad2)*
X94000000Y-112462500D02*
X94000000Y-110325000D01*
G04 #@! TO.N,Net-(D2-Pad1)*
X99500000Y-112000000D02*
X99750000Y-112250000D01*
X96000000Y-114000000D02*
X96000000Y-126588000D01*
X97750000Y-112250000D02*
X96000000Y-114000000D01*
X96000000Y-126588000D02*
X102000000Y-132588000D01*
X105250000Y-114150000D02*
X103350000Y-112250000D01*
X99500000Y-112000000D02*
X99250000Y-112250000D01*
X99500000Y-110637500D02*
X99500000Y-112000000D01*
X103350000Y-112250000D02*
X102750000Y-112250000D01*
X102300000Y-111800000D02*
X102300000Y-110437500D01*
X102750000Y-112250000D02*
X102300000Y-111800000D01*
X105250000Y-114675000D02*
X105250000Y-114150000D01*
X99750000Y-112250000D02*
X101850000Y-112250000D01*
X99250000Y-112250000D02*
X97750000Y-112250000D01*
X101850000Y-112250000D02*
X102300000Y-111800000D01*
G04 #@! TO.N,Net-(D2-Pad2)*
X105750000Y-113000000D02*
X104200000Y-111450000D01*
X113900000Y-114600000D02*
X115500000Y-114600000D01*
X109000000Y-112100000D02*
X108100000Y-113000000D01*
X109050000Y-111950000D02*
X109000000Y-112000000D01*
X109000000Y-112000000D02*
X110000000Y-113000000D01*
X106500000Y-114600000D02*
X106500000Y-127088000D01*
X108100000Y-113000000D02*
X105750000Y-113000000D01*
X109050000Y-110637500D02*
X109050000Y-111950000D01*
X104200000Y-111450000D02*
X104200000Y-110437500D01*
X106500000Y-127088000D02*
X112000000Y-132588000D01*
X109000000Y-112100000D02*
X106500000Y-114600000D01*
X110000000Y-113000000D02*
X112300000Y-113000000D01*
X109000000Y-110687500D02*
X109050000Y-110637500D01*
X112300000Y-113000000D02*
X113900000Y-114600000D01*
X109000000Y-112000000D02*
X109000000Y-112100000D01*
G04 #@! TO.N,Net-(D3-Pad2)*
X118100000Y-128768000D02*
X121920000Y-132588000D01*
X118100000Y-115555471D02*
X118100000Y-128768000D01*
X118899511Y-114755960D02*
X118100000Y-115555471D01*
X118500000Y-110637500D02*
X118500000Y-113669320D01*
X118899511Y-114068831D02*
X118899511Y-114755960D01*
X113950000Y-111450000D02*
X113950000Y-110437500D01*
X114000000Y-111500000D02*
X113950000Y-111450000D01*
X122500000Y-112000000D02*
X125175000Y-114675000D01*
X125175000Y-114675000D02*
X127000000Y-114675000D01*
X116000000Y-112000000D02*
X122500000Y-112000000D01*
X115500000Y-111500000D02*
X114000000Y-111500000D01*
X118500000Y-113669320D02*
X118899511Y-114068831D01*
X115500000Y-111500000D02*
X116000000Y-112000000D01*
G04 #@! TO.N,Net-(J3-Pad3)*
X100450000Y-108362500D02*
X101137500Y-108362500D01*
X101137500Y-108362500D02*
X101500000Y-108000000D01*
D29*
G04 #@! TO.N,Net-(C6-Pad1)*
X134000000Y-107200000D02*
X139800000Y-107200000D01*
X139800000Y-107200000D02*
X140500000Y-106500000D01*
X140500000Y-105350000D02*
X140500000Y-106500000D01*
X142850000Y-111650000D02*
X140500000Y-111650000D01*
X146000000Y-110850000D02*
X143650000Y-110850000D01*
X140500000Y-109500000D02*
X140500000Y-111650000D01*
X143650000Y-110850000D02*
X142850000Y-111650000D01*
X140500000Y-106500000D02*
X140500000Y-109500000D01*
D30*
G04 #@! TO.N,Net-(J4-Pad3)*
X110887500Y-108362500D02*
X110000000Y-108362500D01*
X111250000Y-108000000D02*
X110887500Y-108362500D01*
G04 #@! TO.N,Net-(JP3-Pad1)*
X119950000Y-108300000D02*
X119450000Y-108300000D01*
X120500000Y-107750000D02*
X119950000Y-108300000D01*
G04 #@! TD*
G04 #@! TA.AperFunction,Conductor*
G04 #@! TO.N,+3V0*
G36*
X133439095Y-116569885D02*
G01*
X136063210Y-119193999D01*
X136087838Y-119207448D01*
X136134385Y-119217573D01*
X136184587Y-119267775D01*
X136200000Y-119328161D01*
X136200000Y-133150000D01*
X127900000Y-133150000D01*
X127900000Y-119566286D01*
X130988861Y-119566286D01*
X130996318Y-119576654D01*
X131223800Y-119760865D01*
X131229115Y-119764727D01*
X131540773Y-119967121D01*
X131546450Y-119970398D01*
X131877540Y-120139097D01*
X131883565Y-120141779D01*
X132230447Y-120274935D01*
X132236729Y-120276976D01*
X132595636Y-120373144D01*
X132602086Y-120374515D01*
X132969096Y-120432645D01*
X132975634Y-120433331D01*
X133346699Y-120452778D01*
X133353301Y-120452778D01*
X133724366Y-120433331D01*
X133730904Y-120432645D01*
X134097914Y-120374515D01*
X134104364Y-120373144D01*
X134463271Y-120276976D01*
X134469553Y-120274935D01*
X134816435Y-120141779D01*
X134822460Y-120139097D01*
X135153550Y-119970398D01*
X135159227Y-119967121D01*
X135470885Y-119764727D01*
X135476200Y-119760865D01*
X135702730Y-119577424D01*
X135711198Y-119565166D01*
X135704865Y-119554076D01*
X133362810Y-117212020D01*
X133348869Y-117204408D01*
X133347034Y-117204539D01*
X133340420Y-117208790D01*
X130996001Y-119553210D01*
X130988861Y-119566286D01*
X127900000Y-119566286D01*
X127900000Y-118554501D01*
X127900321Y-118545513D01*
X127919714Y-118274355D01*
X127922272Y-118256567D01*
X127979098Y-117995342D01*
X127984161Y-117978097D01*
X127993421Y-117953271D01*
X128077589Y-117727607D01*
X128085055Y-117711260D01*
X128213176Y-117476625D01*
X128222895Y-117461502D01*
X128383103Y-117247490D01*
X128394876Y-117233904D01*
X128583904Y-117044876D01*
X128597490Y-117033103D01*
X128811502Y-116872895D01*
X128826625Y-116863176D01*
X129061260Y-116735055D01*
X129077607Y-116727589D01*
X129328100Y-116634160D01*
X129345329Y-116629101D01*
X129591502Y-116575549D01*
X129662316Y-116580614D01*
X129719151Y-116623161D01*
X129743962Y-116689682D01*
X129744110Y-116705264D01*
X129737222Y-116836699D01*
X129737222Y-116843301D01*
X129756669Y-117214366D01*
X129757355Y-117220904D01*
X129815485Y-117587914D01*
X129816856Y-117594364D01*
X129913024Y-117953271D01*
X129915065Y-117959553D01*
X130048221Y-118306435D01*
X130050903Y-118312460D01*
X130219594Y-118643534D01*
X130222891Y-118649244D01*
X130425259Y-118960864D01*
X130429147Y-118966215D01*
X130612576Y-119192730D01*
X130624834Y-119201198D01*
X130635924Y-119194865D01*
X133260905Y-116569885D01*
X133297321Y-116550000D01*
X133408155Y-116550000D01*
X133439095Y-116569885D01*
G37*
G04 #@! TD.AperFunction*
G04 #@! TD*
G04 #@! TA.AperFunction,Conductor*
G04 #@! TO.N,Net-(D3-Pad2)*
G36*
X125254843Y-129000477D02*
G01*
X125435388Y-129018259D01*
X125454418Y-129022045D01*
X125538887Y-129047668D01*
X125623353Y-129073290D01*
X125641283Y-129080717D01*
X125796969Y-129163933D01*
X125813106Y-129174715D01*
X125949573Y-129286710D01*
X125963290Y-129300427D01*
X126030102Y-129381837D01*
X126075285Y-129436894D01*
X126086067Y-129453031D01*
X126169283Y-129608717D01*
X126176710Y-129626647D01*
X126227955Y-129795580D01*
X126231741Y-129814614D01*
X126249523Y-129995157D01*
X126250000Y-130004861D01*
X126250000Y-135995139D01*
X126249523Y-136004843D01*
X126231741Y-136185386D01*
X126227955Y-136204420D01*
X126176710Y-136373353D01*
X126169283Y-136391283D01*
X126086067Y-136546969D01*
X126075285Y-136563106D01*
X125993054Y-136663305D01*
X125941523Y-136696292D01*
X125916526Y-136699500D01*
X118083474Y-136699500D01*
X118025283Y-136680593D01*
X118006946Y-136663305D01*
X117924715Y-136563106D01*
X117913933Y-136546969D01*
X117830717Y-136391283D01*
X117823290Y-136373353D01*
X117772045Y-136204420D01*
X117768259Y-136185386D01*
X117750477Y-136004843D01*
X117750000Y-135995139D01*
X117750000Y-130004861D01*
X117750477Y-129995157D01*
X117768259Y-129814614D01*
X117772045Y-129795580D01*
X117823290Y-129626647D01*
X117830717Y-129608717D01*
X117913933Y-129453031D01*
X117924715Y-129436894D01*
X117969898Y-129381837D01*
X118036710Y-129300427D01*
X118050427Y-129286710D01*
X118186894Y-129174715D01*
X118203031Y-129163933D01*
X118358717Y-129080717D01*
X118376647Y-129073290D01*
X118461113Y-129047668D01*
X118545582Y-129022045D01*
X118564612Y-129018259D01*
X118745157Y-129000477D01*
X118754861Y-129000000D01*
X125245139Y-129000000D01*
X125254843Y-129000477D01*
G37*
G04 #@! TD.AperFunction*
G04 #@! TD*
G04 #@! TA.AperFunction,Conductor*
G04 #@! TO.N,+3V0*
G36*
X135504843Y-129000477D02*
G01*
X135685388Y-129018259D01*
X135704418Y-129022045D01*
X135788887Y-129047668D01*
X135873353Y-129073290D01*
X135891283Y-129080717D01*
X136046969Y-129163933D01*
X136063106Y-129174715D01*
X136199573Y-129286710D01*
X136213290Y-129300427D01*
X136280102Y-129381837D01*
X136325285Y-129436894D01*
X136336067Y-129453031D01*
X136419283Y-129608717D01*
X136426710Y-129626647D01*
X136477955Y-129795580D01*
X136481741Y-129814614D01*
X136499523Y-129995157D01*
X136500000Y-130004861D01*
X136500000Y-135995139D01*
X136499523Y-136004843D01*
X136481741Y-136185386D01*
X136477955Y-136204420D01*
X136426710Y-136373353D01*
X136419283Y-136391283D01*
X136336067Y-136546969D01*
X136325285Y-136563106D01*
X136243054Y-136663305D01*
X136191523Y-136696292D01*
X136166526Y-136699500D01*
X128083474Y-136699500D01*
X128025283Y-136680593D01*
X128006946Y-136663305D01*
X127924715Y-136563106D01*
X127913933Y-136546969D01*
X127830717Y-136391283D01*
X127823290Y-136373353D01*
X127772045Y-136204420D01*
X127768259Y-136185386D01*
X127750477Y-136004843D01*
X127750000Y-135995139D01*
X127750000Y-130004861D01*
X127750477Y-129995157D01*
X127768259Y-129814614D01*
X127772045Y-129795580D01*
X127823290Y-129626647D01*
X127830717Y-129608717D01*
X127913933Y-129453031D01*
X127924715Y-129436894D01*
X127969898Y-129381837D01*
X128036710Y-129300427D01*
X128050427Y-129286710D01*
X128186894Y-129174715D01*
X128203031Y-129163933D01*
X128358717Y-129080717D01*
X128376647Y-129073290D01*
X128461113Y-129047668D01*
X128545582Y-129022045D01*
X128564612Y-129018259D01*
X128745157Y-129000477D01*
X128754861Y-129000000D01*
X135495139Y-129000000D01*
X135504843Y-129000477D01*
G37*
G04 #@! TD.AperFunction*
G04 #@! TD*
G04 #@! TA.AperFunction,Conductor*
G04 #@! TO.N,Net-(D2-Pad2)*
G36*
X115254843Y-129000477D02*
G01*
X115435388Y-129018259D01*
X115454418Y-129022045D01*
X115538887Y-129047668D01*
X115623353Y-129073290D01*
X115641283Y-129080717D01*
X115796969Y-129163933D01*
X115813106Y-129174715D01*
X115949573Y-129286710D01*
X115963290Y-129300427D01*
X116030102Y-129381837D01*
X116075285Y-129436894D01*
X116086067Y-129453031D01*
X116169283Y-129608717D01*
X116176710Y-129626647D01*
X116227955Y-129795580D01*
X116231741Y-129814614D01*
X116249523Y-129995157D01*
X116250000Y-130004861D01*
X116250000Y-135995139D01*
X116249523Y-136004843D01*
X116231741Y-136185386D01*
X116227955Y-136204420D01*
X116176710Y-136373353D01*
X116169283Y-136391283D01*
X116086067Y-136546969D01*
X116075285Y-136563106D01*
X115993054Y-136663305D01*
X115941523Y-136696292D01*
X115916526Y-136699500D01*
X108083474Y-136699500D01*
X108025283Y-136680593D01*
X108006946Y-136663305D01*
X107924715Y-136563106D01*
X107913933Y-136546969D01*
X107830717Y-136391283D01*
X107823290Y-136373353D01*
X107772045Y-136204420D01*
X107768259Y-136185386D01*
X107750477Y-136004843D01*
X107750000Y-135995139D01*
X107750000Y-130004861D01*
X107750477Y-129995157D01*
X107768259Y-129814614D01*
X107772045Y-129795580D01*
X107823290Y-129626647D01*
X107830717Y-129608717D01*
X107913933Y-129453031D01*
X107924715Y-129436894D01*
X107969898Y-129381837D01*
X108036710Y-129300427D01*
X108050427Y-129286710D01*
X108186894Y-129174715D01*
X108203031Y-129163933D01*
X108358717Y-129080717D01*
X108376647Y-129073290D01*
X108461113Y-129047668D01*
X108545582Y-129022045D01*
X108564612Y-129018259D01*
X108745157Y-129000477D01*
X108754861Y-129000000D01*
X115245139Y-129000000D01*
X115254843Y-129000477D01*
G37*
G04 #@! TD.AperFunction*
G04 #@! TD*
G04 #@! TA.AperFunction,Conductor*
G04 #@! TO.N,GND*
G36*
X146104308Y-96450377D02*
G01*
X146189038Y-96457790D01*
X146317112Y-96468995D01*
X146334106Y-96471991D01*
X146536259Y-96526158D01*
X146552475Y-96532061D01*
X146742152Y-96620509D01*
X146757097Y-96629137D01*
X146928526Y-96749172D01*
X146941746Y-96760264D01*
X147089736Y-96908254D01*
X147100828Y-96921474D01*
X147220863Y-97092903D01*
X147229491Y-97107848D01*
X147290224Y-97238090D01*
X147299500Y-97279929D01*
X147299500Y-99597847D01*
X147293258Y-99632444D01*
X147221738Y-99824196D01*
X147215870Y-99837044D01*
X147085900Y-100075068D01*
X147078266Y-100086947D01*
X146989060Y-100206112D01*
X146915745Y-100304049D01*
X146906496Y-100314724D01*
X146714724Y-100506496D01*
X146704049Y-100515745D01*
X146486947Y-100678266D01*
X146475068Y-100685900D01*
X146237044Y-100815870D01*
X146224196Y-100821738D01*
X145970102Y-100916510D01*
X145956549Y-100920490D01*
X145691547Y-100978138D01*
X145677566Y-100980148D01*
X145403523Y-100999748D01*
X145396460Y-101000000D01*
X143199878Y-101000000D01*
X143190237Y-100999529D01*
X143013747Y-100982260D01*
X142994832Y-100978523D01*
X142912255Y-100953647D01*
X142829675Y-100928770D01*
X142811845Y-100921438D01*
X142802554Y-100916510D01*
X142659469Y-100840617D01*
X142643398Y-100829969D01*
X142633277Y-100821738D01*
X142509575Y-100721145D01*
X142495871Y-100707581D01*
X142385681Y-100574882D01*
X142374867Y-100558920D01*
X142292487Y-100407378D01*
X142284972Y-100389622D01*
X142233529Y-100224989D01*
X142229598Y-100206112D01*
X142210521Y-100029810D01*
X142209951Y-100020175D01*
X142208654Y-99893711D01*
X142208804Y-99887150D01*
X142223098Y-99632374D01*
X142224700Y-99619353D01*
X142271936Y-99371955D01*
X142275244Y-99359261D01*
X142354779Y-99120270D01*
X142359737Y-99108124D01*
X142470175Y-98881743D01*
X142476696Y-98870360D01*
X142616088Y-98660583D01*
X142624056Y-98650161D01*
X142792136Y-98458172D01*
X142796620Y-98453380D01*
X144211932Y-97038068D01*
X144216661Y-97033640D01*
X144352655Y-96914376D01*
X144406028Y-96867569D01*
X144416292Y-96859693D01*
X144623039Y-96721549D01*
X144634249Y-96715078D01*
X144857239Y-96605112D01*
X144869202Y-96600156D01*
X145104647Y-96520233D01*
X145117147Y-96516883D01*
X145361020Y-96468374D01*
X145373845Y-96466686D01*
X145625193Y-96450212D01*
X145631667Y-96450000D01*
X146095681Y-96450000D01*
X146104308Y-96450377D01*
G37*
G04 #@! TD.AperFunction*
G04 #@! TD*
G04 #@! TA.AperFunction,Conductor*
G04 #@! TO.N,GND*
G36*
X145504843Y-129000477D02*
G01*
X145685388Y-129018259D01*
X145704418Y-129022045D01*
X145788887Y-129047668D01*
X145873353Y-129073290D01*
X145891283Y-129080717D01*
X146046969Y-129163933D01*
X146063106Y-129174715D01*
X146199573Y-129286710D01*
X146213290Y-129300427D01*
X146280102Y-129381837D01*
X146325285Y-129436894D01*
X146336067Y-129453031D01*
X146419283Y-129608717D01*
X146426710Y-129626647D01*
X146477955Y-129795580D01*
X146481741Y-129814614D01*
X146499523Y-129995157D01*
X146500000Y-130004861D01*
X146500000Y-135995139D01*
X146499523Y-136004843D01*
X146481741Y-136185386D01*
X146477955Y-136204420D01*
X146426710Y-136373353D01*
X146419283Y-136391283D01*
X146336067Y-136546969D01*
X146325285Y-136563106D01*
X146243054Y-136663305D01*
X146191523Y-136696292D01*
X146166526Y-136699500D01*
X138333474Y-136699500D01*
X138275283Y-136680593D01*
X138256946Y-136663305D01*
X138174715Y-136563106D01*
X138163933Y-136546969D01*
X138080717Y-136391283D01*
X138073290Y-136373353D01*
X138022045Y-136204420D01*
X138018259Y-136185386D01*
X138000477Y-136004843D01*
X138000000Y-135995139D01*
X138000000Y-130004861D01*
X138000477Y-129995157D01*
X138018259Y-129814614D01*
X138022045Y-129795580D01*
X138073290Y-129626647D01*
X138080717Y-129608717D01*
X138163933Y-129453031D01*
X138174715Y-129436894D01*
X138219898Y-129381837D01*
X138286710Y-129300427D01*
X138300427Y-129286710D01*
X138436894Y-129174715D01*
X138453031Y-129163933D01*
X138608717Y-129080717D01*
X138626647Y-129073290D01*
X138711113Y-129047668D01*
X138795582Y-129022045D01*
X138814612Y-129018259D01*
X138995157Y-129000477D01*
X139004861Y-129000000D01*
X145495139Y-129000000D01*
X145504843Y-129000477D01*
G37*
G04 #@! TD.AperFunction*
G04 #@! TD*
G04 #@! TA.AperFunction,Conductor*
G04 #@! TO.N,GND*
G36*
X139871661Y-116527879D02*
G01*
X139905686Y-116590191D01*
X139908392Y-116623568D01*
X139897222Y-116836699D01*
X139897222Y-116843301D01*
X139916669Y-117214366D01*
X139917355Y-117220904D01*
X139975485Y-117587914D01*
X139976856Y-117594364D01*
X140073024Y-117953271D01*
X140075065Y-117959553D01*
X140208221Y-118306435D01*
X140210903Y-118312460D01*
X140379594Y-118643534D01*
X140382891Y-118649244D01*
X140585259Y-118960864D01*
X140589147Y-118966215D01*
X140772576Y-119192730D01*
X140784834Y-119201198D01*
X140795924Y-119194865D01*
X143420905Y-116569885D01*
X143483217Y-116535859D01*
X143554033Y-116540924D01*
X143599095Y-116569885D01*
X146223210Y-119193999D01*
X146237154Y-119201613D01*
X146265011Y-119199621D01*
X146334385Y-119214712D01*
X146384587Y-119264914D01*
X146400000Y-119325300D01*
X146400000Y-132800000D01*
X138350000Y-132800000D01*
X138350000Y-119566286D01*
X141148861Y-119566286D01*
X141156318Y-119576654D01*
X141383800Y-119760865D01*
X141389115Y-119764727D01*
X141700773Y-119967121D01*
X141706450Y-119970398D01*
X142037540Y-120139097D01*
X142043565Y-120141779D01*
X142390447Y-120274935D01*
X142396729Y-120276976D01*
X142755636Y-120373144D01*
X142762086Y-120374515D01*
X143129096Y-120432645D01*
X143135634Y-120433331D01*
X143506699Y-120452778D01*
X143513301Y-120452778D01*
X143884366Y-120433331D01*
X143890904Y-120432645D01*
X144257914Y-120374515D01*
X144264364Y-120373144D01*
X144623271Y-120276976D01*
X144629553Y-120274935D01*
X144976435Y-120141779D01*
X144982460Y-120139097D01*
X145313550Y-119970398D01*
X145319227Y-119967121D01*
X145630885Y-119764727D01*
X145636200Y-119760865D01*
X145862730Y-119577424D01*
X145871198Y-119565166D01*
X145864865Y-119554076D01*
X143522810Y-117212020D01*
X143508869Y-117204408D01*
X143507034Y-117204539D01*
X143500420Y-117208790D01*
X141156001Y-119553210D01*
X141148861Y-119566286D01*
X138350000Y-119566286D01*
X138350000Y-118404501D01*
X138350321Y-118395513D01*
X138369714Y-118124355D01*
X138372272Y-118106567D01*
X138429098Y-117845342D01*
X138434161Y-117828097D01*
X138521339Y-117594364D01*
X138527589Y-117577607D01*
X138535055Y-117561260D01*
X138663176Y-117326625D01*
X138672895Y-117311502D01*
X138833103Y-117097490D01*
X138844876Y-117083904D01*
X139033904Y-116894876D01*
X139047490Y-116883103D01*
X139261502Y-116722895D01*
X139276625Y-116713176D01*
X139511260Y-116585055D01*
X139527607Y-116577589D01*
X139738532Y-116498918D01*
X139809349Y-116493854D01*
X139871661Y-116527879D01*
G37*
G04 #@! TD.AperFunction*
G04 #@! TD*
G04 #@! TA.AperFunction,Conductor*
G04 #@! TO.N,VBUS*
G36*
X137675692Y-96500270D02*
G01*
X137924383Y-96516570D01*
X137940723Y-96518721D01*
X138181111Y-96566537D01*
X138197032Y-96570803D01*
X138429121Y-96649587D01*
X138444347Y-96655894D01*
X138664165Y-96764296D01*
X138678439Y-96772537D01*
X138882226Y-96908703D01*
X138895302Y-96918736D01*
X139012353Y-97021387D01*
X139035965Y-97053474D01*
X139036749Y-97052935D01*
X139043340Y-97062526D01*
X139048061Y-97073153D01*
X139127287Y-97152241D01*
X139150505Y-97162506D01*
X139188650Y-97188650D01*
X140411286Y-98411286D01*
X140416923Y-98417303D01*
X140581264Y-98604698D01*
X140591297Y-98617774D01*
X140727463Y-98821561D01*
X140735704Y-98835835D01*
X140844106Y-99055653D01*
X140850413Y-99070879D01*
X140929197Y-99302968D01*
X140933463Y-99318889D01*
X140981279Y-99559277D01*
X140983430Y-99575617D01*
X140999730Y-99824308D01*
X141000000Y-99832549D01*
X141000000Y-101234496D01*
X140979998Y-101302617D01*
X140926342Y-101349110D01*
X140856068Y-101359214D01*
X140834333Y-101354089D01*
X140761293Y-101329863D01*
X140747914Y-101326995D01*
X140653562Y-101317328D01*
X140647145Y-101317000D01*
X140422115Y-101317000D01*
X140406876Y-101321475D01*
X140405671Y-101322865D01*
X140404000Y-101330548D01*
X140404000Y-103664884D01*
X140408475Y-103680123D01*
X140409865Y-103681328D01*
X140417548Y-103682999D01*
X140647095Y-103682999D01*
X140653614Y-103682662D01*
X140749206Y-103672743D01*
X140762600Y-103669851D01*
X140834124Y-103645989D01*
X140905074Y-103643405D01*
X140966158Y-103679589D01*
X140997982Y-103743053D01*
X141000000Y-103765513D01*
X141000000Y-103923500D01*
X140979998Y-103991621D01*
X140926342Y-104038114D01*
X140874000Y-104049500D01*
X139705354Y-104049500D01*
X139701650Y-104049941D01*
X139701647Y-104049941D01*
X139694254Y-104050821D01*
X139679154Y-104052618D01*
X139576847Y-104098061D01*
X139568627Y-104106295D01*
X139559040Y-104112884D01*
X139556614Y-104109354D01*
X139514089Y-104132630D01*
X139443268Y-104127637D01*
X139386355Y-104085102D01*
X139318285Y-103994276D01*
X139305724Y-103981715D01*
X139203649Y-103905214D01*
X139188054Y-103896676D01*
X139067606Y-103851522D01*
X139052351Y-103847895D01*
X139001486Y-103842369D01*
X138994672Y-103842000D01*
X138472115Y-103842000D01*
X138456876Y-103846475D01*
X138455671Y-103847865D01*
X138454000Y-103855548D01*
X138454000Y-105478000D01*
X138433998Y-105546121D01*
X138380342Y-105592614D01*
X138328000Y-105604000D01*
X136960116Y-105604000D01*
X136944877Y-105608475D01*
X136943672Y-105609865D01*
X136942001Y-105617548D01*
X136942001Y-106373500D01*
X136921999Y-106441621D01*
X136868343Y-106488114D01*
X136816001Y-106499500D01*
X135326500Y-106499500D01*
X135258379Y-106479498D01*
X135211886Y-106425842D01*
X135200500Y-106373500D01*
X135200500Y-105905354D01*
X135197382Y-105879154D01*
X135151939Y-105776847D01*
X135072713Y-105697759D01*
X135062076Y-105693056D01*
X135062074Y-105693055D01*
X135002538Y-105666735D01*
X134970327Y-105652494D01*
X134944646Y-105649500D01*
X133055354Y-105649500D01*
X133051650Y-105649941D01*
X133051647Y-105649941D01*
X133044254Y-105650821D01*
X133029154Y-105652618D01*
X132926847Y-105698061D01*
X132847759Y-105777287D01*
X132843056Y-105787924D01*
X132843055Y-105787926D01*
X132816735Y-105847462D01*
X132802494Y-105879673D01*
X132799500Y-105905354D01*
X132799500Y-107500000D01*
X131750000Y-107500000D01*
X131750000Y-109745499D01*
X131749679Y-109754487D01*
X131730286Y-110025645D01*
X131727728Y-110043433D01*
X131694123Y-110197914D01*
X131670903Y-110304654D01*
X131665840Y-110321900D01*
X131572411Y-110572393D01*
X131564945Y-110588740D01*
X131436824Y-110823375D01*
X131427105Y-110838498D01*
X131266897Y-111052510D01*
X131255124Y-111066096D01*
X131066096Y-111255124D01*
X131052510Y-111266897D01*
X130838498Y-111427105D01*
X130823375Y-111436824D01*
X130588740Y-111564945D01*
X130572393Y-111572411D01*
X130327573Y-111663724D01*
X130283541Y-111671668D01*
X126966459Y-111671668D01*
X126922427Y-111663724D01*
X126677607Y-111572411D01*
X126661260Y-111564945D01*
X126426625Y-111436824D01*
X126411502Y-111427105D01*
X126197490Y-111266897D01*
X126183904Y-111255124D01*
X125994876Y-111066096D01*
X125983103Y-111052510D01*
X125822895Y-110838498D01*
X125813176Y-110823375D01*
X125685055Y-110588740D01*
X125677589Y-110572393D01*
X125584160Y-110321900D01*
X125579097Y-110304654D01*
X125555877Y-110197914D01*
X125533945Y-110097095D01*
X126442001Y-110097095D01*
X126442338Y-110103614D01*
X126452257Y-110199206D01*
X126455149Y-110212600D01*
X126506588Y-110366784D01*
X126512761Y-110379962D01*
X126598063Y-110517807D01*
X126607099Y-110529208D01*
X126721829Y-110643739D01*
X126733240Y-110652751D01*
X126871243Y-110737816D01*
X126884424Y-110743963D01*
X127038710Y-110795138D01*
X127052086Y-110798005D01*
X127146438Y-110807672D01*
X127152854Y-110808000D01*
X128427885Y-110808000D01*
X128443124Y-110803525D01*
X128444329Y-110802135D01*
X128446000Y-110794452D01*
X128446000Y-110789884D01*
X128954000Y-110789884D01*
X128958475Y-110805123D01*
X128959865Y-110806328D01*
X128967548Y-110807999D01*
X130247095Y-110807999D01*
X130253614Y-110807662D01*
X130349206Y-110797743D01*
X130362600Y-110794851D01*
X130516784Y-110743412D01*
X130529962Y-110737239D01*
X130667807Y-110651937D01*
X130679208Y-110642901D01*
X130793739Y-110528171D01*
X130802751Y-110516760D01*
X130887816Y-110378757D01*
X130893963Y-110365576D01*
X130945138Y-110211290D01*
X130948005Y-110197914D01*
X130957672Y-110103562D01*
X130958000Y-110097146D01*
X130958000Y-109772115D01*
X130953525Y-109756876D01*
X130952135Y-109755671D01*
X130944452Y-109754000D01*
X128972115Y-109754000D01*
X128956876Y-109758475D01*
X128955671Y-109759865D01*
X128954000Y-109767548D01*
X128954000Y-110789884D01*
X128446000Y-110789884D01*
X128446000Y-109772115D01*
X128441525Y-109756876D01*
X128440135Y-109755671D01*
X128432452Y-109754000D01*
X126460116Y-109754000D01*
X126444877Y-109758475D01*
X126443672Y-109759865D01*
X126442001Y-109767548D01*
X126442001Y-110097095D01*
X125533945Y-110097095D01*
X125522272Y-110043433D01*
X125519714Y-110025645D01*
X125500321Y-109754487D01*
X125500000Y-109745499D01*
X125500000Y-109227885D01*
X126442000Y-109227885D01*
X126446475Y-109243124D01*
X126447865Y-109244329D01*
X126455548Y-109246000D01*
X128427885Y-109246000D01*
X128443124Y-109241525D01*
X128444329Y-109240135D01*
X128446000Y-109232452D01*
X128446000Y-109227885D01*
X128954000Y-109227885D01*
X128958475Y-109243124D01*
X128959865Y-109244329D01*
X128967548Y-109246000D01*
X130939884Y-109246000D01*
X130955123Y-109241525D01*
X130956328Y-109240135D01*
X130957999Y-109232452D01*
X130957999Y-108902905D01*
X130957662Y-108896386D01*
X130947743Y-108800794D01*
X130944851Y-108787400D01*
X130893412Y-108633216D01*
X130887239Y-108620038D01*
X130801937Y-108482193D01*
X130792901Y-108470792D01*
X130678171Y-108356261D01*
X130666760Y-108347249D01*
X130528757Y-108262184D01*
X130515576Y-108256037D01*
X130361290Y-108204862D01*
X130347914Y-108201995D01*
X130253562Y-108192328D01*
X130247145Y-108192000D01*
X128972115Y-108192000D01*
X128956876Y-108196475D01*
X128955671Y-108197865D01*
X128954000Y-108205548D01*
X128954000Y-109227885D01*
X128446000Y-109227885D01*
X128446000Y-108210116D01*
X128441525Y-108194877D01*
X128440135Y-108193672D01*
X128432452Y-108192001D01*
X127152905Y-108192001D01*
X127146386Y-108192338D01*
X127050794Y-108202257D01*
X127037400Y-108205149D01*
X126883216Y-108256588D01*
X126870038Y-108262761D01*
X126732193Y-108348063D01*
X126720792Y-108357099D01*
X126606261Y-108471829D01*
X126597249Y-108483240D01*
X126512184Y-108621243D01*
X126506037Y-108634424D01*
X126454862Y-108788710D01*
X126451995Y-108802086D01*
X126442328Y-108896438D01*
X126442000Y-108902855D01*
X126442000Y-109227885D01*
X125500000Y-109227885D01*
X125500000Y-107500000D01*
X121240838Y-107500000D01*
X121172717Y-107479998D01*
X121129176Y-107432376D01*
X121128032Y-107430187D01*
X121125345Y-107423077D01*
X121067818Y-107339375D01*
X121033614Y-107289608D01*
X121033613Y-107289607D01*
X121029312Y-107283349D01*
X121017514Y-107272837D01*
X120908392Y-107175612D01*
X120908388Y-107175610D01*
X120902721Y-107170560D01*
X120752881Y-107091224D01*
X120588441Y-107049919D01*
X120580843Y-107049879D01*
X120580841Y-107049879D01*
X120503668Y-107049475D01*
X120418895Y-107049031D01*
X120411508Y-107050805D01*
X120411504Y-107050805D01*
X120268162Y-107085220D01*
X120254032Y-107088612D01*
X120247288Y-107092093D01*
X120247285Y-107092094D01*
X120242089Y-107094776D01*
X120103369Y-107166375D01*
X120097647Y-107171367D01*
X120097645Y-107171368D01*
X120064754Y-107200061D01*
X119975604Y-107277831D01*
X119949520Y-107314945D01*
X119902731Y-107381519D01*
X119847197Y-107425750D01*
X119776565Y-107432936D01*
X119757895Y-107427950D01*
X119692620Y-107405027D01*
X119692617Y-107405026D01*
X119685369Y-107402481D01*
X119677723Y-107401758D01*
X119677722Y-107401758D01*
X119671752Y-107401194D01*
X119653834Y-107399500D01*
X119246166Y-107399500D01*
X119228248Y-107401194D01*
X119222278Y-107401758D01*
X119222277Y-107401758D01*
X119214631Y-107402481D01*
X119086816Y-107447366D01*
X119079246Y-107452958D01*
X119079243Y-107452959D01*
X119048928Y-107475351D01*
X118982250Y-107499734D01*
X118974068Y-107500000D01*
X118328348Y-107500000D01*
X118260227Y-107479998D01*
X118228789Y-107451227D01*
X118218446Y-107437893D01*
X118112104Y-107331551D01*
X118099678Y-107321911D01*
X117970221Y-107245352D01*
X117955790Y-107239107D01*
X117821395Y-107200061D01*
X117807294Y-107200101D01*
X117804000Y-107207370D01*
X117804000Y-107500000D01*
X117296000Y-107500000D01*
X117296000Y-107213122D01*
X117292027Y-107199591D01*
X117284129Y-107198456D01*
X117144210Y-107239107D01*
X117129779Y-107245352D01*
X117000322Y-107321911D01*
X116987896Y-107331551D01*
X116881554Y-107437893D01*
X116871211Y-107451227D01*
X116813655Y-107492793D01*
X116771652Y-107500000D01*
X111789870Y-107500000D01*
X111721749Y-107479998D01*
X111706060Y-107468084D01*
X111652721Y-107420560D01*
X111645645Y-107416813D01*
X111578985Y-107381519D01*
X111502881Y-107341224D01*
X111338441Y-107299919D01*
X111330843Y-107299879D01*
X111330841Y-107299879D01*
X111253668Y-107299475D01*
X111168895Y-107299031D01*
X111161508Y-107300805D01*
X111161504Y-107300805D01*
X111018162Y-107335220D01*
X111004032Y-107338612D01*
X110997288Y-107342093D01*
X110997285Y-107342094D01*
X110885523Y-107399779D01*
X110853369Y-107416375D01*
X110847647Y-107421367D01*
X110847645Y-107421368D01*
X110793102Y-107468949D01*
X110728620Y-107498657D01*
X110710273Y-107500000D01*
X110475932Y-107500000D01*
X110407811Y-107479998D01*
X110401072Y-107475351D01*
X110370757Y-107452959D01*
X110370754Y-107452958D01*
X110363184Y-107447366D01*
X110235369Y-107402481D01*
X110227723Y-107401758D01*
X110227722Y-107401758D01*
X110221752Y-107401194D01*
X110203834Y-107399500D01*
X109796166Y-107399500D01*
X109778248Y-107401194D01*
X109772278Y-107401758D01*
X109772277Y-107401758D01*
X109764631Y-107402481D01*
X109636816Y-107447366D01*
X109629246Y-107452958D01*
X109629243Y-107452959D01*
X109598928Y-107475351D01*
X109532250Y-107499734D01*
X109524068Y-107500000D01*
X108878348Y-107500000D01*
X108810227Y-107479998D01*
X108778789Y-107451227D01*
X108768446Y-107437893D01*
X108662104Y-107331551D01*
X108649678Y-107321911D01*
X108520221Y-107245352D01*
X108505790Y-107239107D01*
X108371395Y-107200061D01*
X108357294Y-107200101D01*
X108354000Y-107207370D01*
X108354000Y-107500000D01*
X107846000Y-107500000D01*
X107846000Y-107213122D01*
X107842027Y-107199591D01*
X107834129Y-107198456D01*
X107694210Y-107239107D01*
X107679779Y-107245352D01*
X107550322Y-107321911D01*
X107537896Y-107331551D01*
X107431554Y-107437893D01*
X107421211Y-107451227D01*
X107363655Y-107492793D01*
X107321652Y-107500000D01*
X102039870Y-107500000D01*
X101971749Y-107479998D01*
X101956060Y-107468084D01*
X101902721Y-107420560D01*
X101895645Y-107416813D01*
X101828985Y-107381519D01*
X101752881Y-107341224D01*
X101588441Y-107299919D01*
X101580843Y-107299879D01*
X101580841Y-107299879D01*
X101503668Y-107299475D01*
X101418895Y-107299031D01*
X101411508Y-107300805D01*
X101411504Y-107300805D01*
X101268162Y-107335220D01*
X101254032Y-107338612D01*
X101247288Y-107342093D01*
X101247285Y-107342094D01*
X101135523Y-107399779D01*
X101103369Y-107416375D01*
X101097647Y-107421367D01*
X101097645Y-107421368D01*
X101043102Y-107468949D01*
X100978620Y-107498657D01*
X100960273Y-107500000D01*
X100925932Y-107500000D01*
X100857811Y-107479998D01*
X100851072Y-107475351D01*
X100820757Y-107452959D01*
X100820754Y-107452958D01*
X100813184Y-107447366D01*
X100685369Y-107402481D01*
X100677723Y-107401758D01*
X100677722Y-107401758D01*
X100671752Y-107401194D01*
X100653834Y-107399500D01*
X100246166Y-107399500D01*
X100228248Y-107401194D01*
X100222278Y-107401758D01*
X100222277Y-107401758D01*
X100214631Y-107402481D01*
X100086816Y-107447366D01*
X100079246Y-107452958D01*
X100079243Y-107452959D01*
X100048928Y-107475351D01*
X99982250Y-107499734D01*
X99974068Y-107500000D01*
X99328348Y-107500000D01*
X99260227Y-107479998D01*
X99228789Y-107451227D01*
X99218446Y-107437893D01*
X99112104Y-107331551D01*
X99099678Y-107321911D01*
X98970221Y-107245352D01*
X98955790Y-107239107D01*
X98821395Y-107200061D01*
X98807294Y-107200101D01*
X98804000Y-107207370D01*
X98804000Y-107500000D01*
X98296000Y-107500000D01*
X98296000Y-107213122D01*
X98292027Y-107199591D01*
X98284129Y-107198456D01*
X98144210Y-107239107D01*
X98129779Y-107245352D01*
X98000322Y-107321911D01*
X97987896Y-107331551D01*
X97875945Y-107443502D01*
X97874415Y-107441972D01*
X97825898Y-107477013D01*
X97774904Y-107483901D01*
X97724350Y-107480285D01*
X97706567Y-107477728D01*
X97445342Y-107420902D01*
X97428100Y-107415840D01*
X97177607Y-107322411D01*
X97161260Y-107314945D01*
X96926625Y-107186824D01*
X96911502Y-107177105D01*
X96697490Y-107016897D01*
X96683904Y-107005124D01*
X96494876Y-106816096D01*
X96483103Y-106802510D01*
X96322895Y-106588498D01*
X96313176Y-106573375D01*
X96217214Y-106397634D01*
X96185054Y-106338738D01*
X96177589Y-106322393D01*
X96084160Y-106071900D01*
X96079097Y-106054654D01*
X96022272Y-105793433D01*
X96019714Y-105775645D01*
X96014732Y-105705977D01*
X96000321Y-105504487D01*
X96000000Y-105495499D01*
X96000000Y-105077885D01*
X136942000Y-105077885D01*
X136946475Y-105093124D01*
X136947865Y-105094329D01*
X136955548Y-105096000D01*
X137927885Y-105096000D01*
X137943124Y-105091525D01*
X137944329Y-105090135D01*
X137946000Y-105082452D01*
X137946000Y-103860116D01*
X137941525Y-103844877D01*
X137940135Y-103843672D01*
X137932452Y-103842001D01*
X137405331Y-103842001D01*
X137398510Y-103842371D01*
X137347648Y-103847895D01*
X137332396Y-103851521D01*
X137211946Y-103896676D01*
X137196351Y-103905214D01*
X137094276Y-103981715D01*
X137081715Y-103994276D01*
X137005214Y-104096351D01*
X136996676Y-104111946D01*
X136951522Y-104232394D01*
X136947895Y-104247649D01*
X136942369Y-104298514D01*
X136942000Y-104305328D01*
X136942000Y-105077885D01*
X96000000Y-105077885D01*
X96000000Y-103394646D01*
X100849500Y-103394646D01*
X100852618Y-103420846D01*
X100898061Y-103523153D01*
X100906294Y-103531372D01*
X100906295Y-103531373D01*
X100932363Y-103557395D01*
X100977287Y-103602241D01*
X100987924Y-103606944D01*
X100987926Y-103606945D01*
X101025382Y-103623504D01*
X101079673Y-103647506D01*
X101105354Y-103650500D01*
X102894646Y-103650500D01*
X102898350Y-103650059D01*
X102898353Y-103650059D01*
X102905746Y-103649179D01*
X102920846Y-103647382D01*
X102984827Y-103618963D01*
X103012518Y-103606663D01*
X103023153Y-103601939D01*
X103102241Y-103522713D01*
X103147506Y-103420327D01*
X103150500Y-103394646D01*
X103150500Y-103278493D01*
X103170502Y-103210372D01*
X103224158Y-103163879D01*
X103294432Y-103153775D01*
X103359012Y-103183269D01*
X103383933Y-103212658D01*
X103437694Y-103300388D01*
X103443777Y-103308699D01*
X103583213Y-103469667D01*
X103590580Y-103476883D01*
X103754434Y-103612916D01*
X103762881Y-103618831D01*
X103946756Y-103726279D01*
X103956042Y-103730729D01*
X104155001Y-103806703D01*
X104164899Y-103809579D01*
X104268250Y-103830606D01*
X104282299Y-103829410D01*
X104286000Y-103819065D01*
X104286000Y-103818517D01*
X104794000Y-103818517D01*
X104798064Y-103832359D01*
X104811478Y-103834393D01*
X104818184Y-103833534D01*
X104828262Y-103831392D01*
X105032255Y-103770191D01*
X105041842Y-103766433D01*
X105233095Y-103672739D01*
X105241945Y-103667464D01*
X105415328Y-103543792D01*
X105423200Y-103537139D01*
X105574052Y-103386812D01*
X105580730Y-103378965D01*
X105705003Y-103206020D01*
X105710313Y-103197183D01*
X105804670Y-103006267D01*
X105808019Y-102997809D01*
X105851693Y-102941836D01*
X105918696Y-102918359D01*
X105987755Y-102934835D01*
X106039597Y-102991442D01*
X106076951Y-103072469D01*
X106079369Y-103077714D01*
X106201405Y-103250391D01*
X106252728Y-103300388D01*
X106345727Y-103390983D01*
X106352865Y-103397937D01*
X106357661Y-103401142D01*
X106357664Y-103401144D01*
X106460216Y-103469667D01*
X106528677Y-103515411D01*
X106533985Y-103517692D01*
X106533986Y-103517692D01*
X106717650Y-103596600D01*
X106717653Y-103596601D01*
X106722953Y-103598878D01*
X106728582Y-103600152D01*
X106728583Y-103600152D01*
X106923550Y-103644269D01*
X106923553Y-103644269D01*
X106929186Y-103645544D01*
X106934957Y-103645771D01*
X106934959Y-103645771D01*
X106996989Y-103648208D01*
X107140470Y-103653846D01*
X107146179Y-103653018D01*
X107146183Y-103653018D01*
X107344015Y-103624333D01*
X107344019Y-103624332D01*
X107349730Y-103623504D01*
X107436579Y-103594023D01*
X107544483Y-103557395D01*
X107544488Y-103557393D01*
X107549955Y-103555537D01*
X107554998Y-103552713D01*
X107729395Y-103455046D01*
X107729399Y-103455043D01*
X107734442Y-103452219D01*
X107803667Y-103394646D01*
X110849500Y-103394646D01*
X110852618Y-103420846D01*
X110898061Y-103523153D01*
X110906294Y-103531372D01*
X110906295Y-103531373D01*
X110932363Y-103557395D01*
X110977287Y-103602241D01*
X110987924Y-103606944D01*
X110987926Y-103606945D01*
X111025382Y-103623504D01*
X111079673Y-103647506D01*
X111105354Y-103650500D01*
X112894646Y-103650500D01*
X112898350Y-103650059D01*
X112898353Y-103650059D01*
X112905746Y-103649179D01*
X112920846Y-103647382D01*
X112984827Y-103618963D01*
X113012518Y-103606663D01*
X113023153Y-103601939D01*
X113102241Y-103522713D01*
X113147506Y-103420327D01*
X113150500Y-103394646D01*
X113150500Y-103278493D01*
X113170502Y-103210372D01*
X113224158Y-103163879D01*
X113294432Y-103153775D01*
X113359012Y-103183269D01*
X113383933Y-103212658D01*
X113437694Y-103300388D01*
X113443777Y-103308699D01*
X113583213Y-103469667D01*
X113590580Y-103476883D01*
X113754434Y-103612916D01*
X113762881Y-103618831D01*
X113946756Y-103726279D01*
X113956042Y-103730729D01*
X114155001Y-103806703D01*
X114164899Y-103809579D01*
X114268250Y-103830606D01*
X114282299Y-103829410D01*
X114286000Y-103819065D01*
X114286000Y-103818517D01*
X114794000Y-103818517D01*
X114798064Y-103832359D01*
X114811478Y-103834393D01*
X114818184Y-103833534D01*
X114828262Y-103831392D01*
X115032255Y-103770191D01*
X115041842Y-103766433D01*
X115233095Y-103672739D01*
X115241945Y-103667464D01*
X115415328Y-103543792D01*
X115423200Y-103537139D01*
X115574052Y-103386812D01*
X115580730Y-103378965D01*
X115705003Y-103206020D01*
X115710313Y-103197183D01*
X115804670Y-103006267D01*
X115808019Y-102997809D01*
X115851693Y-102941836D01*
X115918696Y-102918359D01*
X115987755Y-102934835D01*
X116039597Y-102991442D01*
X116076951Y-103072469D01*
X116079369Y-103077714D01*
X116201405Y-103250391D01*
X116252728Y-103300388D01*
X116345727Y-103390983D01*
X116352865Y-103397937D01*
X116357661Y-103401142D01*
X116357664Y-103401144D01*
X116460216Y-103469667D01*
X116528677Y-103515411D01*
X116533985Y-103517692D01*
X116533986Y-103517692D01*
X116717650Y-103596600D01*
X116717653Y-103596601D01*
X116722953Y-103598878D01*
X116728582Y-103600152D01*
X116728583Y-103600152D01*
X116923550Y-103644269D01*
X116923553Y-103644269D01*
X116929186Y-103645544D01*
X116934957Y-103645771D01*
X116934959Y-103645771D01*
X116996989Y-103648208D01*
X117140470Y-103653846D01*
X117146179Y-103653018D01*
X117146183Y-103653018D01*
X117344015Y-103624333D01*
X117344019Y-103624332D01*
X117349730Y-103623504D01*
X117436579Y-103594023D01*
X117544483Y-103557395D01*
X117544488Y-103557393D01*
X117549955Y-103555537D01*
X117554998Y-103552713D01*
X117729395Y-103455046D01*
X117729399Y-103455043D01*
X117734442Y-103452219D01*
X117803667Y-103394646D01*
X120849500Y-103394646D01*
X120852618Y-103420846D01*
X120898061Y-103523153D01*
X120906294Y-103531372D01*
X120906295Y-103531373D01*
X120932363Y-103557395D01*
X120977287Y-103602241D01*
X120987924Y-103606944D01*
X120987926Y-103606945D01*
X121025382Y-103623504D01*
X121079673Y-103647506D01*
X121105354Y-103650500D01*
X122894646Y-103650500D01*
X122898350Y-103650059D01*
X122898353Y-103650059D01*
X122905746Y-103649179D01*
X122920846Y-103647382D01*
X122984827Y-103618963D01*
X123012518Y-103606663D01*
X123023153Y-103601939D01*
X123102241Y-103522713D01*
X123147506Y-103420327D01*
X123150500Y-103394646D01*
X123150500Y-103278493D01*
X123170502Y-103210372D01*
X123224158Y-103163879D01*
X123294432Y-103153775D01*
X123359012Y-103183269D01*
X123383933Y-103212658D01*
X123437694Y-103300388D01*
X123443777Y-103308699D01*
X123583213Y-103469667D01*
X123590580Y-103476883D01*
X123754434Y-103612916D01*
X123762881Y-103618831D01*
X123946756Y-103726279D01*
X123956042Y-103730729D01*
X124155001Y-103806703D01*
X124164899Y-103809579D01*
X124268250Y-103830606D01*
X124282299Y-103829410D01*
X124286000Y-103819065D01*
X124286000Y-103818517D01*
X124794000Y-103818517D01*
X124798064Y-103832359D01*
X124811478Y-103834393D01*
X124818184Y-103833534D01*
X124828262Y-103831392D01*
X125032255Y-103770191D01*
X125041842Y-103766433D01*
X125233095Y-103672739D01*
X125241945Y-103667464D01*
X125415328Y-103543792D01*
X125423200Y-103537139D01*
X125574052Y-103386812D01*
X125580730Y-103378965D01*
X125705003Y-103206020D01*
X125710313Y-103197183D01*
X125804670Y-103006267D01*
X125808019Y-102997809D01*
X125851693Y-102941836D01*
X125918696Y-102918359D01*
X125987755Y-102934835D01*
X126039597Y-102991442D01*
X126076951Y-103072469D01*
X126079369Y-103077714D01*
X126201405Y-103250391D01*
X126252728Y-103300388D01*
X126345727Y-103390983D01*
X126352865Y-103397937D01*
X126357661Y-103401142D01*
X126357664Y-103401144D01*
X126460216Y-103469667D01*
X126528677Y-103515411D01*
X126533985Y-103517692D01*
X126533986Y-103517692D01*
X126717650Y-103596600D01*
X126717653Y-103596601D01*
X126722953Y-103598878D01*
X126728582Y-103600152D01*
X126728583Y-103600152D01*
X126923550Y-103644269D01*
X126923553Y-103644269D01*
X126929186Y-103645544D01*
X126934957Y-103645771D01*
X126934959Y-103645771D01*
X126996989Y-103648208D01*
X127140470Y-103653846D01*
X127146179Y-103653018D01*
X127146183Y-103653018D01*
X127344015Y-103624333D01*
X127344019Y-103624332D01*
X127349730Y-103623504D01*
X127436579Y-103594023D01*
X127544483Y-103557395D01*
X127544488Y-103557393D01*
X127549955Y-103555537D01*
X127554998Y-103552713D01*
X127729395Y-103455046D01*
X127729399Y-103455043D01*
X127734442Y-103452219D01*
X127897012Y-103317012D01*
X128032219Y-103154442D01*
X128035043Y-103149399D01*
X128035046Y-103149395D01*
X128132713Y-102974998D01*
X128132714Y-102974996D01*
X128134339Y-102972095D01*
X138942001Y-102972095D01*
X138942338Y-102978614D01*
X138952257Y-103074206D01*
X138955149Y-103087600D01*
X139006588Y-103241784D01*
X139012761Y-103254962D01*
X139098063Y-103392807D01*
X139107099Y-103404208D01*
X139221829Y-103518739D01*
X139233240Y-103527751D01*
X139371243Y-103612816D01*
X139384424Y-103618963D01*
X139538710Y-103670138D01*
X139552086Y-103673005D01*
X139646438Y-103682672D01*
X139652854Y-103683000D01*
X139877885Y-103683000D01*
X139893124Y-103678525D01*
X139894329Y-103677135D01*
X139896000Y-103669452D01*
X139896000Y-102772115D01*
X139891525Y-102756876D01*
X139890135Y-102755671D01*
X139882452Y-102754000D01*
X138960116Y-102754000D01*
X138944877Y-102758475D01*
X138943672Y-102759865D01*
X138942001Y-102767548D01*
X138942001Y-102972095D01*
X128134339Y-102972095D01*
X128135537Y-102969955D01*
X128137393Y-102964488D01*
X128137395Y-102964483D01*
X128201647Y-102775200D01*
X128203504Y-102769730D01*
X128204935Y-102759865D01*
X128233314Y-102564140D01*
X128233314Y-102564138D01*
X128233846Y-102560470D01*
X128235429Y-102500000D01*
X128216081Y-102289440D01*
X128203359Y-102244329D01*
X128198721Y-102227885D01*
X138942000Y-102227885D01*
X138946475Y-102243124D01*
X138947865Y-102244329D01*
X138955548Y-102246000D01*
X139877885Y-102246000D01*
X139893124Y-102241525D01*
X139894329Y-102240135D01*
X139896000Y-102232452D01*
X139896000Y-101335116D01*
X139891525Y-101319877D01*
X139890135Y-101318672D01*
X139882452Y-101317001D01*
X139652905Y-101317001D01*
X139646386Y-101317338D01*
X139550794Y-101327257D01*
X139537400Y-101330149D01*
X139383216Y-101381588D01*
X139370038Y-101387761D01*
X139232193Y-101473063D01*
X139220792Y-101482099D01*
X139106261Y-101596829D01*
X139097249Y-101608240D01*
X139012184Y-101746243D01*
X139006037Y-101759424D01*
X138954862Y-101913710D01*
X138951995Y-101927086D01*
X138942328Y-102021438D01*
X138942000Y-102027855D01*
X138942000Y-102227885D01*
X128198721Y-102227885D01*
X128160255Y-102091496D01*
X128158686Y-102085931D01*
X128149692Y-102067692D01*
X128067719Y-101901469D01*
X128065165Y-101896290D01*
X127938651Y-101726867D01*
X127811236Y-101609086D01*
X127787622Y-101587257D01*
X127787620Y-101587255D01*
X127783381Y-101583337D01*
X127651641Y-101500215D01*
X127609434Y-101473584D01*
X127609433Y-101473584D01*
X127604554Y-101470505D01*
X127408160Y-101392152D01*
X127402503Y-101391027D01*
X127402497Y-101391025D01*
X127206442Y-101352028D01*
X127206440Y-101352028D01*
X127200775Y-101350901D01*
X127195000Y-101350825D01*
X127194996Y-101350825D01*
X127088976Y-101349437D01*
X126989346Y-101348133D01*
X126983649Y-101349112D01*
X126983648Y-101349112D01*
X126786650Y-101382962D01*
X126786649Y-101382962D01*
X126780953Y-101383941D01*
X126582575Y-101457127D01*
X126577614Y-101460079D01*
X126577613Y-101460079D01*
X126531553Y-101487482D01*
X126400856Y-101565238D01*
X126241881Y-101704655D01*
X126110976Y-101870708D01*
X126108287Y-101875819D01*
X126108285Y-101875822D01*
X126034155Y-102016720D01*
X125984736Y-102067692D01*
X125915603Y-102083855D01*
X125848707Y-102060076D01*
X125807097Y-102008294D01*
X125742971Y-101860814D01*
X125738105Y-101851739D01*
X125622426Y-101672926D01*
X125616136Y-101664757D01*
X125472806Y-101507240D01*
X125465273Y-101500215D01*
X125298139Y-101368222D01*
X125289552Y-101362517D01*
X125103117Y-101259599D01*
X125093705Y-101255369D01*
X124892959Y-101184280D01*
X124882988Y-101181646D01*
X124811837Y-101168972D01*
X124798540Y-101170432D01*
X124794000Y-101184989D01*
X124794000Y-103818517D01*
X124286000Y-103818517D01*
X124286000Y-101183102D01*
X124282082Y-101169758D01*
X124267806Y-101167771D01*
X124229324Y-101173660D01*
X124219288Y-101176051D01*
X124016868Y-101242212D01*
X124007359Y-101246209D01*
X123818463Y-101344542D01*
X123809738Y-101350036D01*
X123639433Y-101477905D01*
X123631726Y-101484748D01*
X123484590Y-101638717D01*
X123478104Y-101646727D01*
X123380588Y-101789680D01*
X123325677Y-101834683D01*
X123255152Y-101842854D01*
X123191405Y-101811600D01*
X123154675Y-101750843D01*
X123150500Y-101718676D01*
X123150500Y-101605354D01*
X123149486Y-101596829D01*
X123148499Y-101588541D01*
X123147382Y-101579154D01*
X123101939Y-101476847D01*
X123093444Y-101468366D01*
X123030945Y-101405977D01*
X123022713Y-101397759D01*
X123012076Y-101393056D01*
X123012074Y-101393055D01*
X122935527Y-101359214D01*
X122920327Y-101352494D01*
X122894646Y-101349500D01*
X121105354Y-101349500D01*
X121101650Y-101349941D01*
X121101647Y-101349941D01*
X121094254Y-101350821D01*
X121079154Y-101352618D01*
X121070514Y-101356456D01*
X121070513Y-101356456D01*
X120992687Y-101391025D01*
X120976847Y-101398061D01*
X120897759Y-101477287D01*
X120893056Y-101487924D01*
X120893055Y-101487926D01*
X120866735Y-101547462D01*
X120852494Y-101579673D01*
X120849500Y-101605354D01*
X120849500Y-103394646D01*
X117803667Y-103394646D01*
X117897012Y-103317012D01*
X118032219Y-103154442D01*
X118035043Y-103149399D01*
X118035046Y-103149395D01*
X118132713Y-102974998D01*
X118132714Y-102974996D01*
X118135537Y-102969955D01*
X118137393Y-102964488D01*
X118137395Y-102964483D01*
X118201647Y-102775200D01*
X118203504Y-102769730D01*
X118204935Y-102759865D01*
X118233314Y-102564140D01*
X118233314Y-102564138D01*
X118233846Y-102560470D01*
X118235429Y-102500000D01*
X118216081Y-102289440D01*
X118203359Y-102244329D01*
X118160255Y-102091496D01*
X118158686Y-102085931D01*
X118149692Y-102067692D01*
X118067719Y-101901469D01*
X118065165Y-101896290D01*
X117938651Y-101726867D01*
X117811236Y-101609086D01*
X117787622Y-101587257D01*
X117787620Y-101587255D01*
X117783381Y-101583337D01*
X117651641Y-101500215D01*
X117609434Y-101473584D01*
X117609433Y-101473584D01*
X117604554Y-101470505D01*
X117408160Y-101392152D01*
X117402503Y-101391027D01*
X117402497Y-101391025D01*
X117206442Y-101352028D01*
X117206440Y-101352028D01*
X117200775Y-101350901D01*
X117195000Y-101350825D01*
X117194996Y-101350825D01*
X117088976Y-101349437D01*
X116989346Y-101348133D01*
X116983649Y-101349112D01*
X116983648Y-101349112D01*
X116786650Y-101382962D01*
X116786649Y-101382962D01*
X116780953Y-101383941D01*
X116582575Y-101457127D01*
X116577614Y-101460079D01*
X116577613Y-101460079D01*
X116531553Y-101487482D01*
X116400856Y-101565238D01*
X116241881Y-101704655D01*
X116110976Y-101870708D01*
X116108287Y-101875819D01*
X116108285Y-101875822D01*
X116034155Y-102016720D01*
X115984736Y-102067692D01*
X115915603Y-102083855D01*
X115848707Y-102060076D01*
X115807097Y-102008294D01*
X115742971Y-101860814D01*
X115738105Y-101851739D01*
X115622426Y-101672926D01*
X115616136Y-101664757D01*
X115472806Y-101507240D01*
X115465273Y-101500215D01*
X115298139Y-101368222D01*
X115289552Y-101362517D01*
X115103117Y-101259599D01*
X115093705Y-101255369D01*
X114892959Y-101184280D01*
X114882988Y-101181646D01*
X114811837Y-101168972D01*
X114798540Y-101170432D01*
X114794000Y-101184989D01*
X114794000Y-103818517D01*
X114286000Y-103818517D01*
X114286000Y-101183102D01*
X114282082Y-101169758D01*
X114267806Y-101167771D01*
X114229324Y-101173660D01*
X114219288Y-101176051D01*
X114016868Y-101242212D01*
X114007359Y-101246209D01*
X113818463Y-101344542D01*
X113809738Y-101350036D01*
X113639433Y-101477905D01*
X113631726Y-101484748D01*
X113484590Y-101638717D01*
X113478104Y-101646727D01*
X113380588Y-101789680D01*
X113325677Y-101834683D01*
X113255152Y-101842854D01*
X113191405Y-101811600D01*
X113154675Y-101750843D01*
X113150500Y-101718676D01*
X113150500Y-101605354D01*
X113149486Y-101596829D01*
X113148499Y-101588541D01*
X113147382Y-101579154D01*
X113101939Y-101476847D01*
X113093444Y-101468366D01*
X113030945Y-101405977D01*
X113022713Y-101397759D01*
X113012076Y-101393056D01*
X113012074Y-101393055D01*
X112935527Y-101359214D01*
X112920327Y-101352494D01*
X112894646Y-101349500D01*
X111105354Y-101349500D01*
X111101650Y-101349941D01*
X111101647Y-101349941D01*
X111094254Y-101350821D01*
X111079154Y-101352618D01*
X111070514Y-101356456D01*
X111070513Y-101356456D01*
X110992687Y-101391025D01*
X110976847Y-101398061D01*
X110897759Y-101477287D01*
X110893056Y-101487924D01*
X110893055Y-101487926D01*
X110866735Y-101547462D01*
X110852494Y-101579673D01*
X110849500Y-101605354D01*
X110849500Y-103394646D01*
X107803667Y-103394646D01*
X107897012Y-103317012D01*
X108032219Y-103154442D01*
X108035043Y-103149399D01*
X108035046Y-103149395D01*
X108132713Y-102974998D01*
X108132714Y-102974996D01*
X108135537Y-102969955D01*
X108137393Y-102964488D01*
X108137395Y-102964483D01*
X108201647Y-102775200D01*
X108203504Y-102769730D01*
X108204935Y-102759865D01*
X108233314Y-102564140D01*
X108233314Y-102564138D01*
X108233846Y-102560470D01*
X108235429Y-102500000D01*
X108216081Y-102289440D01*
X108203359Y-102244329D01*
X108160255Y-102091496D01*
X108158686Y-102085931D01*
X108149692Y-102067692D01*
X108067719Y-101901469D01*
X108065165Y-101896290D01*
X107938651Y-101726867D01*
X107811236Y-101609086D01*
X107787622Y-101587257D01*
X107787620Y-101587255D01*
X107783381Y-101583337D01*
X107651641Y-101500215D01*
X107609434Y-101473584D01*
X107609433Y-101473584D01*
X107604554Y-101470505D01*
X107408160Y-101392152D01*
X107402503Y-101391027D01*
X107402497Y-101391025D01*
X107206442Y-101352028D01*
X107206440Y-101352028D01*
X107200775Y-101350901D01*
X107195000Y-101350825D01*
X107194996Y-101350825D01*
X107088976Y-101349437D01*
X106989346Y-101348133D01*
X106983649Y-101349112D01*
X106983648Y-101349112D01*
X106786650Y-101382962D01*
X106786649Y-101382962D01*
X106780953Y-101383941D01*
X106582575Y-101457127D01*
X106577614Y-101460079D01*
X106577613Y-101460079D01*
X106531553Y-101487482D01*
X106400856Y-101565238D01*
X106241881Y-101704655D01*
X106110976Y-101870708D01*
X106108287Y-101875819D01*
X106108285Y-101875822D01*
X106034155Y-102016720D01*
X105984736Y-102067692D01*
X105915603Y-102083855D01*
X105848707Y-102060076D01*
X105807097Y-102008294D01*
X105742971Y-101860814D01*
X105738105Y-101851739D01*
X105622426Y-101672926D01*
X105616136Y-101664757D01*
X105472806Y-101507240D01*
X105465273Y-101500215D01*
X105298139Y-101368222D01*
X105289552Y-101362517D01*
X105103117Y-101259599D01*
X105093705Y-101255369D01*
X104892959Y-101184280D01*
X104882988Y-101181646D01*
X104811837Y-101168972D01*
X104798540Y-101170432D01*
X104794000Y-101184989D01*
X104794000Y-103818517D01*
X104286000Y-103818517D01*
X104286000Y-101183102D01*
X104282082Y-101169758D01*
X104267806Y-101167771D01*
X104229324Y-101173660D01*
X104219288Y-101176051D01*
X104016868Y-101242212D01*
X104007359Y-101246209D01*
X103818463Y-101344542D01*
X103809738Y-101350036D01*
X103639433Y-101477905D01*
X103631726Y-101484748D01*
X103484590Y-101638717D01*
X103478104Y-101646727D01*
X103380588Y-101789680D01*
X103325677Y-101834683D01*
X103255152Y-101842854D01*
X103191405Y-101811600D01*
X103154675Y-101750843D01*
X103150500Y-101718676D01*
X103150500Y-101605354D01*
X103149486Y-101596829D01*
X103148499Y-101588541D01*
X103147382Y-101579154D01*
X103101939Y-101476847D01*
X103093444Y-101468366D01*
X103030945Y-101405977D01*
X103022713Y-101397759D01*
X103012076Y-101393056D01*
X103012074Y-101393055D01*
X102935527Y-101359214D01*
X102920327Y-101352494D01*
X102894646Y-101349500D01*
X101105354Y-101349500D01*
X101101650Y-101349941D01*
X101101647Y-101349941D01*
X101094254Y-101350821D01*
X101079154Y-101352618D01*
X101070514Y-101356456D01*
X101070513Y-101356456D01*
X100992687Y-101391025D01*
X100976847Y-101398061D01*
X100897759Y-101477287D01*
X100893056Y-101487924D01*
X100893055Y-101487926D01*
X100866735Y-101547462D01*
X100852494Y-101579673D01*
X100849500Y-101605354D01*
X100849500Y-103394646D01*
X96000000Y-103394646D01*
X96000000Y-102004501D01*
X96000321Y-101995513D01*
X96005215Y-101927086D01*
X96019715Y-101724350D01*
X96022272Y-101706567D01*
X96079098Y-101445342D01*
X96084161Y-101428097D01*
X96092293Y-101406295D01*
X96177589Y-101177607D01*
X96185055Y-101161260D01*
X96313176Y-100926625D01*
X96322895Y-100911502D01*
X96483103Y-100697490D01*
X96494876Y-100683904D01*
X96683904Y-100494876D01*
X96697490Y-100483103D01*
X96907846Y-100325632D01*
X96974366Y-100300821D01*
X96983355Y-100300500D01*
X135547626Y-100300500D01*
X135559183Y-100301065D01*
X135570168Y-100304246D01*
X135607994Y-100300970D01*
X135618866Y-100300500D01*
X135627948Y-100300500D01*
X135633649Y-100299438D01*
X135633651Y-100299438D01*
X135634521Y-100299276D01*
X135646720Y-100297616D01*
X135670105Y-100295591D01*
X135670106Y-100295591D01*
X135681696Y-100294587D01*
X135692145Y-100289480D01*
X135695433Y-100288568D01*
X135698617Y-100287339D01*
X135710053Y-100285209D01*
X135739952Y-100266779D01*
X135750734Y-100260840D01*
X135771819Y-100250533D01*
X135782269Y-100245425D01*
X135790178Y-100236899D01*
X135792916Y-100234866D01*
X135795446Y-100232572D01*
X135805348Y-100226468D01*
X135812387Y-100217212D01*
X135812392Y-100217207D01*
X135826607Y-100198513D01*
X135834526Y-100189092D01*
X135850490Y-100171882D01*
X135858401Y-100163354D01*
X135862710Y-100152553D01*
X135864529Y-100149676D01*
X135866066Y-100146619D01*
X135873108Y-100137359D01*
X135882874Y-100103632D01*
X135886873Y-100091986D01*
X135899883Y-100059378D01*
X135900500Y-100053085D01*
X135900500Y-100050003D01*
X135900650Y-100046933D01*
X135900766Y-100046939D01*
X135901065Y-100040817D01*
X135904246Y-100029832D01*
X135900970Y-99992006D01*
X135900500Y-99981134D01*
X135900500Y-97113006D01*
X135923286Y-97040738D01*
X135932918Y-97026981D01*
X135947032Y-97010162D01*
X136110160Y-96847034D01*
X136126984Y-96832916D01*
X136315969Y-96700587D01*
X136334990Y-96689605D01*
X136544080Y-96592105D01*
X136564717Y-96584594D01*
X136787567Y-96524881D01*
X136809186Y-96521069D01*
X137044525Y-96500479D01*
X137055507Y-96500000D01*
X137667451Y-96500000D01*
X137675692Y-96500270D01*
G37*
G04 #@! TD.AperFunction*
G04 #@! TD*
G04 #@! TA.AperFunction,Conductor*
G04 #@! TO.N,Net-(D2-Pad1)*
G36*
X105254843Y-129000477D02*
G01*
X105435388Y-129018259D01*
X105454418Y-129022045D01*
X105538887Y-129047668D01*
X105623353Y-129073290D01*
X105641283Y-129080717D01*
X105796969Y-129163933D01*
X105813106Y-129174715D01*
X105949573Y-129286710D01*
X105963290Y-129300427D01*
X106030102Y-129381837D01*
X106075285Y-129436894D01*
X106086067Y-129453031D01*
X106169283Y-129608717D01*
X106176710Y-129626647D01*
X106227955Y-129795580D01*
X106231741Y-129814614D01*
X106249523Y-129995157D01*
X106250000Y-130004861D01*
X106250000Y-135995139D01*
X106249523Y-136004843D01*
X106231741Y-136185386D01*
X106227955Y-136204420D01*
X106176710Y-136373353D01*
X106169283Y-136391283D01*
X106086067Y-136546969D01*
X106075285Y-136563106D01*
X105993054Y-136663305D01*
X105941523Y-136696292D01*
X105916526Y-136699500D01*
X97833474Y-136699500D01*
X97775283Y-136680593D01*
X97756946Y-136663305D01*
X97674715Y-136563106D01*
X97663933Y-136546969D01*
X97580717Y-136391283D01*
X97573290Y-136373353D01*
X97522045Y-136204420D01*
X97518259Y-136185386D01*
X97500477Y-136004843D01*
X97500000Y-135995139D01*
X97500000Y-130004861D01*
X97500477Y-129995157D01*
X97518259Y-129814614D01*
X97522045Y-129795580D01*
X97573290Y-129626647D01*
X97580717Y-129608717D01*
X97663933Y-129453031D01*
X97674715Y-129436894D01*
X97719898Y-129381837D01*
X97786710Y-129300427D01*
X97800427Y-129286710D01*
X97936894Y-129174715D01*
X97953031Y-129163933D01*
X98108717Y-129080717D01*
X98126647Y-129073290D01*
X98211113Y-129047668D01*
X98295582Y-129022045D01*
X98314612Y-129018259D01*
X98495157Y-129000477D01*
X98504861Y-129000000D01*
X105245139Y-129000000D01*
X105254843Y-129000477D01*
G37*
G04 #@! TD.AperFunction*
G04 #@! TD*
M02*
