G04 #@! TF.GenerationSoftware,KiCad,Pcbnew,(6.0.5)*
G04 #@! TF.CreationDate,2022-06-23T18:32:15+02:00*
G04 #@! TF.ProjectId,microjuice,6d696372-6f6a-4756-9963-652e6b696361,rev?*
G04 #@! TF.SameCoordinates,Original*
G04 #@! TF.FileFunction,Legend,Top*
G04 #@! TF.FilePolarity,Positive*
%FSLAX46Y46*%
G04 Gerber Fmt 4.6, Leading zero omitted, Abs format (unit mm)*
G04 Created by KiCad (PCBNEW (6.0.5)) date 2022-06-23 18:32:15*
%MOMM*%
%LPD*%
G01*
G04 APERTURE LIST*
%ADD10C,0.750000*%
%ADD11C,0.500000*%
%ADD12C,0.150000*%
%ADD13C,0.120000*%
G04 APERTURE END LIST*
D10*
X101857142Y-125107142D02*
X102142857Y-125107142D01*
X102428571Y-125250000D01*
X102571428Y-125392857D01*
X102714285Y-125678571D01*
X102857142Y-126250000D01*
X102857142Y-126964285D01*
X102714285Y-127535714D01*
X102571428Y-127821428D01*
X102428571Y-127964285D01*
X102142857Y-128107142D01*
X101857142Y-128107142D01*
X101571428Y-127964285D01*
X101428571Y-127821428D01*
X101285714Y-127535714D01*
X101142857Y-126964285D01*
X101142857Y-126250000D01*
X101285714Y-125678571D01*
X101428571Y-125392857D01*
X101571428Y-125250000D01*
X101857142Y-125107142D01*
D11*
X140476190Y-126500000D02*
X140285714Y-126404761D01*
X140000000Y-126404761D01*
X139714285Y-126500000D01*
X139523809Y-126690476D01*
X139428571Y-126880952D01*
X139333333Y-127261904D01*
X139333333Y-127547619D01*
X139428571Y-127928571D01*
X139523809Y-128119047D01*
X139714285Y-128309523D01*
X140000000Y-128404761D01*
X140190476Y-128404761D01*
X140476190Y-128309523D01*
X140571428Y-128214285D01*
X140571428Y-127547619D01*
X140190476Y-127547619D01*
X141428571Y-128404761D02*
X141428571Y-126404761D01*
X142571428Y-128404761D01*
X142571428Y-126404761D01*
X143523809Y-128404761D02*
X143523809Y-126404761D01*
X144000000Y-126404761D01*
X144285714Y-126500000D01*
X144476190Y-126690476D01*
X144571428Y-126880952D01*
X144666666Y-127261904D01*
X144666666Y-127547619D01*
X144571428Y-127928571D01*
X144476190Y-128119047D01*
X144285714Y-128309523D01*
X144000000Y-128404761D01*
X143523809Y-128404761D01*
D10*
X112857142Y-128107142D02*
X111142857Y-128107142D01*
X112000000Y-128107142D02*
X112000000Y-125107142D01*
X111714285Y-125535714D01*
X111428571Y-125821428D01*
X111142857Y-125964285D01*
X121142857Y-125392857D02*
X121285714Y-125250000D01*
X121571428Y-125107142D01*
X122285714Y-125107142D01*
X122571428Y-125250000D01*
X122714285Y-125392857D01*
X122857142Y-125678571D01*
X122857142Y-125964285D01*
X122714285Y-126392857D01*
X121000000Y-128107142D01*
X122857142Y-128107142D01*
D11*
X150369047Y-118404761D02*
X149416666Y-118404761D01*
X149321428Y-119357142D01*
X149416666Y-119261904D01*
X149607142Y-119166666D01*
X150083333Y-119166666D01*
X150273809Y-119261904D01*
X150369047Y-119357142D01*
X150464285Y-119547619D01*
X150464285Y-120023809D01*
X150369047Y-120214285D01*
X150273809Y-120309523D01*
X150083333Y-120404761D01*
X149607142Y-120404761D01*
X149416666Y-120309523D01*
X149321428Y-120214285D01*
X151035714Y-118404761D02*
X151702380Y-120404761D01*
X152369047Y-118404761D01*
D12*
X94028928Y-120215133D02*
X95528928Y-120402633D01*
X94457500Y-120768705D01*
X95528928Y-121402633D01*
X94028928Y-121215133D01*
X94028928Y-121929419D02*
X95528928Y-122116919D01*
X94171785Y-123518705D02*
X94100357Y-123438348D01*
X94028928Y-123215133D01*
X94028928Y-123072276D01*
X94100357Y-122866919D01*
X94243214Y-122741919D01*
X94386071Y-122688348D01*
X94671785Y-122652633D01*
X94886071Y-122679419D01*
X95171785Y-122786562D01*
X95314642Y-122875848D01*
X95457500Y-123036562D01*
X95528928Y-123259776D01*
X95528928Y-123402633D01*
X95457500Y-123607991D01*
X95386071Y-123670491D01*
X94028928Y-125000848D02*
X94743214Y-124590133D01*
X94028928Y-124143705D02*
X95528928Y-124331205D01*
X95528928Y-124902633D01*
X95457500Y-125036562D01*
X95386071Y-125099062D01*
X95243214Y-125152633D01*
X95028928Y-125125848D01*
X94886071Y-125036562D01*
X94814642Y-124956205D01*
X94743214Y-124804419D01*
X94743214Y-124232991D01*
X95528928Y-126116919D02*
X95528928Y-126402633D01*
X95457500Y-126536562D01*
X95314642Y-126661562D01*
X95028928Y-126697276D01*
X94528928Y-126634776D01*
X94243214Y-126527633D01*
X94100357Y-126366919D01*
X94028928Y-126215133D01*
X94028928Y-125929419D01*
X94100357Y-125795491D01*
X94243214Y-125670491D01*
X94528928Y-125634776D01*
X95028928Y-125697276D01*
X95314642Y-125804419D01*
X95457500Y-125965133D01*
X95528928Y-126116919D01*
X93113928Y-121188348D02*
X92042500Y-121054419D01*
X91828214Y-120956205D01*
X91685357Y-120795491D01*
X91613928Y-120572276D01*
X91613928Y-120429419D01*
X93113928Y-121902633D02*
X91899642Y-121750848D01*
X91756785Y-121804419D01*
X91685357Y-121866919D01*
X91613928Y-122000848D01*
X91613928Y-122286562D01*
X91685357Y-122438348D01*
X91756785Y-122518705D01*
X91899642Y-122607991D01*
X93113928Y-122759776D01*
X91613928Y-123286562D02*
X93113928Y-123474062D01*
X91756785Y-124875848D02*
X91685357Y-124795491D01*
X91613928Y-124572276D01*
X91613928Y-124429419D01*
X91685357Y-124224062D01*
X91828214Y-124099062D01*
X91971071Y-124045491D01*
X92256785Y-124009776D01*
X92471071Y-124036562D01*
X92756785Y-124143705D01*
X92899642Y-124232991D01*
X93042500Y-124393705D01*
X93113928Y-124616919D01*
X93113928Y-124759776D01*
X93042500Y-124965133D01*
X92971071Y-125027633D01*
X92399642Y-125599062D02*
X92399642Y-126099062D01*
X91613928Y-126215133D02*
X91613928Y-125500848D01*
X93113928Y-125688348D01*
X93113928Y-126402633D01*
D10*
X129714285Y-125157142D02*
X131571428Y-125157142D01*
X130571428Y-126300000D01*
X131000000Y-126300000D01*
X131285714Y-126442857D01*
X131428571Y-126585714D01*
X131571428Y-126871428D01*
X131571428Y-127585714D01*
X131428571Y-127871428D01*
X131285714Y-128014285D01*
X131000000Y-128157142D01*
X130142857Y-128157142D01*
X129857142Y-128014285D01*
X129714285Y-127871428D01*
X132428571Y-125157142D02*
X133428571Y-128157142D01*
X134428571Y-125157142D01*
D13*
G04 #@! TO.C,R2*
X116022500Y-115662258D02*
X116022500Y-115187742D01*
X114977500Y-115662258D02*
X114977500Y-115187742D01*
G04 #@! TO.C,D3*
X114560000Y-109500000D02*
X114560000Y-108850000D01*
X111440000Y-109500000D02*
X111440000Y-111175000D01*
X114560000Y-109500000D02*
X114560000Y-110150000D01*
X111440000Y-109500000D02*
X111440000Y-108850000D01*
G04 #@! TO.C,U4*
X120060000Y-109500000D02*
X120060000Y-108700000D01*
X116940000Y-109500000D02*
X116940000Y-111300000D01*
X120060000Y-109500000D02*
X120060000Y-110300000D01*
X116940000Y-109500000D02*
X116940000Y-108700000D01*
G04 #@! TO.C,C1*
X128345563Y-112910000D02*
X122590000Y-112910000D01*
X122590000Y-112910000D02*
X122590000Y-110560000D01*
X129410000Y-111845563D02*
X129410000Y-110560000D01*
X130437500Y-111347500D02*
X129650000Y-111347500D01*
X129410000Y-107154437D02*
X128345563Y-106090000D01*
X129410000Y-107154437D02*
X129410000Y-108440000D01*
X122590000Y-106090000D02*
X122590000Y-108440000D01*
X130043750Y-111741250D02*
X130043750Y-110953750D01*
X129410000Y-111845563D02*
X128345563Y-112910000D01*
X128345563Y-106090000D02*
X122590000Y-106090000D01*
G04 #@! TO.C,D2*
X101690000Y-109500000D02*
X101690000Y-111175000D01*
X104810000Y-109500000D02*
X104810000Y-110150000D01*
X104810000Y-109500000D02*
X104810000Y-108850000D01*
X101690000Y-109500000D02*
X101690000Y-108850000D01*
G04 #@! TO.C,D1*
X132350000Y-112600000D02*
X132350000Y-107200000D01*
X135650000Y-112600000D02*
X135650000Y-107200000D01*
X132350000Y-112600000D02*
X135650000Y-112600000D01*
G04 #@! TO.C,C4*
X95990000Y-109640580D02*
X95990000Y-109359420D01*
X97010000Y-109640580D02*
X97010000Y-109359420D01*
G04 #@! TO.C,C5*
X116260000Y-109640580D02*
X116260000Y-109359420D01*
X115240000Y-109640580D02*
X115240000Y-109359420D01*
G04 #@! TO.C,C3*
X105740000Y-109640580D02*
X105740000Y-109359420D01*
X106760000Y-109640580D02*
X106760000Y-109359420D01*
G04 #@! TO.C,J5*
X122000000Y-103830000D02*
X120670000Y-103830000D01*
X120670000Y-103830000D02*
X120670000Y-102500000D01*
X128410000Y-103830000D02*
X128410000Y-101170000D01*
X123270000Y-101170000D02*
X128410000Y-101170000D01*
X123270000Y-103830000D02*
X128410000Y-103830000D01*
X123270000Y-103830000D02*
X123270000Y-101170000D01*
G04 #@! TO.C,C6*
X145065000Y-107900000D02*
X145065000Y-111810000D01*
X146935000Y-111810000D02*
X146935000Y-107900000D01*
X145065000Y-111810000D02*
X146935000Y-111810000D01*
G04 #@! TO.C,U3*
X110610000Y-109500000D02*
X110610000Y-110300000D01*
X110610000Y-109500000D02*
X110610000Y-108700000D01*
X107490000Y-109500000D02*
X107490000Y-111300000D01*
X107490000Y-109500000D02*
X107490000Y-108700000D01*
G04 #@! TO.C,C2*
X139190000Y-101565000D02*
X139190000Y-103435000D01*
X139190000Y-103435000D02*
X143100000Y-103435000D01*
X143100000Y-101565000D02*
X139190000Y-101565000D01*
G04 #@! TO.C,J4*
X113270000Y-101170000D02*
X118410000Y-101170000D01*
X110670000Y-103830000D02*
X110670000Y-102500000D01*
X113270000Y-103830000D02*
X118410000Y-103830000D01*
X112000000Y-103830000D02*
X110670000Y-103830000D01*
X118410000Y-103830000D02*
X118410000Y-101170000D01*
X113270000Y-103830000D02*
X113270000Y-101170000D01*
G04 #@! TO.C,R1*
X105772500Y-115737258D02*
X105772500Y-115262742D01*
X104727500Y-115737258D02*
X104727500Y-115262742D01*
G04 #@! TO.C,U1*
X143910000Y-110410000D02*
X142650000Y-110410000D01*
X137090000Y-110410000D02*
X138350000Y-110410000D01*
X143910000Y-104400000D02*
X143910000Y-110410000D01*
X137090000Y-106650000D02*
X137090000Y-110410000D01*
G04 #@! TO.C,U2*
X101060000Y-109500000D02*
X101060000Y-108700000D01*
X97940000Y-109500000D02*
X97940000Y-108700000D01*
X101060000Y-109500000D02*
X101060000Y-110300000D01*
X97940000Y-109500000D02*
X97940000Y-111300000D01*
G04 #@! TO.C,R4*
X93477500Y-109262742D02*
X93477500Y-109737258D01*
X94522500Y-109262742D02*
X94522500Y-109737258D01*
G04 #@! TO.C,D4*
X94735000Y-114735000D02*
X94735000Y-112450000D01*
X93265000Y-114735000D02*
X94735000Y-114735000D01*
X93265000Y-112450000D02*
X93265000Y-114735000D01*
G04 #@! TO.C,J3*
X102000000Y-103830000D02*
X100670000Y-103830000D01*
X103270000Y-103830000D02*
X108410000Y-103830000D01*
X103270000Y-101170000D02*
X108410000Y-101170000D01*
X108410000Y-103830000D02*
X108410000Y-101170000D01*
X103270000Y-103830000D02*
X103270000Y-101170000D01*
X100670000Y-103830000D02*
X100670000Y-102500000D01*
G04 #@! TO.C,R3*
X126477500Y-115737258D02*
X126477500Y-115262742D01*
X127522500Y-115737258D02*
X127522500Y-115262742D01*
G04 #@! TD*
M02*
