G04 #@! TF.GenerationSoftware,KiCad,Pcbnew,(6.0.5)*
G04 #@! TF.CreationDate,2022-06-23T18:32:15+02:00*
G04 #@! TF.ProjectId,microjuice,6d696372-6f6a-4756-9963-652e6b696361,rev?*
G04 #@! TF.SameCoordinates,Original*
G04 #@! TF.FileFunction,Copper,L2,Bot*
G04 #@! TF.FilePolarity,Positive*
%FSLAX46Y46*%
G04 Gerber Fmt 4.6, Leading zero omitted, Abs format (unit mm)*
G04 Created by KiCad (PCBNEW (6.0.5)) date 2022-06-23 18:32:15*
%MOMM*%
%LPD*%
G01*
G04 APERTURE LIST*
G04 Aperture macros list*
%AMFreePoly0*
4,1,6,1.000000,0.000000,0.500000,-0.750000,-0.500000,-0.750000,-0.500000,0.750000,0.500000,0.750000,1.000000,0.000000,1.000000,0.000000,$1*%
%AMFreePoly1*
4,1,6,0.500000,-0.750000,-0.650000,-0.750000,-0.150000,0.000000,-0.650000,0.750000,0.500000,0.750000,0.500000,-0.750000,0.500000,-0.750000,$1*%
G04 Aperture macros list end*
G04 #@! TA.AperFunction,ComponentPad*
%ADD10C,7.000000*%
G04 #@! TD*
G04 #@! TA.AperFunction,ComponentPad*
%ADD11C,6.200000*%
G04 #@! TD*
G04 #@! TA.AperFunction,ComponentPad*
%ADD12R,1.700000X1.700000*%
G04 #@! TD*
G04 #@! TA.AperFunction,ComponentPad*
%ADD13O,1.700000X1.700000*%
G04 #@! TD*
G04 #@! TA.AperFunction,SMDPad,CuDef*
%ADD14FreePoly0,270.000000*%
G04 #@! TD*
G04 #@! TA.AperFunction,SMDPad,CuDef*
%ADD15FreePoly1,270.000000*%
G04 #@! TD*
G04 #@! TA.AperFunction,ViaPad*
%ADD16C,0.800000*%
G04 #@! TD*
G04 #@! TA.AperFunction,Conductor*
%ADD17C,0.400000*%
G04 #@! TD*
G04 APERTURE END LIST*
D10*
G04 #@! TO.P,H6,1,1*
G04 #@! TO.N,VBUS*
X150800000Y-124600000D03*
G04 #@! TD*
G04 #@! TO.P,H10,1,1*
G04 #@! TO.N,+3V0*
X132000000Y-132588000D03*
G04 #@! TD*
D11*
G04 #@! TO.P,H9,1,1*
G04 #@! TO.N,Net-(H9-Pad1)*
X121920000Y-116840000D03*
G04 #@! TD*
D12*
G04 #@! TO.P,J5,1,Pin_1*
G04 #@! TO.N,GND*
X122000000Y-102500000D03*
D13*
G04 #@! TO.P,J5,2,Pin_2*
G04 #@! TO.N,VBUS*
X124540000Y-102500000D03*
G04 #@! TO.P,J5,3,Pin_3*
G04 #@! TO.N,Net-(JP3-Pad1)*
X127080000Y-102500000D03*
G04 #@! TD*
D12*
G04 #@! TO.P,J4,1,Pin_1*
G04 #@! TO.N,GND*
X112000000Y-102500000D03*
D13*
G04 #@! TO.P,J4,2,Pin_2*
G04 #@! TO.N,VBUS*
X114540000Y-102500000D03*
G04 #@! TO.P,J4,3,Pin_3*
G04 #@! TO.N,Net-(J4-Pad3)*
X117080000Y-102500000D03*
G04 #@! TD*
D11*
G04 #@! TO.P,H7,1,1*
G04 #@! TO.N,Net-(H7-Pad1)*
X100330000Y-116840000D03*
G04 #@! TD*
G04 #@! TO.P,H5,1,1*
G04 #@! TO.N,GND*
X143510000Y-116840000D03*
G04 #@! TD*
D10*
G04 #@! TO.P,H2,1,1*
G04 #@! TO.N,Net-(D2-Pad2)*
X112000000Y-132588000D03*
G04 #@! TD*
G04 #@! TO.P,H11,1,1*
G04 #@! TO.N,GND*
X142000000Y-132588000D03*
G04 #@! TD*
G04 #@! TO.P,H1,1,1*
G04 #@! TO.N,Net-(D2-Pad1)*
X102000000Y-132588000D03*
G04 #@! TD*
D12*
G04 #@! TO.P,J3,1,Pin_1*
G04 #@! TO.N,GND*
X102000000Y-102500000D03*
D13*
G04 #@! TO.P,J3,2,Pin_2*
G04 #@! TO.N,VBUS*
X104540000Y-102500000D03*
G04 #@! TO.P,J3,3,Pin_3*
G04 #@! TO.N,Net-(J3-Pad3)*
X107080000Y-102500000D03*
G04 #@! TD*
D11*
G04 #@! TO.P,H8,1,1*
G04 #@! TO.N,Net-(H8-Pad1)*
X110490000Y-116840000D03*
G04 #@! TD*
D10*
G04 #@! TO.P,H3,1,1*
G04 #@! TO.N,Net-(D3-Pad2)*
X121920000Y-132588000D03*
G04 #@! TD*
D11*
G04 #@! TO.P,H4,1,1*
G04 #@! TO.N,+3V0*
X133350000Y-116840000D03*
G04 #@! TD*
D14*
G04 #@! TO.P,JP1,1,A*
G04 #@! TO.N,Net-(J3-Pad3)*
X99500000Y-108775000D03*
D15*
G04 #@! TO.P,JP1,2,B*
G04 #@! TO.N,Net-(D2-Pad1)*
X99500000Y-110225000D03*
G04 #@! TD*
D14*
G04 #@! TO.P,JP2,1,A*
G04 #@! TO.N,Net-(J4-Pad3)*
X109050000Y-108775000D03*
D15*
G04 #@! TO.P,JP2,2,B*
G04 #@! TO.N,Net-(D2-Pad2)*
X109050000Y-110225000D03*
G04 #@! TD*
D14*
G04 #@! TO.P,JP3,1,A*
G04 #@! TO.N,Net-(JP3-Pad1)*
X118500000Y-108775000D03*
D15*
G04 #@! TO.P,JP3,2,B*
G04 #@! TO.N,Net-(D3-Pad2)*
X118500000Y-110225000D03*
G04 #@! TD*
D16*
G04 #@! TO.N,GND*
X101400500Y-110500000D03*
X145700000Y-100600000D03*
X120500000Y-110500000D03*
X123250000Y-111000000D03*
X145300000Y-104800000D03*
X111000000Y-110500000D03*
X95250000Y-110250000D03*
X143100000Y-100600000D03*
X144400000Y-100600000D03*
G04 #@! TO.N,+3V0*
X110500000Y-112200000D03*
X118100000Y-114400000D03*
X107700000Y-112200500D03*
X124690332Y-113059668D03*
G04 #@! TO.N,VBUS*
X127400000Y-111250000D03*
X126200000Y-111250000D03*
X128600000Y-111250000D03*
G04 #@! TO.N,Net-(D2-Pad1)*
X99500000Y-112000000D03*
G04 #@! TO.N,Net-(D2-Pad2)*
X109000000Y-112000000D03*
G04 #@! TO.N,Net-(D3-Pad2)*
X115500000Y-111500000D03*
G04 #@! TO.N,Net-(J3-Pad3)*
X101500000Y-108000000D03*
G04 #@! TO.N,Net-(C6-Pad1)*
X140500000Y-109500000D03*
X140500000Y-106500000D03*
G04 #@! TO.N,Net-(J4-Pad3)*
X111250000Y-108000000D03*
G04 #@! TO.N,Net-(JP3-Pad1)*
X120500000Y-107750000D03*
G04 #@! TD*
D17*
G04 #@! TO.N,+3V0*
X108299011Y-112799511D02*
X109900489Y-112799511D01*
X119659511Y-113340489D02*
X118600000Y-114400000D01*
X118600000Y-114400000D02*
X118100000Y-114400000D01*
X124409511Y-113340489D02*
X119659511Y-113340489D01*
X124690332Y-113059668D02*
X124409511Y-113340489D01*
X109900489Y-112799511D02*
X110500000Y-112200000D01*
X107700000Y-112200500D02*
X108299011Y-112799511D01*
G04 #@! TO.N,Net-(D2-Pad1)*
X99500000Y-110225000D02*
X99500000Y-112000000D01*
G04 #@! TO.N,Net-(D2-Pad2)*
X109000000Y-112000000D02*
X109000000Y-110275000D01*
X109000000Y-110275000D02*
X109050000Y-110225000D01*
G04 #@! TO.N,Net-(D3-Pad2)*
X116775000Y-110225000D02*
X118500000Y-110225000D01*
X115500000Y-111500000D02*
X116775000Y-110225000D01*
G04 #@! TO.N,Net-(J3-Pad3)*
X101500000Y-108000000D02*
X102580000Y-108000000D01*
X100725000Y-108775000D02*
X99500000Y-108775000D01*
X107080000Y-103500000D02*
X107080000Y-102500000D01*
X102580000Y-108000000D02*
X107080000Y-103500000D01*
X101500000Y-108000000D02*
X100725000Y-108775000D01*
G04 #@! TO.N,Net-(J4-Pad3)*
X110475000Y-108775000D02*
X109050000Y-108775000D01*
X112580000Y-108000000D02*
X117080000Y-103500000D01*
X117080000Y-103500000D02*
X117080000Y-102500000D01*
X111250000Y-108000000D02*
X110475000Y-108775000D01*
X111250000Y-108000000D02*
X112580000Y-108000000D01*
G04 #@! TO.N,Net-(JP3-Pad1)*
X120500000Y-107750000D02*
X120500000Y-107500000D01*
X123750000Y-104250000D02*
X125540000Y-104250000D01*
X127080000Y-102710000D02*
X127080000Y-102500000D01*
X120500000Y-107750000D02*
X119475000Y-108775000D01*
X125540000Y-104250000D02*
X127080000Y-102710000D01*
X119475000Y-108775000D02*
X118500000Y-108775000D01*
X120500000Y-107500000D02*
X123750000Y-104250000D01*
G04 #@! TD*
G04 #@! TA.AperFunction,Conductor*
G04 #@! TO.N,Net-(D3-Pad2)*
G36*
X125254843Y-129000477D02*
G01*
X125435388Y-129018259D01*
X125454418Y-129022045D01*
X125538887Y-129047668D01*
X125623353Y-129073290D01*
X125641283Y-129080717D01*
X125796969Y-129163933D01*
X125813106Y-129174715D01*
X125949573Y-129286710D01*
X125963290Y-129300427D01*
X126030102Y-129381837D01*
X126075285Y-129436894D01*
X126086067Y-129453031D01*
X126169283Y-129608717D01*
X126176710Y-129626647D01*
X126227955Y-129795580D01*
X126231741Y-129814614D01*
X126249523Y-129995157D01*
X126250000Y-130004861D01*
X126250000Y-135995139D01*
X126249523Y-136004843D01*
X126231741Y-136185386D01*
X126227955Y-136204420D01*
X126176710Y-136373353D01*
X126169283Y-136391283D01*
X126086067Y-136546969D01*
X126075285Y-136563106D01*
X125993054Y-136663305D01*
X125941523Y-136696292D01*
X125916526Y-136699500D01*
X118083474Y-136699500D01*
X118025283Y-136680593D01*
X118006946Y-136663305D01*
X117924715Y-136563106D01*
X117913933Y-136546969D01*
X117830717Y-136391283D01*
X117823290Y-136373353D01*
X117772045Y-136204420D01*
X117768259Y-136185386D01*
X117750477Y-136004843D01*
X117750000Y-135995139D01*
X117750000Y-130004861D01*
X117750477Y-129995157D01*
X117768259Y-129814614D01*
X117772045Y-129795580D01*
X117823290Y-129626647D01*
X117830717Y-129608717D01*
X117913933Y-129453031D01*
X117924715Y-129436894D01*
X117969898Y-129381837D01*
X118036710Y-129300427D01*
X118050427Y-129286710D01*
X118186894Y-129174715D01*
X118203031Y-129163933D01*
X118358717Y-129080717D01*
X118376647Y-129073290D01*
X118461113Y-129047668D01*
X118545582Y-129022045D01*
X118564612Y-129018259D01*
X118745157Y-129000477D01*
X118754861Y-129000000D01*
X125245139Y-129000000D01*
X125254843Y-129000477D01*
G37*
G04 #@! TD.AperFunction*
G04 #@! TD*
G04 #@! TA.AperFunction,Conductor*
G04 #@! TO.N,+3V0*
G36*
X135504843Y-129000477D02*
G01*
X135685388Y-129018259D01*
X135704418Y-129022045D01*
X135788887Y-129047668D01*
X135873353Y-129073290D01*
X135891283Y-129080717D01*
X136046969Y-129163933D01*
X136063106Y-129174715D01*
X136199573Y-129286710D01*
X136213290Y-129300427D01*
X136280102Y-129381837D01*
X136325285Y-129436894D01*
X136336067Y-129453031D01*
X136419283Y-129608717D01*
X136426710Y-129626647D01*
X136477955Y-129795580D01*
X136481741Y-129814614D01*
X136499523Y-129995157D01*
X136500000Y-130004861D01*
X136500000Y-135995139D01*
X136499523Y-136004843D01*
X136481741Y-136185386D01*
X136477955Y-136204420D01*
X136426710Y-136373353D01*
X136419283Y-136391283D01*
X136336067Y-136546969D01*
X136325285Y-136563106D01*
X136243054Y-136663305D01*
X136191523Y-136696292D01*
X136166526Y-136699500D01*
X128083474Y-136699500D01*
X128025283Y-136680593D01*
X128006946Y-136663305D01*
X127924715Y-136563106D01*
X127913933Y-136546969D01*
X127830717Y-136391283D01*
X127823290Y-136373353D01*
X127772045Y-136204420D01*
X127768259Y-136185386D01*
X127750477Y-136004843D01*
X127750000Y-135995139D01*
X127750000Y-130004861D01*
X127750477Y-129995157D01*
X127768259Y-129814614D01*
X127772045Y-129795580D01*
X127823290Y-129626647D01*
X127830717Y-129608717D01*
X127913933Y-129453031D01*
X127924715Y-129436894D01*
X127969898Y-129381837D01*
X128036710Y-129300427D01*
X128050427Y-129286710D01*
X128186894Y-129174715D01*
X128203031Y-129163933D01*
X128358717Y-129080717D01*
X128376647Y-129073290D01*
X128461113Y-129047668D01*
X128545582Y-129022045D01*
X128564612Y-129018259D01*
X128745157Y-129000477D01*
X128754861Y-129000000D01*
X135495139Y-129000000D01*
X135504843Y-129000477D01*
G37*
G04 #@! TD.AperFunction*
G04 #@! TD*
G04 #@! TA.AperFunction,Conductor*
G04 #@! TO.N,Net-(D2-Pad2)*
G36*
X115254843Y-129000477D02*
G01*
X115435388Y-129018259D01*
X115454418Y-129022045D01*
X115538887Y-129047668D01*
X115623353Y-129073290D01*
X115641283Y-129080717D01*
X115796969Y-129163933D01*
X115813106Y-129174715D01*
X115949573Y-129286710D01*
X115963290Y-129300427D01*
X116030102Y-129381837D01*
X116075285Y-129436894D01*
X116086067Y-129453031D01*
X116169283Y-129608717D01*
X116176710Y-129626647D01*
X116227955Y-129795580D01*
X116231741Y-129814614D01*
X116249523Y-129995157D01*
X116250000Y-130004861D01*
X116250000Y-135995139D01*
X116249523Y-136004843D01*
X116231741Y-136185386D01*
X116227955Y-136204420D01*
X116176710Y-136373353D01*
X116169283Y-136391283D01*
X116086067Y-136546969D01*
X116075285Y-136563106D01*
X115993054Y-136663305D01*
X115941523Y-136696292D01*
X115916526Y-136699500D01*
X108083474Y-136699500D01*
X108025283Y-136680593D01*
X108006946Y-136663305D01*
X107924715Y-136563106D01*
X107913933Y-136546969D01*
X107830717Y-136391283D01*
X107823290Y-136373353D01*
X107772045Y-136204420D01*
X107768259Y-136185386D01*
X107750477Y-136004843D01*
X107750000Y-135995139D01*
X107750000Y-130004861D01*
X107750477Y-129995157D01*
X107768259Y-129814614D01*
X107772045Y-129795580D01*
X107823290Y-129626647D01*
X107830717Y-129608717D01*
X107913933Y-129453031D01*
X107924715Y-129436894D01*
X107969898Y-129381837D01*
X108036710Y-129300427D01*
X108050427Y-129286710D01*
X108186894Y-129174715D01*
X108203031Y-129163933D01*
X108358717Y-129080717D01*
X108376647Y-129073290D01*
X108461113Y-129047668D01*
X108545582Y-129022045D01*
X108564612Y-129018259D01*
X108745157Y-129000477D01*
X108754861Y-129000000D01*
X115245139Y-129000000D01*
X115254843Y-129000477D01*
G37*
G04 #@! TD.AperFunction*
G04 #@! TD*
G04 #@! TA.AperFunction,Conductor*
G04 #@! TO.N,GND*
G36*
X146500000Y-135995139D02*
G01*
X146499523Y-136004843D01*
X146481741Y-136185386D01*
X146477955Y-136204420D01*
X146426710Y-136373353D01*
X146419283Y-136391283D01*
X146336067Y-136546969D01*
X146325285Y-136563106D01*
X146243054Y-136663305D01*
X146191523Y-136696292D01*
X146166526Y-136699500D01*
X138333474Y-136699500D01*
X138275283Y-136680593D01*
X138256946Y-136663305D01*
X138174715Y-136563106D01*
X138163933Y-136546969D01*
X138080717Y-136391283D01*
X138073290Y-136373353D01*
X138022045Y-136204420D01*
X138018259Y-136185386D01*
X138000477Y-136004843D01*
X138000000Y-135995139D01*
X138000000Y-129000000D01*
X146500000Y-129000000D01*
X146500000Y-135995139D01*
G37*
G04 #@! TD.AperFunction*
G04 #@! TD*
G04 #@! TA.AperFunction,Conductor*
G04 #@! TO.N,Net-(D2-Pad1)*
G36*
X105254843Y-129000477D02*
G01*
X105435388Y-129018259D01*
X105454418Y-129022045D01*
X105538887Y-129047668D01*
X105623353Y-129073290D01*
X105641283Y-129080717D01*
X105796969Y-129163933D01*
X105813106Y-129174715D01*
X105949573Y-129286710D01*
X105963290Y-129300427D01*
X106030102Y-129381837D01*
X106075285Y-129436894D01*
X106086067Y-129453031D01*
X106169283Y-129608717D01*
X106176710Y-129626647D01*
X106227955Y-129795580D01*
X106231741Y-129814614D01*
X106249523Y-129995157D01*
X106250000Y-130004861D01*
X106250000Y-135995139D01*
X106249523Y-136004843D01*
X106231741Y-136185386D01*
X106227955Y-136204420D01*
X106176710Y-136373353D01*
X106169283Y-136391283D01*
X106086067Y-136546969D01*
X106075285Y-136563106D01*
X105993054Y-136663305D01*
X105941523Y-136696292D01*
X105916526Y-136699500D01*
X97833474Y-136699500D01*
X97775283Y-136680593D01*
X97756946Y-136663305D01*
X97674715Y-136563106D01*
X97663933Y-136546969D01*
X97580717Y-136391283D01*
X97573290Y-136373353D01*
X97522045Y-136204420D01*
X97518259Y-136185386D01*
X97500477Y-136004843D01*
X97500000Y-135995139D01*
X97500000Y-130004861D01*
X97500477Y-129995157D01*
X97518259Y-129814614D01*
X97522045Y-129795580D01*
X97573290Y-129626647D01*
X97580717Y-129608717D01*
X97663933Y-129453031D01*
X97674715Y-129436894D01*
X97719898Y-129381837D01*
X97786710Y-129300427D01*
X97800427Y-129286710D01*
X97936894Y-129174715D01*
X97953031Y-129163933D01*
X98108717Y-129080717D01*
X98126647Y-129073290D01*
X98211113Y-129047668D01*
X98295582Y-129022045D01*
X98314612Y-129018259D01*
X98495157Y-129000477D01*
X98504861Y-129000000D01*
X105245139Y-129000000D01*
X105254843Y-129000477D01*
G37*
G04 #@! TD.AperFunction*
G04 #@! TD*
G04 #@! TA.AperFunction,Conductor*
G04 #@! TO.N,Net-(C6-Pad1)*
G36*
X141303301Y-105000173D02*
G01*
X141680155Y-105019923D01*
X141693271Y-105021301D01*
X142062751Y-105079821D01*
X142075651Y-105082563D01*
X142436989Y-105179383D01*
X142449532Y-105183459D01*
X142798756Y-105317514D01*
X142810805Y-105322878D01*
X143144120Y-105492710D01*
X143155542Y-105499305D01*
X143469271Y-105703043D01*
X143479940Y-105710795D01*
X143770652Y-105946209D01*
X143780453Y-105955034D01*
X144044966Y-106219547D01*
X144053791Y-106229348D01*
X144289205Y-106520060D01*
X144296957Y-106530729D01*
X144500695Y-106844458D01*
X144507290Y-106855880D01*
X144677122Y-107189195D01*
X144682486Y-107201244D01*
X144816541Y-107550468D01*
X144820617Y-107563011D01*
X144917437Y-107924349D01*
X144920179Y-107937249D01*
X144978699Y-108306729D01*
X144980077Y-108319846D01*
X144999654Y-108693406D01*
X144999654Y-108706594D01*
X144980077Y-109080154D01*
X144978699Y-109093271D01*
X144920179Y-109462751D01*
X144917437Y-109475651D01*
X144820617Y-109836989D01*
X144816541Y-109849532D01*
X144682486Y-110198756D01*
X144677122Y-110210805D01*
X144507290Y-110544120D01*
X144500695Y-110555542D01*
X144296957Y-110869271D01*
X144289205Y-110879940D01*
X144053791Y-111170652D01*
X144044966Y-111180453D01*
X143780453Y-111444966D01*
X143770652Y-111453791D01*
X143479940Y-111689205D01*
X143469271Y-111696957D01*
X143155542Y-111900695D01*
X143144120Y-111907290D01*
X142810805Y-112077122D01*
X142798756Y-112082486D01*
X142449532Y-112216541D01*
X142436989Y-112220617D01*
X142075651Y-112317437D01*
X142062751Y-112320179D01*
X141693271Y-112378699D01*
X141680155Y-112380077D01*
X141314264Y-112399252D01*
X141303301Y-112399827D01*
X141296707Y-112400000D01*
X139703293Y-112400000D01*
X139696699Y-112399827D01*
X139685736Y-112399252D01*
X139319845Y-112380077D01*
X139306729Y-112378699D01*
X138937249Y-112320179D01*
X138924349Y-112317437D01*
X138563011Y-112220617D01*
X138550468Y-112216541D01*
X138201244Y-112082486D01*
X138189195Y-112077122D01*
X137855880Y-111907290D01*
X137844458Y-111900695D01*
X137530729Y-111696957D01*
X137520060Y-111689205D01*
X137229348Y-111453791D01*
X137219547Y-111444966D01*
X136955034Y-111180453D01*
X136946209Y-111170652D01*
X136710795Y-110879940D01*
X136703043Y-110869271D01*
X136499305Y-110555542D01*
X136492710Y-110544120D01*
X136322878Y-110210805D01*
X136317514Y-110198756D01*
X136183459Y-109849532D01*
X136179383Y-109836989D01*
X136082563Y-109475651D01*
X136079821Y-109462751D01*
X136021301Y-109093271D01*
X136019923Y-109080154D01*
X136000346Y-108706594D01*
X136000346Y-108693406D01*
X136019923Y-108319846D01*
X136021301Y-108306729D01*
X136079821Y-107937249D01*
X136082563Y-107924349D01*
X136179383Y-107563011D01*
X136183459Y-107550468D01*
X136317514Y-107201244D01*
X136322878Y-107189195D01*
X136492710Y-106855880D01*
X136499305Y-106844458D01*
X136703043Y-106530729D01*
X136710795Y-106520060D01*
X136946209Y-106229348D01*
X136955034Y-106219547D01*
X137219547Y-105955034D01*
X137229348Y-105946209D01*
X137520060Y-105710795D01*
X137530729Y-105703043D01*
X137844458Y-105499305D01*
X137855880Y-105492710D01*
X138189195Y-105322878D01*
X138201244Y-105317514D01*
X138550468Y-105183459D01*
X138563011Y-105179383D01*
X138924349Y-105082563D01*
X138937249Y-105079821D01*
X139306729Y-105021301D01*
X139319845Y-105019923D01*
X139696699Y-105000173D01*
X139703293Y-105000000D01*
X141296707Y-105000000D01*
X141303301Y-105000173D01*
G37*
G04 #@! TD.AperFunction*
G04 #@! TD*
G04 #@! TA.AperFunction,Conductor*
G04 #@! TO.N,GND*
G36*
X147257275Y-100020002D02*
G01*
X147303768Y-100073658D01*
X147305013Y-100077074D01*
X147305413Y-100081696D01*
X147310456Y-100092014D01*
X147310576Y-100092343D01*
X147311433Y-100095434D01*
X147312660Y-100098614D01*
X147314791Y-100110053D01*
X147324734Y-100126183D01*
X147333221Y-100139952D01*
X147339160Y-100150734D01*
X147354575Y-100182269D01*
X147363101Y-100190178D01*
X147365134Y-100192916D01*
X147367428Y-100195446D01*
X147373532Y-100205348D01*
X147382788Y-100212387D01*
X147382793Y-100212392D01*
X147401487Y-100226607D01*
X147410908Y-100234526D01*
X147436646Y-100258401D01*
X147447447Y-100262710D01*
X147450324Y-100264529D01*
X147453381Y-100266066D01*
X147462641Y-100273108D01*
X147483348Y-100279104D01*
X147496367Y-100282874D01*
X147508008Y-100286871D01*
X147540622Y-100299883D01*
X147546915Y-100300500D01*
X147549997Y-100300500D01*
X147553067Y-100300650D01*
X147553061Y-100300766D01*
X147559183Y-100301065D01*
X147570168Y-100304246D01*
X147607994Y-100300970D01*
X147618866Y-100300500D01*
X152462683Y-100300500D01*
X152484563Y-100302414D01*
X152489145Y-100303222D01*
X152500000Y-100305136D01*
X152510855Y-100303222D01*
X152521878Y-100303222D01*
X152521878Y-100303587D01*
X152534236Y-100302949D01*
X152630210Y-100309813D01*
X152732881Y-100317156D01*
X152750669Y-100319713D01*
X152918867Y-100356303D01*
X152969996Y-100367426D01*
X152987245Y-100372490D01*
X153197560Y-100450933D01*
X153213906Y-100458398D01*
X153410913Y-100565973D01*
X153426033Y-100575690D01*
X153605725Y-100710206D01*
X153619311Y-100721979D01*
X153778021Y-100880689D01*
X153789794Y-100894275D01*
X153924310Y-101073967D01*
X153934027Y-101089087D01*
X153970318Y-101155548D01*
X154041600Y-101286090D01*
X154049067Y-101302440D01*
X154082107Y-101391025D01*
X154127510Y-101512756D01*
X154132574Y-101530004D01*
X154174385Y-101722199D01*
X154180286Y-101749327D01*
X154182844Y-101767119D01*
X154183320Y-101773766D01*
X154197051Y-101965764D01*
X154196413Y-101978122D01*
X154196778Y-101978122D01*
X154196778Y-101989145D01*
X154194864Y-102000000D01*
X154196778Y-102010855D01*
X154197586Y-102015437D01*
X154199500Y-102037317D01*
X154199500Y-122428694D01*
X154179498Y-122496815D01*
X154125842Y-122543308D01*
X154055568Y-122553412D01*
X153990988Y-122523918D01*
X153966530Y-122495277D01*
X153926475Y-122430926D01*
X153926473Y-122430924D01*
X153924788Y-122428216D01*
X153689319Y-122123554D01*
X153424267Y-121844248D01*
X153132347Y-121593157D01*
X152816546Y-121372851D01*
X152496445Y-121194685D01*
X152482884Y-121187137D01*
X152482882Y-121187136D01*
X152480099Y-121185587D01*
X152477179Y-121184329D01*
X152477174Y-121184327D01*
X152129384Y-121034545D01*
X152129374Y-121034541D01*
X152126450Y-121033282D01*
X151759221Y-120917495D01*
X151488472Y-120861426D01*
X151385295Y-120840059D01*
X151385292Y-120840059D01*
X151382170Y-120839412D01*
X151088699Y-120809084D01*
X151002314Y-120800157D01*
X151002311Y-120800157D01*
X150999158Y-120799831D01*
X150995992Y-120799825D01*
X150995983Y-120799825D01*
X150805911Y-120799494D01*
X150614108Y-120799159D01*
X150461969Y-120814344D01*
X150234134Y-120837085D01*
X150234128Y-120837086D01*
X150230961Y-120837402D01*
X150035038Y-120877263D01*
X149856764Y-120913533D01*
X149856760Y-120913534D01*
X149853639Y-120914169D01*
X149850597Y-120915116D01*
X149850591Y-120915118D01*
X149698214Y-120962579D01*
X149486008Y-121028674D01*
X149483080Y-121029923D01*
X149134768Y-121178490D01*
X149134761Y-121178493D01*
X149131829Y-121179744D01*
X149129032Y-121181288D01*
X149129028Y-121181290D01*
X149126965Y-121182429D01*
X149126469Y-121182538D01*
X149126170Y-121182684D01*
X149126135Y-121182612D01*
X149057078Y-121197802D01*
X149026281Y-121195599D01*
X149015391Y-121195016D01*
X149014813Y-121194995D01*
X149014805Y-121194995D01*
X149006939Y-121194714D01*
X149006923Y-121194714D01*
X149006403Y-121194695D01*
X149005889Y-121194686D01*
X149005859Y-121194685D01*
X149000414Y-121194588D01*
X148995499Y-121194500D01*
X130431500Y-121194500D01*
X130363379Y-121174498D01*
X130316886Y-121120842D01*
X130305500Y-121068500D01*
X130305500Y-118819612D01*
X130325502Y-118751491D01*
X130379158Y-118704998D01*
X130449432Y-118694894D01*
X130514012Y-118724388D01*
X130536080Y-118749335D01*
X130630252Y-118889477D01*
X130867502Y-119171221D01*
X130898871Y-119201198D01*
X131131329Y-119423341D01*
X131131336Y-119423347D01*
X131133792Y-119425694D01*
X131426008Y-119649919D01*
X131740731Y-119841274D01*
X132074279Y-119997519D01*
X132077497Y-119998621D01*
X132077500Y-119998622D01*
X132419528Y-120115725D01*
X132419536Y-120115727D01*
X132422751Y-120116828D01*
X132782070Y-120197804D01*
X132865002Y-120207253D01*
X133144650Y-120239115D01*
X133144658Y-120239115D01*
X133148033Y-120239500D01*
X133151437Y-120239518D01*
X133151440Y-120239518D01*
X133351074Y-120240563D01*
X133516358Y-120241428D01*
X133519744Y-120241078D01*
X133519746Y-120241078D01*
X133879345Y-120203918D01*
X133879354Y-120203917D01*
X133882737Y-120203567D01*
X133886070Y-120202853D01*
X133886073Y-120202852D01*
X134063488Y-120164817D01*
X134242884Y-120126358D01*
X134592586Y-120010705D01*
X134927752Y-119857961D01*
X135084776Y-119764727D01*
X135241516Y-119671662D01*
X135241521Y-119671659D01*
X135244461Y-119669913D01*
X135271091Y-119649919D01*
X135382479Y-119566286D01*
X141148861Y-119566286D01*
X141156318Y-119576654D01*
X141383800Y-119760865D01*
X141389115Y-119764727D01*
X141700773Y-119967121D01*
X141706450Y-119970398D01*
X142037540Y-120139097D01*
X142043565Y-120141779D01*
X142390447Y-120274935D01*
X142396729Y-120276976D01*
X142755636Y-120373144D01*
X142762086Y-120374515D01*
X143129096Y-120432645D01*
X143135634Y-120433331D01*
X143506699Y-120452778D01*
X143513301Y-120452778D01*
X143884366Y-120433331D01*
X143890904Y-120432645D01*
X144257914Y-120374515D01*
X144264364Y-120373144D01*
X144623271Y-120276976D01*
X144629553Y-120274935D01*
X144976435Y-120141779D01*
X144982460Y-120139097D01*
X145313550Y-119970398D01*
X145319227Y-119967121D01*
X145630885Y-119764727D01*
X145636200Y-119760865D01*
X145862730Y-119577424D01*
X145871198Y-119565166D01*
X145864865Y-119554076D01*
X143522810Y-117212020D01*
X143508869Y-117204408D01*
X143507034Y-117204539D01*
X143500420Y-117208790D01*
X141156001Y-119553210D01*
X141148861Y-119566286D01*
X135382479Y-119566286D01*
X135536276Y-119450812D01*
X135539009Y-119448760D01*
X135807950Y-119197089D01*
X136048138Y-118917846D01*
X136065838Y-118892093D01*
X136232742Y-118649244D01*
X136256762Y-118614295D01*
X136258374Y-118611301D01*
X136258379Y-118611293D01*
X136395574Y-118356493D01*
X136431383Y-118289989D01*
X136569958Y-117948720D01*
X136670865Y-117594482D01*
X136732925Y-117231418D01*
X136733569Y-117220904D01*
X136755301Y-116865572D01*
X136755411Y-116863775D01*
X136755461Y-116849580D01*
X136755483Y-116843301D01*
X139897222Y-116843301D01*
X139916669Y-117214366D01*
X139917355Y-117220904D01*
X139975485Y-117587914D01*
X139976856Y-117594364D01*
X140073024Y-117953271D01*
X140075065Y-117959553D01*
X140208221Y-118306435D01*
X140210903Y-118312460D01*
X140379594Y-118643534D01*
X140382891Y-118649244D01*
X140585259Y-118960864D01*
X140589147Y-118966215D01*
X140772576Y-119192730D01*
X140784834Y-119201198D01*
X140795924Y-119194865D01*
X143137980Y-116852810D01*
X143144357Y-116841131D01*
X143874408Y-116841131D01*
X143874539Y-116842966D01*
X143878790Y-116849580D01*
X146223210Y-119193999D01*
X146236286Y-119201139D01*
X146246654Y-119193682D01*
X146430853Y-118966215D01*
X146434741Y-118960864D01*
X146637109Y-118649244D01*
X146640406Y-118643534D01*
X146809097Y-118312460D01*
X146811779Y-118306435D01*
X146944935Y-117959553D01*
X146946976Y-117953271D01*
X147043144Y-117594364D01*
X147044515Y-117587914D01*
X147102645Y-117220904D01*
X147103331Y-117214366D01*
X147122778Y-116843301D01*
X147122778Y-116836699D01*
X147103331Y-116465634D01*
X147102645Y-116459096D01*
X147044515Y-116092086D01*
X147043144Y-116085636D01*
X146946976Y-115726729D01*
X146944935Y-115720447D01*
X146811779Y-115373565D01*
X146809097Y-115367540D01*
X146640406Y-115036466D01*
X146637109Y-115030756D01*
X146434741Y-114719136D01*
X146430853Y-114713785D01*
X146247424Y-114487270D01*
X146235166Y-114478802D01*
X146224076Y-114485135D01*
X143882020Y-116827190D01*
X143874408Y-116841131D01*
X143144357Y-116841131D01*
X143145592Y-116838869D01*
X143145461Y-116837034D01*
X143141210Y-116830420D01*
X140796790Y-114486001D01*
X140783714Y-114478861D01*
X140773346Y-114486318D01*
X140589147Y-114713785D01*
X140585259Y-114719136D01*
X140382891Y-115030756D01*
X140379594Y-115036466D01*
X140210903Y-115367540D01*
X140208221Y-115373565D01*
X140075065Y-115720447D01*
X140073024Y-115726729D01*
X139976856Y-116085636D01*
X139975485Y-116092086D01*
X139917355Y-116459096D01*
X139916669Y-116465634D01*
X139897222Y-116836699D01*
X139897222Y-116843301D01*
X136755483Y-116843301D01*
X136755488Y-116841820D01*
X136755488Y-116841808D01*
X136755494Y-116840000D01*
X136735575Y-116472209D01*
X136676052Y-116108720D01*
X136577620Y-115753786D01*
X136574443Y-115745801D01*
X136442690Y-115414722D01*
X136441431Y-115411558D01*
X136276001Y-115099116D01*
X136270677Y-115089060D01*
X136270673Y-115089053D01*
X136269078Y-115086041D01*
X136062578Y-114781041D01*
X135824346Y-114500128D01*
X135557168Y-114246586D01*
X135384219Y-114114834D01*
X141148802Y-114114834D01*
X141155135Y-114125924D01*
X143497190Y-116467980D01*
X143511131Y-116475592D01*
X143512966Y-116475461D01*
X143519580Y-116471210D01*
X145863999Y-114126790D01*
X145871139Y-114113714D01*
X145863682Y-114103346D01*
X145636200Y-113919135D01*
X145630885Y-113915273D01*
X145319227Y-113712879D01*
X145313550Y-113709602D01*
X144982460Y-113540903D01*
X144976435Y-113538221D01*
X144629553Y-113405065D01*
X144623271Y-113403024D01*
X144264364Y-113306856D01*
X144257914Y-113305485D01*
X143890904Y-113247355D01*
X143884366Y-113246669D01*
X143513301Y-113227222D01*
X143506699Y-113227222D01*
X143135634Y-113246669D01*
X143129096Y-113247355D01*
X142762086Y-113305485D01*
X142755636Y-113306856D01*
X142396729Y-113403024D01*
X142390447Y-113405065D01*
X142043565Y-113538221D01*
X142037540Y-113540903D01*
X141706466Y-113709594D01*
X141700756Y-113712891D01*
X141389136Y-113915259D01*
X141383785Y-113919147D01*
X141157270Y-114102576D01*
X141148802Y-114114834D01*
X135384219Y-114114834D01*
X135264172Y-114023382D01*
X135261260Y-114021625D01*
X135261255Y-114021622D01*
X134951705Y-113834889D01*
X134951696Y-113834884D01*
X134948783Y-113833127D01*
X134945693Y-113831693D01*
X134945688Y-113831690D01*
X134689730Y-113712879D01*
X134614691Y-113678047D01*
X134611466Y-113676955D01*
X134611460Y-113676953D01*
X134269032Y-113561048D01*
X134269027Y-113561047D01*
X134265805Y-113559956D01*
X134031920Y-113508104D01*
X133909536Y-113480972D01*
X133909532Y-113480971D01*
X133906206Y-113480234D01*
X133756624Y-113463720D01*
X133543482Y-113440189D01*
X133543475Y-113440189D01*
X133540100Y-113439816D01*
X133536701Y-113439810D01*
X133536700Y-113439810D01*
X133362979Y-113439507D01*
X133171770Y-113439173D01*
X133034556Y-113453837D01*
X132808910Y-113477951D01*
X132808904Y-113477952D01*
X132805526Y-113478313D01*
X132445650Y-113556779D01*
X132096354Y-113673652D01*
X132093261Y-113675075D01*
X132093260Y-113675075D01*
X132083674Y-113679484D01*
X131761723Y-113827565D01*
X131758789Y-113829321D01*
X131758787Y-113829322D01*
X131740354Y-113840354D01*
X131445672Y-114016718D01*
X131151898Y-114238897D01*
X130883837Y-114491505D01*
X130644626Y-114771585D01*
X130555613Y-114902073D01*
X130535588Y-114931429D01*
X130480677Y-114976431D01*
X130410152Y-114984602D01*
X130346405Y-114953348D01*
X130309675Y-114892591D01*
X130305500Y-114860424D01*
X130305500Y-111004501D01*
X130305412Y-110999586D01*
X130305315Y-110994141D01*
X130305314Y-110994111D01*
X130305305Y-110993597D01*
X130305235Y-110991620D01*
X130305005Y-110985195D01*
X130305005Y-110985187D01*
X130304984Y-110984609D01*
X130304401Y-110973720D01*
X130285008Y-110702562D01*
X130282675Y-110680870D01*
X130280117Y-110663082D01*
X130276246Y-110641628D01*
X130219420Y-110380403D01*
X130214030Y-110359282D01*
X130208967Y-110342037D01*
X130208606Y-110340952D01*
X130202428Y-110322389D01*
X130202419Y-110322363D01*
X130202077Y-110321336D01*
X130108649Y-110070846D01*
X130100300Y-110050690D01*
X130092834Y-110034343D01*
X130083076Y-110014849D01*
X130079463Y-110008231D01*
X129955514Y-109781238D01*
X129954955Y-109780214D01*
X129943827Y-109761459D01*
X129934108Y-109746336D01*
X129927477Y-109736785D01*
X129922295Y-109729322D01*
X129922292Y-109729318D01*
X129921670Y-109728422D01*
X129761462Y-109514410D01*
X129747773Y-109497424D01*
X129736000Y-109483838D01*
X129721145Y-109467883D01*
X129532117Y-109278855D01*
X129516162Y-109264000D01*
X129502576Y-109252227D01*
X129485590Y-109238538D01*
X129271578Y-109078330D01*
X129253664Y-109065892D01*
X129238541Y-109056173D01*
X129219786Y-109045045D01*
X129164658Y-109014943D01*
X128986139Y-108917463D01*
X128986118Y-108917452D01*
X128985151Y-108916924D01*
X128965657Y-108907166D01*
X128949310Y-108899700D01*
X128948294Y-108899279D01*
X128948273Y-108899270D01*
X128930186Y-108891778D01*
X128930163Y-108891769D01*
X128929154Y-108891351D01*
X128928098Y-108890957D01*
X128679726Y-108798319D01*
X128679715Y-108798315D01*
X128678661Y-108797922D01*
X128674235Y-108796449D01*
X128659056Y-108791397D01*
X128659035Y-108791390D01*
X128657958Y-108791032D01*
X128656848Y-108790706D01*
X128656838Y-108790703D01*
X128641793Y-108786286D01*
X128641783Y-108786283D01*
X128640716Y-108785970D01*
X128639661Y-108785701D01*
X128639651Y-108785698D01*
X128620651Y-108780849D01*
X128619597Y-108780580D01*
X128358372Y-108723754D01*
X128336913Y-108719882D01*
X128319130Y-108717325D01*
X128318042Y-108717208D01*
X128298555Y-108715112D01*
X128298529Y-108715110D01*
X128297444Y-108714993D01*
X128180011Y-108706594D01*
X135486846Y-108706594D01*
X135487550Y-108733468D01*
X135507127Y-109107028D01*
X135509233Y-109133804D01*
X135510611Y-109146921D01*
X135514123Y-109173600D01*
X135514248Y-109174389D01*
X135514250Y-109174403D01*
X135530033Y-109274052D01*
X135572643Y-109543080D01*
X135577542Y-109569514D01*
X135580284Y-109582414D01*
X135586560Y-109608554D01*
X135586764Y-109609316D01*
X135586770Y-109609339D01*
X135632287Y-109779210D01*
X135683380Y-109969892D01*
X135691022Y-109995688D01*
X135695098Y-110008231D01*
X135704066Y-110033554D01*
X135704355Y-110034307D01*
X135704358Y-110034315D01*
X135837627Y-110381490D01*
X135838121Y-110382778D01*
X135848400Y-110407597D01*
X135853764Y-110419646D01*
X135865346Y-110443929D01*
X136035178Y-110777244D01*
X136048014Y-110800885D01*
X136048384Y-110801526D01*
X136048402Y-110801558D01*
X136054184Y-110811572D01*
X136054204Y-110811606D01*
X136054609Y-110812307D01*
X136068648Y-110835214D01*
X136272386Y-111148943D01*
X136272842Y-111149606D01*
X136272855Y-111149626D01*
X136278595Y-111157977D01*
X136287622Y-111171112D01*
X136295374Y-111181781D01*
X136311731Y-111203096D01*
X136547145Y-111493808D01*
X136547676Y-111494429D01*
X136547692Y-111494449D01*
X136564084Y-111513642D01*
X136564607Y-111514254D01*
X136573432Y-111524055D01*
X136580285Y-111531276D01*
X136591365Y-111542952D01*
X136591387Y-111542975D01*
X136591935Y-111543552D01*
X136856448Y-111808065D01*
X136857025Y-111808613D01*
X136857048Y-111808635D01*
X136861882Y-111813222D01*
X136875945Y-111826568D01*
X136885746Y-111835393D01*
X136886344Y-111835904D01*
X136886358Y-111835916D01*
X136905551Y-111852308D01*
X136905571Y-111852324D01*
X136906192Y-111852855D01*
X137196904Y-112088269D01*
X137218219Y-112104626D01*
X137228888Y-112112378D01*
X137242023Y-112121405D01*
X137250374Y-112127145D01*
X137250394Y-112127158D01*
X137251057Y-112127614D01*
X137564786Y-112331352D01*
X137587693Y-112345391D01*
X137588394Y-112345796D01*
X137588428Y-112345816D01*
X137598442Y-112351598D01*
X137598474Y-112351616D01*
X137599115Y-112351986D01*
X137622756Y-112364822D01*
X137956071Y-112534654D01*
X137980354Y-112546236D01*
X137992403Y-112551600D01*
X137993168Y-112551917D01*
X137993187Y-112551925D01*
X138016504Y-112561582D01*
X138016528Y-112561592D01*
X138017222Y-112561879D01*
X138017926Y-112562149D01*
X138017958Y-112562162D01*
X138302715Y-112671470D01*
X138366446Y-112695934D01*
X138391769Y-112704902D01*
X138399159Y-112707303D01*
X138403545Y-112708729D01*
X138403562Y-112708734D01*
X138404312Y-112708978D01*
X138405078Y-112709205D01*
X138405104Y-112709213D01*
X138417210Y-112712799D01*
X138430108Y-112716620D01*
X138492348Y-112733297D01*
X138790661Y-112813230D01*
X138790684Y-112813236D01*
X138791446Y-112813440D01*
X138817586Y-112819716D01*
X138830486Y-112822458D01*
X138856920Y-112827357D01*
X139226400Y-112885877D01*
X139227179Y-112885980D01*
X139227196Y-112885982D01*
X139248082Y-112888731D01*
X139253075Y-112889388D01*
X139253843Y-112889469D01*
X139253871Y-112889472D01*
X139265353Y-112890678D01*
X139266191Y-112890766D01*
X139282410Y-112892042D01*
X139292128Y-112892807D01*
X139292152Y-112892809D01*
X139292971Y-112892873D01*
X139494566Y-112903438D01*
X139658834Y-112912047D01*
X139658840Y-112912047D01*
X139669803Y-112912622D01*
X139670073Y-112912633D01*
X139670124Y-112912635D01*
X139676867Y-112912900D01*
X139683231Y-112913150D01*
X139689825Y-112913323D01*
X139690171Y-112913328D01*
X139690194Y-112913328D01*
X139702899Y-112913495D01*
X139702925Y-112913495D01*
X139703293Y-112913500D01*
X141296707Y-112913500D01*
X141297075Y-112913495D01*
X141297101Y-112913495D01*
X141309806Y-112913328D01*
X141309829Y-112913328D01*
X141310175Y-112913323D01*
X141316769Y-112913150D01*
X141330175Y-112912623D01*
X141330599Y-112912601D01*
X141330660Y-112912598D01*
X141526065Y-112902357D01*
X141707029Y-112892873D01*
X141707848Y-112892809D01*
X141707872Y-112892807D01*
X141717590Y-112892042D01*
X141733809Y-112890766D01*
X141734647Y-112890678D01*
X141746129Y-112889472D01*
X141746157Y-112889469D01*
X141746925Y-112889388D01*
X141751918Y-112888731D01*
X141772804Y-112885982D01*
X141772821Y-112885980D01*
X141773600Y-112885877D01*
X142143080Y-112827357D01*
X142169514Y-112822458D01*
X142182414Y-112819716D01*
X142208554Y-112813440D01*
X142209316Y-112813236D01*
X142209339Y-112813230D01*
X142507652Y-112733297D01*
X142569892Y-112716620D01*
X142582790Y-112712799D01*
X142594896Y-112709213D01*
X142594922Y-112709205D01*
X142595688Y-112708978D01*
X142596438Y-112708734D01*
X142596455Y-112708729D01*
X142600841Y-112707303D01*
X142608231Y-112704902D01*
X142633554Y-112695934D01*
X142697285Y-112671470D01*
X142982042Y-112562162D01*
X142982074Y-112562149D01*
X142982778Y-112561879D01*
X142983472Y-112561592D01*
X142983496Y-112561582D01*
X143006813Y-112551925D01*
X143006832Y-112551917D01*
X143007597Y-112551600D01*
X143019646Y-112546236D01*
X143043929Y-112534654D01*
X143377244Y-112364822D01*
X143400885Y-112351986D01*
X143401526Y-112351616D01*
X143401558Y-112351598D01*
X143411572Y-112345816D01*
X143411606Y-112345796D01*
X143412307Y-112345391D01*
X143435214Y-112331352D01*
X143748943Y-112127614D01*
X143749606Y-112127158D01*
X143749626Y-112127145D01*
X143757977Y-112121405D01*
X143771112Y-112112378D01*
X143781781Y-112104626D01*
X143803096Y-112088269D01*
X144093808Y-111852855D01*
X144094429Y-111852324D01*
X144094449Y-111852308D01*
X144113642Y-111835916D01*
X144113656Y-111835904D01*
X144114254Y-111835393D01*
X144124055Y-111826568D01*
X144138118Y-111813222D01*
X144142952Y-111808635D01*
X144142975Y-111808613D01*
X144143552Y-111808065D01*
X144408065Y-111543552D01*
X144408613Y-111542975D01*
X144408635Y-111542952D01*
X144419715Y-111531276D01*
X144426568Y-111524055D01*
X144435393Y-111514254D01*
X144435916Y-111513642D01*
X144452308Y-111494449D01*
X144452324Y-111494429D01*
X144452855Y-111493808D01*
X144688269Y-111203096D01*
X144704626Y-111181781D01*
X144712378Y-111171112D01*
X144721405Y-111157977D01*
X144727145Y-111149626D01*
X144727158Y-111149606D01*
X144727614Y-111148943D01*
X144931352Y-110835214D01*
X144945391Y-110812307D01*
X144945796Y-110811606D01*
X144945816Y-110811572D01*
X144951598Y-110801558D01*
X144951616Y-110801526D01*
X144951986Y-110800885D01*
X144964822Y-110777244D01*
X145134654Y-110443929D01*
X145146236Y-110419646D01*
X145151600Y-110407597D01*
X145161879Y-110382778D01*
X145162374Y-110381490D01*
X145295642Y-110034315D01*
X145295645Y-110034307D01*
X145295934Y-110033554D01*
X145304902Y-110008231D01*
X145308978Y-109995688D01*
X145316620Y-109969892D01*
X145367713Y-109779210D01*
X145413230Y-109609339D01*
X145413236Y-109609316D01*
X145413440Y-109608554D01*
X145419716Y-109582414D01*
X145422458Y-109569514D01*
X145427357Y-109543080D01*
X145469967Y-109274052D01*
X145485750Y-109174403D01*
X145485752Y-109174389D01*
X145485877Y-109173600D01*
X145489389Y-109146921D01*
X145490767Y-109133804D01*
X145492873Y-109107028D01*
X145512450Y-108733468D01*
X145513154Y-108706594D01*
X145513154Y-108693406D01*
X145512450Y-108666532D01*
X145492873Y-108292972D01*
X145491918Y-108280827D01*
X145490835Y-108267058D01*
X145490834Y-108267043D01*
X145490767Y-108266196D01*
X145489389Y-108253079D01*
X145488562Y-108246793D01*
X145485986Y-108227226D01*
X145485983Y-108227206D01*
X145485877Y-108226400D01*
X145427357Y-107856920D01*
X145422458Y-107830486D01*
X145419716Y-107817586D01*
X145413440Y-107791446D01*
X145410058Y-107778822D01*
X145357332Y-107582047D01*
X145316620Y-107430108D01*
X145308978Y-107404312D01*
X145304902Y-107391769D01*
X145295934Y-107366446D01*
X145286252Y-107341224D01*
X145162162Y-107017958D01*
X145162149Y-107017926D01*
X145161879Y-107017222D01*
X145151600Y-106992403D01*
X145146236Y-106980354D01*
X145134654Y-106956071D01*
X144964822Y-106622756D01*
X144951986Y-106599115D01*
X144951616Y-106598474D01*
X144951598Y-106598442D01*
X144945816Y-106588428D01*
X144945796Y-106588394D01*
X144945391Y-106587693D01*
X144931352Y-106564786D01*
X144727614Y-106251057D01*
X144712378Y-106228888D01*
X144704626Y-106218219D01*
X144688269Y-106196904D01*
X144452855Y-105906192D01*
X144435393Y-105885746D01*
X144426568Y-105875945D01*
X144419715Y-105868724D01*
X144408635Y-105857048D01*
X144408613Y-105857025D01*
X144408065Y-105856448D01*
X144143552Y-105591935D01*
X144142975Y-105591387D01*
X144142952Y-105591365D01*
X144124650Y-105573997D01*
X144124055Y-105573432D01*
X144114254Y-105564607D01*
X144113642Y-105564084D01*
X144094449Y-105547692D01*
X144094429Y-105547676D01*
X144093808Y-105547145D01*
X143803096Y-105311731D01*
X143781781Y-105295374D01*
X143771112Y-105287622D01*
X143757977Y-105278595D01*
X143749626Y-105272855D01*
X143749606Y-105272842D01*
X143748943Y-105272386D01*
X143435214Y-105068648D01*
X143412307Y-105054609D01*
X143411606Y-105054204D01*
X143411572Y-105054184D01*
X143401558Y-105048402D01*
X143401526Y-105048384D01*
X143400885Y-105048014D01*
X143377244Y-105035178D01*
X143043929Y-104865346D01*
X143019646Y-104853764D01*
X143007597Y-104848400D01*
X143006832Y-104848083D01*
X143006813Y-104848075D01*
X142983496Y-104838418D01*
X142983472Y-104838408D01*
X142982778Y-104838121D01*
X142982074Y-104837851D01*
X142982042Y-104837838D01*
X142634315Y-104704358D01*
X142634307Y-104704355D01*
X142633554Y-104704066D01*
X142608231Y-104695098D01*
X142600841Y-104692697D01*
X142596455Y-104691271D01*
X142596438Y-104691266D01*
X142595688Y-104691022D01*
X142594922Y-104690795D01*
X142594896Y-104690787D01*
X142582790Y-104687201D01*
X142569892Y-104683380D01*
X142363326Y-104628031D01*
X142209339Y-104586770D01*
X142209316Y-104586764D01*
X142208554Y-104586560D01*
X142182414Y-104580284D01*
X142169514Y-104577542D01*
X142143080Y-104572643D01*
X141773600Y-104514123D01*
X141772821Y-104514020D01*
X141772804Y-104514018D01*
X141747692Y-104510713D01*
X141747696Y-104510713D01*
X141746925Y-104510612D01*
X141746157Y-104510531D01*
X141746129Y-104510528D01*
X141734647Y-104509322D01*
X141734644Y-104509322D01*
X141733809Y-104509234D01*
X141717590Y-104507958D01*
X141707872Y-104507193D01*
X141707848Y-104507191D01*
X141707029Y-104507127D01*
X141526065Y-104497643D01*
X141330660Y-104487402D01*
X141330599Y-104487399D01*
X141330175Y-104487377D01*
X141316769Y-104486850D01*
X141310175Y-104486677D01*
X141309829Y-104486672D01*
X141309806Y-104486672D01*
X141297101Y-104486505D01*
X141297075Y-104486505D01*
X141296707Y-104486500D01*
X139703293Y-104486500D01*
X139702925Y-104486505D01*
X139702899Y-104486505D01*
X139690194Y-104486672D01*
X139690171Y-104486672D01*
X139689825Y-104486677D01*
X139683231Y-104486850D01*
X139669825Y-104487377D01*
X139669401Y-104487399D01*
X139669340Y-104487402D01*
X139473935Y-104497643D01*
X139292971Y-104507127D01*
X139292152Y-104507191D01*
X139292128Y-104507193D01*
X139282410Y-104507958D01*
X139266191Y-104509234D01*
X139265356Y-104509322D01*
X139265353Y-104509322D01*
X139253871Y-104510528D01*
X139253843Y-104510531D01*
X139253075Y-104510612D01*
X139252304Y-104510713D01*
X139252308Y-104510713D01*
X139227196Y-104514018D01*
X139227179Y-104514020D01*
X139226400Y-104514123D01*
X138856920Y-104572643D01*
X138830486Y-104577542D01*
X138817586Y-104580284D01*
X138791446Y-104586560D01*
X138790684Y-104586764D01*
X138790661Y-104586770D01*
X138636674Y-104628031D01*
X138430108Y-104683380D01*
X138417210Y-104687201D01*
X138405104Y-104690787D01*
X138405078Y-104690795D01*
X138404312Y-104691022D01*
X138403562Y-104691266D01*
X138403545Y-104691271D01*
X138399159Y-104692697D01*
X138391769Y-104695098D01*
X138366446Y-104704066D01*
X138365693Y-104704355D01*
X138365685Y-104704358D01*
X138017958Y-104837838D01*
X138017926Y-104837851D01*
X138017222Y-104838121D01*
X138016528Y-104838408D01*
X138016504Y-104838418D01*
X137993187Y-104848075D01*
X137993168Y-104848083D01*
X137992403Y-104848400D01*
X137980354Y-104853764D01*
X137956071Y-104865346D01*
X137622756Y-105035178D01*
X137599115Y-105048014D01*
X137598474Y-105048384D01*
X137598442Y-105048402D01*
X137588428Y-105054184D01*
X137588394Y-105054204D01*
X137587693Y-105054609D01*
X137564786Y-105068648D01*
X137251057Y-105272386D01*
X137250394Y-105272842D01*
X137250374Y-105272855D01*
X137242023Y-105278595D01*
X137228888Y-105287622D01*
X137218219Y-105295374D01*
X137196904Y-105311731D01*
X136906192Y-105547145D01*
X136905571Y-105547676D01*
X136905551Y-105547692D01*
X136886358Y-105564084D01*
X136885746Y-105564607D01*
X136875945Y-105573432D01*
X136875350Y-105573997D01*
X136857048Y-105591365D01*
X136857025Y-105591387D01*
X136856448Y-105591935D01*
X136591935Y-105856448D01*
X136591387Y-105857025D01*
X136591365Y-105857048D01*
X136580285Y-105868724D01*
X136573432Y-105875945D01*
X136564607Y-105885746D01*
X136547145Y-105906192D01*
X136311731Y-106196904D01*
X136295374Y-106218219D01*
X136287622Y-106228888D01*
X136272386Y-106251057D01*
X136068648Y-106564786D01*
X136054609Y-106587693D01*
X136054204Y-106588394D01*
X136054184Y-106588428D01*
X136048402Y-106598442D01*
X136048384Y-106598474D01*
X136048014Y-106599115D01*
X136035178Y-106622756D01*
X135865346Y-106956071D01*
X135853764Y-106980354D01*
X135848400Y-106992403D01*
X135838121Y-107017222D01*
X135837851Y-107017926D01*
X135837838Y-107017958D01*
X135713748Y-107341224D01*
X135704066Y-107366446D01*
X135695098Y-107391769D01*
X135691022Y-107404312D01*
X135683380Y-107430108D01*
X135642668Y-107582047D01*
X135589943Y-107778822D01*
X135586560Y-107791446D01*
X135580284Y-107817586D01*
X135577542Y-107830486D01*
X135572643Y-107856920D01*
X135514123Y-108226400D01*
X135514017Y-108227206D01*
X135514014Y-108227226D01*
X135511438Y-108246793D01*
X135510611Y-108253079D01*
X135509233Y-108266196D01*
X135509166Y-108267043D01*
X135509165Y-108267058D01*
X135508082Y-108280827D01*
X135507127Y-108292972D01*
X135487550Y-108666532D01*
X135486846Y-108693406D01*
X135486846Y-108706594D01*
X128180011Y-108706594D01*
X128026281Y-108695599D01*
X128015391Y-108695016D01*
X128014813Y-108694995D01*
X128014805Y-108694995D01*
X128006939Y-108694714D01*
X128006923Y-108694714D01*
X128006403Y-108694695D01*
X128005889Y-108694686D01*
X128005859Y-108694685D01*
X128000414Y-108694588D01*
X127995499Y-108694500D01*
X127004501Y-108694500D01*
X126999586Y-108694588D01*
X126994141Y-108694685D01*
X126994111Y-108694686D01*
X126993597Y-108694695D01*
X126993077Y-108694714D01*
X126993061Y-108694714D01*
X126985195Y-108694995D01*
X126985187Y-108694995D01*
X126984609Y-108695016D01*
X126973719Y-108695599D01*
X126702556Y-108714993D01*
X126701471Y-108715110D01*
X126701445Y-108715112D01*
X126681958Y-108717208D01*
X126680870Y-108717325D01*
X126663087Y-108719882D01*
X126641628Y-108723754D01*
X126380403Y-108780580D01*
X126379349Y-108780849D01*
X126360349Y-108785698D01*
X126360339Y-108785701D01*
X126359284Y-108785970D01*
X126358217Y-108786283D01*
X126358207Y-108786286D01*
X126343162Y-108790703D01*
X126343152Y-108790706D01*
X126342042Y-108791032D01*
X126340965Y-108791390D01*
X126340944Y-108791397D01*
X126325765Y-108796449D01*
X126321339Y-108797922D01*
X126320285Y-108798315D01*
X126320274Y-108798319D01*
X126071902Y-108890957D01*
X126070846Y-108891351D01*
X126069837Y-108891769D01*
X126069814Y-108891778D01*
X126051727Y-108899270D01*
X126051706Y-108899279D01*
X126050690Y-108899700D01*
X126034343Y-108907166D01*
X126014849Y-108916924D01*
X126013882Y-108917452D01*
X126013861Y-108917463D01*
X125835342Y-109014943D01*
X125780214Y-109045045D01*
X125761459Y-109056173D01*
X125746336Y-109065892D01*
X125728422Y-109078330D01*
X125514410Y-109238538D01*
X125497424Y-109252227D01*
X125483838Y-109264000D01*
X125467883Y-109278855D01*
X125278855Y-109467883D01*
X125264000Y-109483838D01*
X125252227Y-109497424D01*
X125238538Y-109514410D01*
X125078330Y-109728422D01*
X125077708Y-109729318D01*
X125077705Y-109729322D01*
X125072523Y-109736785D01*
X125065892Y-109746336D01*
X125056173Y-109761459D01*
X125045045Y-109780214D01*
X125044486Y-109781238D01*
X124920538Y-110008231D01*
X124916924Y-110014849D01*
X124907166Y-110034343D01*
X124899700Y-110050690D01*
X124891351Y-110070846D01*
X124797923Y-110321336D01*
X124797581Y-110322363D01*
X124797572Y-110322389D01*
X124791394Y-110340952D01*
X124791033Y-110342037D01*
X124785970Y-110359282D01*
X124780580Y-110380403D01*
X124723754Y-110641628D01*
X124719883Y-110663082D01*
X124717325Y-110680870D01*
X124714992Y-110702562D01*
X124695599Y-110973720D01*
X124695016Y-110984609D01*
X124694995Y-110985187D01*
X124694995Y-110985195D01*
X124694766Y-110991620D01*
X124694695Y-110993597D01*
X124694686Y-110994111D01*
X124694685Y-110994141D01*
X124694588Y-110999586D01*
X124694500Y-111004501D01*
X124694500Y-112238897D01*
X124674498Y-112307018D01*
X124620842Y-112353511D01*
X124597917Y-112361414D01*
X124444364Y-112398280D01*
X124437620Y-112401761D01*
X124437617Y-112401762D01*
X124334891Y-112454783D01*
X124293701Y-112476043D01*
X124287979Y-112481035D01*
X124287977Y-112481036D01*
X124242331Y-112520856D01*
X124165936Y-112587499D01*
X124161569Y-112593713D01*
X124075354Y-112716385D01*
X124068445Y-112726215D01*
X124065686Y-112733291D01*
X124065683Y-112733297D01*
X124055367Y-112759758D01*
X124011987Y-112815960D01*
X123937974Y-112839989D01*
X119729692Y-112839989D01*
X119717807Y-112838661D01*
X119717766Y-112839171D01*
X119708820Y-112838451D01*
X119700064Y-112836470D01*
X119664751Y-112838661D01*
X119647247Y-112839747D01*
X119639444Y-112839989D01*
X119623571Y-112839989D01*
X119613459Y-112841437D01*
X119603405Y-112842467D01*
X119575414Y-112844204D01*
X119556973Y-112845348D01*
X119548529Y-112848396D01*
X119544817Y-112849165D01*
X119530112Y-112852832D01*
X119526484Y-112853893D01*
X119517593Y-112855166D01*
X119475229Y-112874428D01*
X119465874Y-112878235D01*
X119430568Y-112890980D01*
X119430564Y-112890982D01*
X119422124Y-112894029D01*
X119414876Y-112899324D01*
X119411536Y-112901100D01*
X119398422Y-112908763D01*
X119395250Y-112910792D01*
X119387083Y-112914505D01*
X119380288Y-112920360D01*
X119380285Y-112920362D01*
X119351836Y-112944876D01*
X119343916Y-112951164D01*
X119333175Y-112959011D01*
X119322432Y-112969754D01*
X119315586Y-112976112D01*
X119278474Y-113008089D01*
X119273591Y-113015623D01*
X119267692Y-113022385D01*
X119267687Y-113022381D01*
X119258711Y-113033475D01*
X118548197Y-113743989D01*
X118485885Y-113778015D01*
X118415070Y-113772950D01*
X118400147Y-113766250D01*
X118352881Y-113741224D01*
X118188441Y-113699919D01*
X118180843Y-113699879D01*
X118180841Y-113699879D01*
X118103668Y-113699475D01*
X118018895Y-113699031D01*
X118011508Y-113700805D01*
X118011504Y-113700805D01*
X117868162Y-113735220D01*
X117854032Y-113738612D01*
X117847288Y-113742093D01*
X117847285Y-113742094D01*
X117710117Y-113812892D01*
X117703369Y-113816375D01*
X117697647Y-113821367D01*
X117697645Y-113821368D01*
X117671119Y-113844508D01*
X117575604Y-113927831D01*
X117534475Y-113986351D01*
X117507001Y-114025444D01*
X117478113Y-114066547D01*
X117416524Y-114224513D01*
X117415532Y-114232046D01*
X117415532Y-114232047D01*
X117414322Y-114241242D01*
X117394394Y-114392611D01*
X117412999Y-114561135D01*
X117471266Y-114720356D01*
X117565830Y-114861083D01*
X117571442Y-114866190D01*
X117571445Y-114866193D01*
X117685612Y-114970077D01*
X117685616Y-114970080D01*
X117691233Y-114975191D01*
X117697906Y-114978814D01*
X117697910Y-114978817D01*
X117833558Y-115052467D01*
X117833560Y-115052468D01*
X117840235Y-115056092D01*
X117847584Y-115058020D01*
X117996883Y-115097188D01*
X117996885Y-115097188D01*
X118004233Y-115099116D01*
X118090609Y-115100473D01*
X118166161Y-115101660D01*
X118166164Y-115101660D01*
X118173760Y-115101779D01*
X118181165Y-115100083D01*
X118181166Y-115100083D01*
X118273827Y-115078861D01*
X118339029Y-115063928D01*
X118490498Y-114987747D01*
X118496271Y-114982816D01*
X118496276Y-114982813D01*
X118557596Y-114930441D01*
X118622386Y-114901410D01*
X118630466Y-114900571D01*
X118631463Y-114900500D01*
X118635940Y-114900500D01*
X118640373Y-114899865D01*
X118640375Y-114899865D01*
X118644132Y-114899327D01*
X118646052Y-114899052D01*
X118656106Y-114898022D01*
X118684097Y-114896285D01*
X118702538Y-114895141D01*
X118710982Y-114892093D01*
X118714694Y-114891324D01*
X118729399Y-114887657D01*
X118733027Y-114886596D01*
X118741918Y-114885323D01*
X118784282Y-114866061D01*
X118793637Y-114862254D01*
X118828943Y-114849509D01*
X118828947Y-114849507D01*
X118837387Y-114846460D01*
X118844635Y-114841165D01*
X118847975Y-114839389D01*
X118861089Y-114831726D01*
X118864261Y-114829697D01*
X118872428Y-114825984D01*
X118879223Y-114820129D01*
X118879226Y-114820127D01*
X118885055Y-114815104D01*
X118949718Y-114785792D01*
X119019963Y-114796092D01*
X119073489Y-114842735D01*
X119093301Y-114910911D01*
X119071390Y-114981561D01*
X119007062Y-115075862D01*
X118833574Y-115400776D01*
X118832299Y-115403948D01*
X118832297Y-115403952D01*
X118705068Y-115720447D01*
X118696192Y-115742526D01*
X118695273Y-115745794D01*
X118695271Y-115745801D01*
X118597442Y-116093837D01*
X118596521Y-116097115D01*
X118595959Y-116100472D01*
X118595959Y-116100473D01*
X118594015Y-116112093D01*
X118535729Y-116460393D01*
X118514527Y-116828113D01*
X118533162Y-117195971D01*
X118533699Y-117199326D01*
X118533700Y-117199332D01*
X118574038Y-117451170D01*
X118591416Y-117559665D01*
X118688608Y-117914941D01*
X118823602Y-118257642D01*
X118994817Y-118583759D01*
X118996718Y-118586588D01*
X118996724Y-118586598D01*
X119144653Y-118806738D01*
X119200252Y-118889477D01*
X119437502Y-119171221D01*
X119468871Y-119201198D01*
X119701329Y-119423341D01*
X119701336Y-119423347D01*
X119703792Y-119425694D01*
X119996008Y-119649919D01*
X120310731Y-119841274D01*
X120644279Y-119997519D01*
X120647497Y-119998621D01*
X120647500Y-119998622D01*
X120989528Y-120115725D01*
X120989536Y-120115727D01*
X120992751Y-120116828D01*
X121352070Y-120197804D01*
X121435002Y-120207253D01*
X121714650Y-120239115D01*
X121714658Y-120239115D01*
X121718033Y-120239500D01*
X121721437Y-120239518D01*
X121721440Y-120239518D01*
X121921074Y-120240563D01*
X122086358Y-120241428D01*
X122089744Y-120241078D01*
X122089746Y-120241078D01*
X122449345Y-120203918D01*
X122449354Y-120203917D01*
X122452737Y-120203567D01*
X122456070Y-120202853D01*
X122456073Y-120202852D01*
X122633488Y-120164817D01*
X122812884Y-120126358D01*
X123162586Y-120010705D01*
X123497752Y-119857961D01*
X123654776Y-119764727D01*
X123811516Y-119671662D01*
X123811521Y-119671659D01*
X123814461Y-119669913D01*
X123841091Y-119649919D01*
X124106276Y-119450812D01*
X124109009Y-119448760D01*
X124377950Y-119197089D01*
X124472975Y-119086613D01*
X124532561Y-119048012D01*
X124603557Y-119047753D01*
X124663423Y-119085919D01*
X124693151Y-119150392D01*
X124694500Y-119168778D01*
X124694500Y-125495499D01*
X124694695Y-125506403D01*
X124695016Y-125515391D01*
X124695599Y-125526280D01*
X124714992Y-125797438D01*
X124717325Y-125819130D01*
X124719883Y-125836918D01*
X124723754Y-125858372D01*
X124780579Y-126119593D01*
X124785968Y-126140709D01*
X124791031Y-126157955D01*
X124797922Y-126178661D01*
X124891351Y-126429154D01*
X124899700Y-126449310D01*
X124907166Y-126465657D01*
X124916924Y-126485151D01*
X125045045Y-126719786D01*
X125056173Y-126738541D01*
X125065892Y-126753664D01*
X125078330Y-126771578D01*
X125238538Y-126985590D01*
X125252227Y-127002576D01*
X125264000Y-127016162D01*
X125278855Y-127032117D01*
X125467883Y-127221145D01*
X125483838Y-127236000D01*
X125497424Y-127247773D01*
X125514410Y-127261462D01*
X125728422Y-127421670D01*
X125746336Y-127434108D01*
X125761459Y-127443827D01*
X125780214Y-127454955D01*
X125781238Y-127455514D01*
X126013861Y-127582537D01*
X126013882Y-127582548D01*
X126014849Y-127583076D01*
X126034343Y-127592834D01*
X126050690Y-127600300D01*
X126051706Y-127600721D01*
X126051727Y-127600730D01*
X126069814Y-127608222D01*
X126069837Y-127608231D01*
X126070846Y-127608649D01*
X126071895Y-127609040D01*
X126071902Y-127609043D01*
X126320274Y-127701681D01*
X126320285Y-127701685D01*
X126321339Y-127702078D01*
X126322421Y-127702438D01*
X126340944Y-127708603D01*
X126340965Y-127708610D01*
X126342042Y-127708968D01*
X126343152Y-127709294D01*
X126343162Y-127709297D01*
X126358207Y-127713714D01*
X126358217Y-127713717D01*
X126359284Y-127714030D01*
X126360339Y-127714299D01*
X126360349Y-127714302D01*
X126379341Y-127719149D01*
X126380403Y-127719420D01*
X126641628Y-127776246D01*
X126663087Y-127780118D01*
X126680870Y-127782675D01*
X126681958Y-127782792D01*
X126701445Y-127784888D01*
X126701471Y-127784890D01*
X126702556Y-127785007D01*
X126973719Y-127804401D01*
X126984609Y-127804984D01*
X126985187Y-127805005D01*
X126985195Y-127805005D01*
X126993061Y-127805286D01*
X126993077Y-127805286D01*
X126993597Y-127805305D01*
X126994111Y-127805314D01*
X126994141Y-127805315D01*
X126999586Y-127805412D01*
X127004501Y-127805500D01*
X148713264Y-127805500D01*
X148774925Y-127821619D01*
X149107992Y-128008527D01*
X149110906Y-128009794D01*
X149110910Y-128009796D01*
X149255483Y-128072658D01*
X149461107Y-128162066D01*
X149827931Y-128279134D01*
X149971353Y-128309358D01*
X150201582Y-128357875D01*
X150201592Y-128357877D01*
X150204707Y-128358533D01*
X150207870Y-128358871D01*
X150207876Y-128358872D01*
X150584411Y-128399113D01*
X150584420Y-128399114D01*
X150587578Y-128399451D01*
X150590764Y-128399468D01*
X150590770Y-128399468D01*
X150767250Y-128400392D01*
X150972624Y-128401467D01*
X151117167Y-128387549D01*
X151352737Y-128364866D01*
X151352742Y-128364865D01*
X151355902Y-128364561D01*
X151359022Y-128363938D01*
X151359026Y-128363937D01*
X151730361Y-128289737D01*
X151730360Y-128289737D01*
X151733489Y-128289112D01*
X151736525Y-128288178D01*
X151736533Y-128288176D01*
X152098476Y-128176827D01*
X152098479Y-128176826D01*
X152101518Y-128175891D01*
X152104446Y-128174654D01*
X152104452Y-128174652D01*
X152263869Y-128107312D01*
X152456221Y-128026059D01*
X152459024Y-128024525D01*
X152459029Y-128024522D01*
X152604446Y-127944908D01*
X152793968Y-127841148D01*
X153111298Y-127623053D01*
X153113737Y-127620985D01*
X153113743Y-127620980D01*
X153402525Y-127376076D01*
X153402533Y-127376068D01*
X153404965Y-127374006D01*
X153407173Y-127371711D01*
X153407181Y-127371704D01*
X153669745Y-127098859D01*
X153669747Y-127098856D01*
X153671960Y-127096557D01*
X153723122Y-127031307D01*
X153907576Y-126796064D01*
X153907579Y-126796059D01*
X153909550Y-126793546D01*
X153947444Y-126733603D01*
X153966997Y-126702674D01*
X154020305Y-126655782D01*
X154090501Y-126645154D01*
X154155300Y-126674165D01*
X154194128Y-126733603D01*
X154199500Y-126770002D01*
X154199500Y-132874000D01*
X154179498Y-132942121D01*
X154125842Y-132988614D01*
X154073500Y-133000000D01*
X152932387Y-133000000D01*
X152864266Y-132979998D01*
X152817773Y-132926342D01*
X152813758Y-132916004D01*
X152813343Y-132914306D01*
X152709801Y-132658674D01*
X152707500Y-132654744D01*
X152707497Y-132654738D01*
X152572745Y-132424597D01*
X152572740Y-132424590D01*
X152570442Y-132420665D01*
X152452927Y-132273720D01*
X152401036Y-132208834D01*
X152401035Y-132208833D01*
X152398184Y-132205268D01*
X152196636Y-132016992D01*
X151970021Y-131859784D01*
X151792667Y-131771551D01*
X151727173Y-131738968D01*
X151727170Y-131738967D01*
X151723086Y-131736935D01*
X151461002Y-131651020D01*
X151456510Y-131650240D01*
X151193043Y-131604494D01*
X151193035Y-131604493D01*
X151189262Y-131603838D01*
X151179029Y-131603329D01*
X151103695Y-131599578D01*
X151103687Y-131599578D01*
X151102124Y-131599500D01*
X150929930Y-131599500D01*
X150927662Y-131599665D01*
X150927650Y-131599665D01*
X150793397Y-131609406D01*
X150724917Y-131614375D01*
X150720462Y-131615359D01*
X150720459Y-131615359D01*
X150460053Y-131672852D01*
X150460050Y-131672853D01*
X150455597Y-131673836D01*
X150197681Y-131771551D01*
X149956572Y-131905475D01*
X149737322Y-132072802D01*
X149734129Y-132076068D01*
X149734127Y-132076070D01*
X149547717Y-132266758D01*
X149547713Y-132266763D01*
X149544523Y-132270026D01*
X149382213Y-132493016D01*
X149253794Y-132737101D01*
X149252277Y-132741397D01*
X149190634Y-132915956D01*
X149149090Y-132973529D01*
X149083015Y-132999502D01*
X149071824Y-133000000D01*
X146500000Y-133000000D01*
X146500000Y-129000000D01*
X138000000Y-129000000D01*
X138000000Y-133000000D01*
X136931500Y-133000000D01*
X136863379Y-132979998D01*
X136816886Y-132926342D01*
X136805500Y-132874000D01*
X136805500Y-130004861D01*
X136805132Y-129989862D01*
X136804655Y-129980158D01*
X136803552Y-129965213D01*
X136785770Y-129784670D01*
X136781371Y-129755015D01*
X136777585Y-129735981D01*
X136770300Y-129706898D01*
X136719055Y-129537965D01*
X136708954Y-129509735D01*
X136701527Y-129491805D01*
X136688710Y-129464705D01*
X136605494Y-129309019D01*
X136590084Y-129283309D01*
X136579302Y-129267172D01*
X136578383Y-129265933D01*
X136578372Y-129265917D01*
X136562372Y-129244344D01*
X136561440Y-129243087D01*
X136449445Y-129106620D01*
X136429311Y-129084406D01*
X136415594Y-129070689D01*
X136393380Y-129050555D01*
X136256913Y-128938560D01*
X136250688Y-128933943D01*
X136234083Y-128921628D01*
X136234063Y-128921614D01*
X136232828Y-128920698D01*
X136216691Y-128909916D01*
X136190981Y-128894506D01*
X136125952Y-128859747D01*
X136036669Y-128812024D01*
X136036656Y-128812017D01*
X136035295Y-128811290D01*
X136008195Y-128798473D01*
X136006773Y-128797884D01*
X136006764Y-128797880D01*
X135991699Y-128791640D01*
X135990265Y-128791046D01*
X135962034Y-128780944D01*
X135793099Y-128729699D01*
X135764029Y-128722417D01*
X135762515Y-128722116D01*
X135762507Y-128722114D01*
X135754724Y-128720566D01*
X135744999Y-128718631D01*
X135729622Y-128716350D01*
X135716872Y-128714458D01*
X135716854Y-128714456D01*
X135715332Y-128714230D01*
X135534787Y-128696448D01*
X135522514Y-128695542D01*
X135520615Y-128695402D01*
X135520611Y-128695402D01*
X135519842Y-128695345D01*
X135519099Y-128695308D01*
X135519075Y-128695307D01*
X135515746Y-128695144D01*
X135510138Y-128694868D01*
X135509344Y-128694849D01*
X135509330Y-128694848D01*
X135495878Y-128694518D01*
X135495867Y-128694518D01*
X135495139Y-128694500D01*
X128754861Y-128694500D01*
X128754133Y-128694518D01*
X128754122Y-128694518D01*
X128740670Y-128694848D01*
X128740656Y-128694849D01*
X128739862Y-128694868D01*
X128734254Y-128695144D01*
X128730925Y-128695307D01*
X128730901Y-128695308D01*
X128730158Y-128695345D01*
X128729389Y-128695402D01*
X128729385Y-128695402D01*
X128727486Y-128695542D01*
X128715213Y-128696448D01*
X128534668Y-128714230D01*
X128533146Y-128714456D01*
X128533128Y-128714458D01*
X128520378Y-128716350D01*
X128505001Y-128718631D01*
X128495276Y-128720566D01*
X128487493Y-128722114D01*
X128487485Y-128722116D01*
X128485971Y-128722417D01*
X128456901Y-128729699D01*
X128287966Y-128780944D01*
X128259735Y-128791046D01*
X128258301Y-128791640D01*
X128243236Y-128797880D01*
X128243227Y-128797884D01*
X128241805Y-128798473D01*
X128214705Y-128811290D01*
X128213344Y-128812017D01*
X128213331Y-128812024D01*
X128124048Y-128859747D01*
X128059019Y-128894506D01*
X128033309Y-128909916D01*
X128017172Y-128920698D01*
X128015937Y-128921614D01*
X128015917Y-128921628D01*
X127999312Y-128933943D01*
X127993087Y-128938560D01*
X127856620Y-129050555D01*
X127834406Y-129070689D01*
X127820689Y-129084406D01*
X127800556Y-129106619D01*
X127733744Y-129188029D01*
X127733741Y-129188033D01*
X127688558Y-129243090D01*
X127670698Y-129267172D01*
X127659916Y-129283309D01*
X127644506Y-129309019D01*
X127561290Y-129464705D01*
X127548473Y-129491805D01*
X127541046Y-129509735D01*
X127530945Y-129537965D01*
X127479700Y-129706898D01*
X127472415Y-129735981D01*
X127468629Y-129755015D01*
X127464230Y-129784670D01*
X127446448Y-129965213D01*
X127445345Y-129980158D01*
X127444868Y-129989862D01*
X127444500Y-130004861D01*
X127444500Y-132874000D01*
X127424498Y-132942121D01*
X127370842Y-132988614D01*
X127318500Y-133000000D01*
X126681500Y-133000000D01*
X126613379Y-132979998D01*
X126566886Y-132926342D01*
X126555500Y-132874000D01*
X126555500Y-130004861D01*
X126555132Y-129989862D01*
X126554655Y-129980158D01*
X126553552Y-129965213D01*
X126535770Y-129784670D01*
X126531371Y-129755015D01*
X126527585Y-129735981D01*
X126520300Y-129706898D01*
X126469055Y-129537965D01*
X126458954Y-129509735D01*
X126451527Y-129491805D01*
X126438710Y-129464705D01*
X126355494Y-129309019D01*
X126340084Y-129283309D01*
X126329302Y-129267172D01*
X126328383Y-129265933D01*
X126328372Y-129265917D01*
X126312372Y-129244344D01*
X126311440Y-129243087D01*
X126199445Y-129106620D01*
X126179311Y-129084406D01*
X126165594Y-129070689D01*
X126143380Y-129050555D01*
X126006913Y-128938560D01*
X126000688Y-128933943D01*
X125984083Y-128921628D01*
X125984063Y-128921614D01*
X125982828Y-128920698D01*
X125966691Y-128909916D01*
X125940981Y-128894506D01*
X125875952Y-128859747D01*
X125786669Y-128812024D01*
X125786656Y-128812017D01*
X125785295Y-128811290D01*
X125758195Y-128798473D01*
X125756773Y-128797884D01*
X125756764Y-128797880D01*
X125741699Y-128791640D01*
X125740265Y-128791046D01*
X125712034Y-128780944D01*
X125543099Y-128729699D01*
X125514029Y-128722417D01*
X125512515Y-128722116D01*
X125512507Y-128722114D01*
X125504724Y-128720566D01*
X125494999Y-128718631D01*
X125479622Y-128716350D01*
X125466872Y-128714458D01*
X125466854Y-128714456D01*
X125465332Y-128714230D01*
X125284787Y-128696448D01*
X125272514Y-128695542D01*
X125270615Y-128695402D01*
X125270611Y-128695402D01*
X125269842Y-128695345D01*
X125269099Y-128695308D01*
X125269075Y-128695307D01*
X125265746Y-128695144D01*
X125260138Y-128694868D01*
X125259344Y-128694849D01*
X125259330Y-128694848D01*
X125245878Y-128694518D01*
X125245867Y-128694518D01*
X125245139Y-128694500D01*
X118754861Y-128694500D01*
X118754133Y-128694518D01*
X118754122Y-128694518D01*
X118740670Y-128694848D01*
X118740656Y-128694849D01*
X118739862Y-128694868D01*
X118734254Y-128695144D01*
X118730925Y-128695307D01*
X118730901Y-128695308D01*
X118730158Y-128695345D01*
X118729389Y-128695402D01*
X118729385Y-128695402D01*
X118727486Y-128695542D01*
X118715213Y-128696448D01*
X118534668Y-128714230D01*
X118533146Y-128714456D01*
X118533128Y-128714458D01*
X118520378Y-128716350D01*
X118505001Y-128718631D01*
X118495276Y-128720566D01*
X118487493Y-128722114D01*
X118487485Y-128722116D01*
X118485971Y-128722417D01*
X118456901Y-128729699D01*
X118287966Y-128780944D01*
X118259735Y-128791046D01*
X118258301Y-128791640D01*
X118243236Y-128797880D01*
X118243227Y-128797884D01*
X118241805Y-128798473D01*
X118214705Y-128811290D01*
X118213344Y-128812017D01*
X118213331Y-128812024D01*
X118124048Y-128859747D01*
X118059019Y-128894506D01*
X118033309Y-128909916D01*
X118017172Y-128920698D01*
X118015937Y-128921614D01*
X118015917Y-128921628D01*
X117999312Y-128933943D01*
X117993087Y-128938560D01*
X117856620Y-129050555D01*
X117834406Y-129070689D01*
X117820689Y-129084406D01*
X117800556Y-129106619D01*
X117733744Y-129188029D01*
X117733741Y-129188033D01*
X117688558Y-129243090D01*
X117670698Y-129267172D01*
X117659916Y-129283309D01*
X117644506Y-129309019D01*
X117561290Y-129464705D01*
X117548473Y-129491805D01*
X117541046Y-129509735D01*
X117530945Y-129537965D01*
X117479700Y-129706898D01*
X117472415Y-129735981D01*
X117468629Y-129755015D01*
X117464230Y-129784670D01*
X117446448Y-129965213D01*
X117445345Y-129980158D01*
X117444868Y-129989862D01*
X117444500Y-130004861D01*
X117444500Y-132874000D01*
X117424498Y-132942121D01*
X117370842Y-132988614D01*
X117318500Y-133000000D01*
X116681500Y-133000000D01*
X116613379Y-132979998D01*
X116566886Y-132926342D01*
X116555500Y-132874000D01*
X116555500Y-130004861D01*
X116555132Y-129989862D01*
X116554655Y-129980158D01*
X116553552Y-129965213D01*
X116535770Y-129784670D01*
X116531371Y-129755015D01*
X116527585Y-129735981D01*
X116520300Y-129706898D01*
X116469055Y-129537965D01*
X116458954Y-129509735D01*
X116451527Y-129491805D01*
X116438710Y-129464705D01*
X116355494Y-129309019D01*
X116340084Y-129283309D01*
X116329302Y-129267172D01*
X116328383Y-129265933D01*
X116328372Y-129265917D01*
X116312372Y-129244344D01*
X116311440Y-129243087D01*
X116199445Y-129106620D01*
X116179311Y-129084406D01*
X116165594Y-129070689D01*
X116143380Y-129050555D01*
X116006913Y-128938560D01*
X116000688Y-128933943D01*
X115984083Y-128921628D01*
X115984063Y-128921614D01*
X115982828Y-128920698D01*
X115966691Y-128909916D01*
X115940981Y-128894506D01*
X115875952Y-128859747D01*
X115786669Y-128812024D01*
X115786656Y-128812017D01*
X115785295Y-128811290D01*
X115758195Y-128798473D01*
X115756773Y-128797884D01*
X115756764Y-128797880D01*
X115741699Y-128791640D01*
X115740265Y-128791046D01*
X115712034Y-128780944D01*
X115543099Y-128729699D01*
X115514029Y-128722417D01*
X115512515Y-128722116D01*
X115512507Y-128722114D01*
X115504724Y-128720566D01*
X115494999Y-128718631D01*
X115479622Y-128716350D01*
X115466872Y-128714458D01*
X115466854Y-128714456D01*
X115465332Y-128714230D01*
X115284787Y-128696448D01*
X115272514Y-128695542D01*
X115270615Y-128695402D01*
X115270611Y-128695402D01*
X115269842Y-128695345D01*
X115269099Y-128695308D01*
X115269075Y-128695307D01*
X115265746Y-128695144D01*
X115260138Y-128694868D01*
X115259344Y-128694849D01*
X115259330Y-128694848D01*
X115245878Y-128694518D01*
X115245867Y-128694518D01*
X115245139Y-128694500D01*
X108754861Y-128694500D01*
X108754133Y-128694518D01*
X108754122Y-128694518D01*
X108740670Y-128694848D01*
X108740656Y-128694849D01*
X108739862Y-128694868D01*
X108734254Y-128695144D01*
X108730925Y-128695307D01*
X108730901Y-128695308D01*
X108730158Y-128695345D01*
X108729389Y-128695402D01*
X108729385Y-128695402D01*
X108727486Y-128695542D01*
X108715213Y-128696448D01*
X108534668Y-128714230D01*
X108533146Y-128714456D01*
X108533128Y-128714458D01*
X108520378Y-128716350D01*
X108505001Y-128718631D01*
X108495276Y-128720566D01*
X108487493Y-128722114D01*
X108487485Y-128722116D01*
X108485971Y-128722417D01*
X108456901Y-128729699D01*
X108287966Y-128780944D01*
X108259735Y-128791046D01*
X108258301Y-128791640D01*
X108243236Y-128797880D01*
X108243227Y-128797884D01*
X108241805Y-128798473D01*
X108214705Y-128811290D01*
X108213344Y-128812017D01*
X108213331Y-128812024D01*
X108124048Y-128859747D01*
X108059019Y-128894506D01*
X108033309Y-128909916D01*
X108017172Y-128920698D01*
X108015937Y-128921614D01*
X108015917Y-128921628D01*
X107999312Y-128933943D01*
X107993087Y-128938560D01*
X107856620Y-129050555D01*
X107834406Y-129070689D01*
X107820689Y-129084406D01*
X107800556Y-129106619D01*
X107733744Y-129188029D01*
X107733741Y-129188033D01*
X107688558Y-129243090D01*
X107670698Y-129267172D01*
X107659916Y-129283309D01*
X107644506Y-129309019D01*
X107561290Y-129464705D01*
X107548473Y-129491805D01*
X107541046Y-129509735D01*
X107530945Y-129537965D01*
X107479700Y-129706898D01*
X107472415Y-129735981D01*
X107468629Y-129755015D01*
X107464230Y-129784670D01*
X107446448Y-129965213D01*
X107445345Y-129980158D01*
X107444868Y-129989862D01*
X107444500Y-130004861D01*
X107444500Y-132874000D01*
X107424498Y-132942121D01*
X107370842Y-132988614D01*
X107318500Y-133000000D01*
X106681500Y-133000000D01*
X106613379Y-132979998D01*
X106566886Y-132926342D01*
X106555500Y-132874000D01*
X106555500Y-130004861D01*
X106555132Y-129989862D01*
X106554655Y-129980158D01*
X106553552Y-129965213D01*
X106535770Y-129784670D01*
X106531371Y-129755015D01*
X106527585Y-129735981D01*
X106520300Y-129706898D01*
X106469055Y-129537965D01*
X106458954Y-129509735D01*
X106451527Y-129491805D01*
X106438710Y-129464705D01*
X106355494Y-129309019D01*
X106340084Y-129283309D01*
X106329302Y-129267172D01*
X106328383Y-129265933D01*
X106328372Y-129265917D01*
X106312372Y-129244344D01*
X106311440Y-129243087D01*
X106199445Y-129106620D01*
X106179311Y-129084406D01*
X106165594Y-129070689D01*
X106143380Y-129050555D01*
X106006913Y-128938560D01*
X106000688Y-128933943D01*
X105984083Y-128921628D01*
X105984063Y-128921614D01*
X105982828Y-128920698D01*
X105966691Y-128909916D01*
X105940981Y-128894506D01*
X105875952Y-128859747D01*
X105786669Y-128812024D01*
X105786656Y-128812017D01*
X105785295Y-128811290D01*
X105758195Y-128798473D01*
X105756773Y-128797884D01*
X105756764Y-128797880D01*
X105741699Y-128791640D01*
X105740265Y-128791046D01*
X105712034Y-128780944D01*
X105543099Y-128729699D01*
X105514029Y-128722417D01*
X105512515Y-128722116D01*
X105512507Y-128722114D01*
X105504724Y-128720566D01*
X105494999Y-128718631D01*
X105479622Y-128716350D01*
X105466872Y-128714458D01*
X105466854Y-128714456D01*
X105465332Y-128714230D01*
X105284787Y-128696448D01*
X105272514Y-128695542D01*
X105270615Y-128695402D01*
X105270611Y-128695402D01*
X105269842Y-128695345D01*
X105269099Y-128695308D01*
X105269075Y-128695307D01*
X105265746Y-128695144D01*
X105260138Y-128694868D01*
X105259344Y-128694849D01*
X105259330Y-128694848D01*
X105245878Y-128694518D01*
X105245867Y-128694518D01*
X105245139Y-128694500D01*
X98504861Y-128694500D01*
X98504133Y-128694518D01*
X98504122Y-128694518D01*
X98490670Y-128694848D01*
X98490656Y-128694849D01*
X98489862Y-128694868D01*
X98484254Y-128695144D01*
X98480925Y-128695307D01*
X98480901Y-128695308D01*
X98480158Y-128695345D01*
X98479389Y-128695402D01*
X98479385Y-128695402D01*
X98477486Y-128695542D01*
X98465213Y-128696448D01*
X98284668Y-128714230D01*
X98283146Y-128714456D01*
X98283128Y-128714458D01*
X98270378Y-128716350D01*
X98255001Y-128718631D01*
X98245276Y-128720566D01*
X98237493Y-128722114D01*
X98237485Y-128722116D01*
X98235971Y-128722417D01*
X98206901Y-128729699D01*
X98037966Y-128780944D01*
X98009735Y-128791046D01*
X98008301Y-128791640D01*
X97993236Y-128797880D01*
X97993227Y-128797884D01*
X97991805Y-128798473D01*
X97964705Y-128811290D01*
X97963344Y-128812017D01*
X97963331Y-128812024D01*
X97874048Y-128859747D01*
X97809019Y-128894506D01*
X97783309Y-128909916D01*
X97767172Y-128920698D01*
X97765937Y-128921614D01*
X97765917Y-128921628D01*
X97749312Y-128933943D01*
X97743087Y-128938560D01*
X97606620Y-129050555D01*
X97584406Y-129070689D01*
X97570689Y-129084406D01*
X97550556Y-129106619D01*
X97483744Y-129188029D01*
X97483741Y-129188033D01*
X97438558Y-129243090D01*
X97420698Y-129267172D01*
X97409916Y-129283309D01*
X97394506Y-129309019D01*
X97311290Y-129464705D01*
X97298473Y-129491805D01*
X97291046Y-129509735D01*
X97280945Y-129537965D01*
X97229700Y-129706898D01*
X97222415Y-129735981D01*
X97218629Y-129755015D01*
X97214230Y-129784670D01*
X97196448Y-129965213D01*
X97195345Y-129980158D01*
X97194868Y-129989862D01*
X97194500Y-130004861D01*
X97194500Y-132874000D01*
X97174498Y-132942121D01*
X97120842Y-132988614D01*
X97068500Y-133000000D01*
X95432387Y-133000000D01*
X95364266Y-132979998D01*
X95317773Y-132926342D01*
X95313758Y-132916004D01*
X95313343Y-132914306D01*
X95209801Y-132658674D01*
X95207500Y-132654744D01*
X95207497Y-132654738D01*
X95072745Y-132424597D01*
X95072740Y-132424590D01*
X95070442Y-132420665D01*
X94952927Y-132273720D01*
X94901036Y-132208834D01*
X94901035Y-132208833D01*
X94898184Y-132205268D01*
X94696636Y-132016992D01*
X94470021Y-131859784D01*
X94292667Y-131771551D01*
X94227173Y-131738968D01*
X94227170Y-131738967D01*
X94223086Y-131736935D01*
X93961002Y-131651020D01*
X93956510Y-131650240D01*
X93693043Y-131604494D01*
X93693035Y-131604493D01*
X93689262Y-131603838D01*
X93679029Y-131603329D01*
X93603695Y-131599578D01*
X93603687Y-131599578D01*
X93602124Y-131599500D01*
X93429930Y-131599500D01*
X93427662Y-131599665D01*
X93427650Y-131599665D01*
X93293397Y-131609406D01*
X93224917Y-131614375D01*
X93220462Y-131615359D01*
X93220459Y-131615359D01*
X92960053Y-131672852D01*
X92960050Y-131672853D01*
X92955597Y-131673836D01*
X92697681Y-131771551D01*
X92456572Y-131905475D01*
X92237322Y-132072802D01*
X92234129Y-132076068D01*
X92234127Y-132076070D01*
X92047717Y-132266758D01*
X92047713Y-132266763D01*
X92044523Y-132270026D01*
X91882213Y-132493016D01*
X91753794Y-132737101D01*
X91752277Y-132741397D01*
X91690634Y-132915956D01*
X91649090Y-132973529D01*
X91583015Y-132999502D01*
X91571824Y-133000000D01*
X90426500Y-133000000D01*
X90358379Y-132979998D01*
X90311886Y-132926342D01*
X90300500Y-132874000D01*
X90300500Y-116828113D01*
X96924527Y-116828113D01*
X96943162Y-117195971D01*
X96943699Y-117199326D01*
X96943700Y-117199332D01*
X96984038Y-117451170D01*
X97001416Y-117559665D01*
X97098608Y-117914941D01*
X97233602Y-118257642D01*
X97404817Y-118583759D01*
X97406718Y-118586588D01*
X97406724Y-118586598D01*
X97554653Y-118806738D01*
X97610252Y-118889477D01*
X97847502Y-119171221D01*
X97878871Y-119201198D01*
X98111329Y-119423341D01*
X98111336Y-119423347D01*
X98113792Y-119425694D01*
X98406008Y-119649919D01*
X98720731Y-119841274D01*
X99054279Y-119997519D01*
X99057497Y-119998621D01*
X99057500Y-119998622D01*
X99399528Y-120115725D01*
X99399536Y-120115727D01*
X99402751Y-120116828D01*
X99762070Y-120197804D01*
X99845002Y-120207253D01*
X100124650Y-120239115D01*
X100124658Y-120239115D01*
X100128033Y-120239500D01*
X100131437Y-120239518D01*
X100131440Y-120239518D01*
X100331074Y-120240563D01*
X100496358Y-120241428D01*
X100499744Y-120241078D01*
X100499746Y-120241078D01*
X100859345Y-120203918D01*
X100859354Y-120203917D01*
X100862737Y-120203567D01*
X100866070Y-120202853D01*
X100866073Y-120202852D01*
X101043488Y-120164817D01*
X101222884Y-120126358D01*
X101572586Y-120010705D01*
X101907752Y-119857961D01*
X102064776Y-119764727D01*
X102221516Y-119671662D01*
X102221521Y-119671659D01*
X102224461Y-119669913D01*
X102251091Y-119649919D01*
X102516276Y-119450812D01*
X102519009Y-119448760D01*
X102787950Y-119197089D01*
X103028138Y-118917846D01*
X103045838Y-118892093D01*
X103212742Y-118649244D01*
X103236762Y-118614295D01*
X103238374Y-118611301D01*
X103238379Y-118611293D01*
X103375574Y-118356493D01*
X103411383Y-118289989D01*
X103549958Y-117948720D01*
X103650865Y-117594482D01*
X103712925Y-117231418D01*
X103713569Y-117220904D01*
X103735301Y-116865572D01*
X103735411Y-116863775D01*
X103735461Y-116849580D01*
X103735488Y-116841820D01*
X103735488Y-116841808D01*
X103735494Y-116840000D01*
X103715575Y-116472209D01*
X103656052Y-116108720D01*
X103557620Y-115753786D01*
X103554443Y-115745801D01*
X103422690Y-115414722D01*
X103421431Y-115411558D01*
X103256001Y-115099116D01*
X103250677Y-115089060D01*
X103250673Y-115089053D01*
X103249078Y-115086041D01*
X103042578Y-114781041D01*
X102804346Y-114500128D01*
X102537168Y-114246586D01*
X102244172Y-114023382D01*
X102241260Y-114021625D01*
X102241255Y-114021622D01*
X101931705Y-113834889D01*
X101931696Y-113834884D01*
X101928783Y-113833127D01*
X101925693Y-113831693D01*
X101925688Y-113831690D01*
X101669730Y-113712879D01*
X101594691Y-113678047D01*
X101591466Y-113676955D01*
X101591460Y-113676953D01*
X101249032Y-113561048D01*
X101249027Y-113561047D01*
X101245805Y-113559956D01*
X101011920Y-113508104D01*
X100889536Y-113480972D01*
X100889532Y-113480971D01*
X100886206Y-113480234D01*
X100736624Y-113463720D01*
X100523482Y-113440189D01*
X100523475Y-113440189D01*
X100520100Y-113439816D01*
X100516701Y-113439810D01*
X100516700Y-113439810D01*
X100342979Y-113439507D01*
X100151770Y-113439173D01*
X100014556Y-113453837D01*
X99788910Y-113477951D01*
X99788904Y-113477952D01*
X99785526Y-113478313D01*
X99425650Y-113556779D01*
X99076354Y-113673652D01*
X99073261Y-113675075D01*
X99073260Y-113675075D01*
X99063674Y-113679484D01*
X98741723Y-113827565D01*
X98738789Y-113829321D01*
X98738787Y-113829322D01*
X98720354Y-113840354D01*
X98425672Y-114016718D01*
X98131898Y-114238897D01*
X97863837Y-114491505D01*
X97624626Y-114771585D01*
X97622702Y-114774406D01*
X97622696Y-114774414D01*
X97581757Y-114834428D01*
X97417062Y-115075862D01*
X97243574Y-115400776D01*
X97242299Y-115403948D01*
X97242297Y-115403952D01*
X97115068Y-115720447D01*
X97106192Y-115742526D01*
X97105273Y-115745794D01*
X97105271Y-115745801D01*
X97007442Y-116093837D01*
X97006521Y-116097115D01*
X97005959Y-116100472D01*
X97005959Y-116100473D01*
X97004015Y-116112093D01*
X96945729Y-116460393D01*
X96924527Y-116828113D01*
X90300500Y-116828113D01*
X90300500Y-110725000D01*
X98444295Y-110725000D01*
X98444362Y-110726442D01*
X98444362Y-110726457D01*
X98444911Y-110738332D01*
X98445599Y-110753207D01*
X98476344Y-110861264D01*
X98483380Y-110870581D01*
X98534284Y-110937989D01*
X98544048Y-110950919D01*
X98581809Y-110974299D01*
X98629643Y-111003917D01*
X98629646Y-111003918D01*
X98639567Y-111010061D01*
X98651039Y-111012205D01*
X98651040Y-111012206D01*
X98744275Y-111029635D01*
X98744277Y-111029635D01*
X98750000Y-111030705D01*
X98873500Y-111030705D01*
X98941621Y-111050707D01*
X98988114Y-111104363D01*
X98999500Y-111156705D01*
X98999500Y-111454288D01*
X98979498Y-111522409D01*
X98975444Y-111527719D01*
X98975604Y-111527831D01*
X98906883Y-111625612D01*
X98878113Y-111666547D01*
X98816524Y-111824513D01*
X98815532Y-111832046D01*
X98815532Y-111832047D01*
X98795717Y-111982564D01*
X98794394Y-111992611D01*
X98812999Y-112161135D01*
X98871266Y-112320356D01*
X98875502Y-112326659D01*
X98875502Y-112326660D01*
X98887784Y-112344937D01*
X98965830Y-112461083D01*
X98971442Y-112466190D01*
X98971445Y-112466193D01*
X99085612Y-112570077D01*
X99085616Y-112570080D01*
X99091233Y-112575191D01*
X99097906Y-112578814D01*
X99097910Y-112578817D01*
X99233558Y-112652467D01*
X99233560Y-112652468D01*
X99240235Y-112656092D01*
X99247584Y-112658020D01*
X99396883Y-112697188D01*
X99396885Y-112697188D01*
X99404233Y-112699116D01*
X99490609Y-112700473D01*
X99566161Y-112701660D01*
X99566164Y-112701660D01*
X99573760Y-112701779D01*
X99581165Y-112700083D01*
X99581166Y-112700083D01*
X99641586Y-112686245D01*
X99739029Y-112663928D01*
X99890498Y-112587747D01*
X100019423Y-112477634D01*
X100118361Y-112339947D01*
X100126237Y-112320356D01*
X100177390Y-112193111D01*
X106994394Y-112193111D01*
X107012999Y-112361635D01*
X107071266Y-112520856D01*
X107075502Y-112527159D01*
X107075502Y-112527160D01*
X107088069Y-112545861D01*
X107165830Y-112661583D01*
X107171442Y-112666690D01*
X107171445Y-112666693D01*
X107285612Y-112770577D01*
X107285616Y-112770580D01*
X107291233Y-112775691D01*
X107297906Y-112779314D01*
X107297910Y-112779317D01*
X107433558Y-112852967D01*
X107433560Y-112852968D01*
X107440235Y-112856592D01*
X107447584Y-112858520D01*
X107596882Y-112897688D01*
X107596886Y-112897689D01*
X107604233Y-112899616D01*
X107641664Y-112900204D01*
X107709461Y-112921273D01*
X107728779Y-112937093D01*
X107895477Y-113103791D01*
X107902943Y-113113135D01*
X107903333Y-113112803D01*
X107909151Y-113119639D01*
X107913941Y-113127231D01*
X107920669Y-113133173D01*
X107920670Y-113133174D01*
X107953611Y-113162266D01*
X107959299Y-113167613D01*
X107970517Y-113178831D01*
X107974105Y-113181520D01*
X107974106Y-113181521D01*
X107978695Y-113184961D01*
X107986534Y-113191343D01*
X108014672Y-113216193D01*
X108021399Y-113222134D01*
X108029522Y-113225948D01*
X108032675Y-113228019D01*
X108045687Y-113235838D01*
X108049005Y-113237654D01*
X108056187Y-113243037D01*
X108099752Y-113259369D01*
X108109061Y-113263291D01*
X108151174Y-113283064D01*
X108160047Y-113284446D01*
X108163669Y-113285553D01*
X108178339Y-113289402D01*
X108182028Y-113290213D01*
X108190430Y-113293363D01*
X108199375Y-113294028D01*
X108199385Y-113294030D01*
X108236839Y-113296813D01*
X108246866Y-113297963D01*
X108260020Y-113300011D01*
X108275214Y-113300011D01*
X108284552Y-113300357D01*
X108333402Y-113303987D01*
X108342178Y-113302114D01*
X108351135Y-113301503D01*
X108351135Y-113301509D01*
X108365328Y-113300011D01*
X109593940Y-113300011D01*
X109662061Y-113320013D01*
X109708554Y-113373669D01*
X109718658Y-113443943D01*
X109689164Y-113508523D01*
X109629438Y-113546907D01*
X109620783Y-113549119D01*
X109585650Y-113556779D01*
X109236354Y-113673652D01*
X109233261Y-113675075D01*
X109233260Y-113675075D01*
X109223674Y-113679484D01*
X108901723Y-113827565D01*
X108898789Y-113829321D01*
X108898787Y-113829322D01*
X108880354Y-113840354D01*
X108585672Y-114016718D01*
X108291898Y-114238897D01*
X108023837Y-114491505D01*
X107784626Y-114771585D01*
X107782702Y-114774406D01*
X107782696Y-114774414D01*
X107741757Y-114834428D01*
X107577062Y-115075862D01*
X107403574Y-115400776D01*
X107402299Y-115403948D01*
X107402297Y-115403952D01*
X107275068Y-115720447D01*
X107266192Y-115742526D01*
X107265273Y-115745794D01*
X107265271Y-115745801D01*
X107167442Y-116093837D01*
X107166521Y-116097115D01*
X107165959Y-116100472D01*
X107165959Y-116100473D01*
X107164015Y-116112093D01*
X107105729Y-116460393D01*
X107084527Y-116828113D01*
X107103162Y-117195971D01*
X107103699Y-117199326D01*
X107103700Y-117199332D01*
X107144038Y-117451170D01*
X107161416Y-117559665D01*
X107258608Y-117914941D01*
X107393602Y-118257642D01*
X107564817Y-118583759D01*
X107566718Y-118586588D01*
X107566724Y-118586598D01*
X107714653Y-118806738D01*
X107770252Y-118889477D01*
X108007502Y-119171221D01*
X108038871Y-119201198D01*
X108271329Y-119423341D01*
X108271336Y-119423347D01*
X108273792Y-119425694D01*
X108566008Y-119649919D01*
X108880731Y-119841274D01*
X109214279Y-119997519D01*
X109217497Y-119998621D01*
X109217500Y-119998622D01*
X109559528Y-120115725D01*
X109559536Y-120115727D01*
X109562751Y-120116828D01*
X109922070Y-120197804D01*
X110005002Y-120207253D01*
X110284650Y-120239115D01*
X110284658Y-120239115D01*
X110288033Y-120239500D01*
X110291437Y-120239518D01*
X110291440Y-120239518D01*
X110491074Y-120240563D01*
X110656358Y-120241428D01*
X110659744Y-120241078D01*
X110659746Y-120241078D01*
X111019345Y-120203918D01*
X111019354Y-120203917D01*
X111022737Y-120203567D01*
X111026070Y-120202853D01*
X111026073Y-120202852D01*
X111203488Y-120164817D01*
X111382884Y-120126358D01*
X111732586Y-120010705D01*
X112067752Y-119857961D01*
X112224776Y-119764727D01*
X112381516Y-119671662D01*
X112381521Y-119671659D01*
X112384461Y-119669913D01*
X112411091Y-119649919D01*
X112676276Y-119450812D01*
X112679009Y-119448760D01*
X112947950Y-119197089D01*
X113188138Y-118917846D01*
X113205838Y-118892093D01*
X113372742Y-118649244D01*
X113396762Y-118614295D01*
X113398374Y-118611301D01*
X113398379Y-118611293D01*
X113535574Y-118356493D01*
X113571383Y-118289989D01*
X113709958Y-117948720D01*
X113810865Y-117594482D01*
X113872925Y-117231418D01*
X113873569Y-117220904D01*
X113895301Y-116865572D01*
X113895411Y-116863775D01*
X113895461Y-116849580D01*
X113895488Y-116841820D01*
X113895488Y-116841808D01*
X113895494Y-116840000D01*
X113875575Y-116472209D01*
X113816052Y-116108720D01*
X113717620Y-115753786D01*
X113714443Y-115745801D01*
X113582690Y-115414722D01*
X113581431Y-115411558D01*
X113416001Y-115099116D01*
X113410677Y-115089060D01*
X113410673Y-115089053D01*
X113409078Y-115086041D01*
X113202578Y-114781041D01*
X112964346Y-114500128D01*
X112697168Y-114246586D01*
X112404172Y-114023382D01*
X112401260Y-114021625D01*
X112401255Y-114021622D01*
X112091705Y-113834889D01*
X112091696Y-113834884D01*
X112088783Y-113833127D01*
X112085693Y-113831693D01*
X112085688Y-113831690D01*
X111829730Y-113712879D01*
X111754691Y-113678047D01*
X111751466Y-113676955D01*
X111751460Y-113676953D01*
X111409032Y-113561048D01*
X111409027Y-113561047D01*
X111405805Y-113559956D01*
X111171920Y-113508104D01*
X111049536Y-113480972D01*
X111049532Y-113480971D01*
X111046206Y-113480234D01*
X110896624Y-113463720D01*
X110683482Y-113440189D01*
X110683475Y-113440189D01*
X110680100Y-113439816D01*
X110676701Y-113439810D01*
X110676700Y-113439810D01*
X110502979Y-113439507D01*
X110311770Y-113439173D01*
X110308392Y-113439534D01*
X110271790Y-113443445D01*
X110201929Y-113430794D01*
X110149999Y-113382382D01*
X110132485Y-113313579D01*
X110154950Y-113246230D01*
X110176151Y-113222708D01*
X110208167Y-113195121D01*
X110216085Y-113188835D01*
X110222891Y-113183863D01*
X110226825Y-113180989D01*
X110237568Y-113170246D01*
X110244415Y-113163888D01*
X110274726Y-113137770D01*
X110281526Y-113131911D01*
X110286409Y-113124377D01*
X110292308Y-113117615D01*
X110292313Y-113117619D01*
X110301289Y-113106525D01*
X110469355Y-112938459D01*
X110531667Y-112904433D01*
X110560420Y-112901570D01*
X110573760Y-112901779D01*
X110581165Y-112900083D01*
X110581166Y-112900083D01*
X110676560Y-112878235D01*
X110739029Y-112863928D01*
X110890498Y-112787747D01*
X110987196Y-112705159D01*
X111013651Y-112682564D01*
X111013652Y-112682563D01*
X111019423Y-112677634D01*
X111118361Y-112539947D01*
X111126036Y-112520856D01*
X111178766Y-112389687D01*
X111178767Y-112389685D01*
X111181601Y-112382634D01*
X111193502Y-112299011D01*
X111204909Y-112218862D01*
X111204909Y-112218859D01*
X111205490Y-112214778D01*
X111205645Y-112200000D01*
X111203544Y-112182634D01*
X111196885Y-112127614D01*
X111185276Y-112031680D01*
X111125345Y-111873077D01*
X111102076Y-111839220D01*
X111033614Y-111739608D01*
X111033613Y-111739607D01*
X111029312Y-111733349D01*
X111017514Y-111722837D01*
X110908392Y-111625612D01*
X110908388Y-111625610D01*
X110902721Y-111620560D01*
X110895762Y-111616875D01*
X110835080Y-111584746D01*
X110752881Y-111541224D01*
X110588441Y-111499919D01*
X110580843Y-111499879D01*
X110580841Y-111499879D01*
X110503668Y-111499475D01*
X110418895Y-111499031D01*
X110411508Y-111500805D01*
X110411504Y-111500805D01*
X110298937Y-111527831D01*
X110254032Y-111538612D01*
X110247288Y-111542093D01*
X110247285Y-111542094D01*
X110110117Y-111612892D01*
X110103369Y-111616375D01*
X110097647Y-111621367D01*
X110097645Y-111621368D01*
X110050719Y-111662304D01*
X109975604Y-111727831D01*
X109967327Y-111739608D01*
X109898107Y-111838098D01*
X109842572Y-111882329D01*
X109771940Y-111889515D01*
X109708636Y-111857374D01*
X109677154Y-111810185D01*
X109628029Y-111680180D01*
X109625345Y-111673077D01*
X109529312Y-111533349D01*
X109529776Y-111533030D01*
X109510897Y-111492611D01*
X114794394Y-111492611D01*
X114812999Y-111661135D01*
X114841716Y-111739608D01*
X114866977Y-111808635D01*
X114871266Y-111820356D01*
X114875502Y-111826659D01*
X114875502Y-111826660D01*
X114888574Y-111846113D01*
X114965830Y-111961083D01*
X114971442Y-111966190D01*
X114971445Y-111966193D01*
X115085612Y-112070077D01*
X115085616Y-112070080D01*
X115091233Y-112075191D01*
X115097906Y-112078814D01*
X115097910Y-112078817D01*
X115233558Y-112152467D01*
X115233560Y-112152468D01*
X115240235Y-112156092D01*
X115247584Y-112158020D01*
X115396883Y-112197188D01*
X115396885Y-112197188D01*
X115404233Y-112199116D01*
X115490609Y-112200473D01*
X115566161Y-112201660D01*
X115566164Y-112201660D01*
X115573760Y-112201779D01*
X115581165Y-112200083D01*
X115581166Y-112200083D01*
X115657353Y-112182634D01*
X115739029Y-112163928D01*
X115890498Y-112087747D01*
X115969713Y-112020090D01*
X116013651Y-111982564D01*
X116013652Y-111982563D01*
X116019423Y-111977634D01*
X116118361Y-111839947D01*
X116124540Y-111824577D01*
X116178766Y-111689687D01*
X116178767Y-111689685D01*
X116181601Y-111682634D01*
X116201395Y-111543552D01*
X116201634Y-111541874D01*
X116231035Y-111477251D01*
X116237282Y-111470532D01*
X116945409Y-110762405D01*
X117007721Y-110728379D01*
X117034504Y-110725500D01*
X117342565Y-110725500D01*
X117410686Y-110745502D01*
X117457179Y-110799158D01*
X117463755Y-110817019D01*
X117473148Y-110850034D01*
X117473150Y-110850038D01*
X117476344Y-110861264D01*
X117483380Y-110870581D01*
X117534284Y-110937989D01*
X117544048Y-110950919D01*
X117581809Y-110974299D01*
X117629643Y-111003917D01*
X117629646Y-111003918D01*
X117639567Y-111010061D01*
X117651039Y-111012205D01*
X117651040Y-111012206D01*
X117744275Y-111029635D01*
X117744277Y-111029635D01*
X117750000Y-111030705D01*
X119250000Y-111030705D01*
X119251442Y-111030638D01*
X119251457Y-111030638D01*
X119263332Y-111030089D01*
X119278207Y-111029401D01*
X119363771Y-111005056D01*
X119375035Y-111001851D01*
X119386264Y-110998656D01*
X119441340Y-110957065D01*
X119466601Y-110937989D01*
X119466602Y-110937988D01*
X119475919Y-110930952D01*
X119513299Y-110870581D01*
X119528917Y-110845357D01*
X119528918Y-110845354D01*
X119535061Y-110835433D01*
X119538504Y-110817019D01*
X119554635Y-110730725D01*
X119554635Y-110730723D01*
X119555705Y-110725000D01*
X119555705Y-109575000D01*
X119554809Y-109569275D01*
X119546357Y-109515333D01*
X119541058Y-109481508D01*
X119535949Y-109472057D01*
X119533437Y-109464615D01*
X119530603Y-109393675D01*
X119531283Y-109391534D01*
X119535061Y-109385433D01*
X119537206Y-109373958D01*
X119537208Y-109373953D01*
X119541112Y-109353070D01*
X119573291Y-109289785D01*
X119617890Y-109262462D01*
X119616917Y-109260323D01*
X119616918Y-109260323D01*
X119659282Y-109241061D01*
X119668637Y-109237254D01*
X119703943Y-109224509D01*
X119703947Y-109224507D01*
X119712387Y-109221460D01*
X119719635Y-109216165D01*
X119722975Y-109214389D01*
X119736089Y-109206726D01*
X119739261Y-109204697D01*
X119747428Y-109200984D01*
X119754223Y-109195129D01*
X119754226Y-109195127D01*
X119782675Y-109170613D01*
X119790596Y-109164324D01*
X119797402Y-109159352D01*
X119801336Y-109156478D01*
X119812079Y-109145735D01*
X119818926Y-109139377D01*
X119849237Y-109113259D01*
X119856037Y-109107400D01*
X119860920Y-109099866D01*
X119866819Y-109093104D01*
X119866824Y-109093108D01*
X119875800Y-109082014D01*
X120469355Y-108488459D01*
X120531667Y-108454433D01*
X120560420Y-108451570D01*
X120573760Y-108451779D01*
X120581165Y-108450083D01*
X120581166Y-108450083D01*
X120649520Y-108434428D01*
X120739029Y-108413928D01*
X120890498Y-108337747D01*
X120975299Y-108265320D01*
X121013651Y-108232564D01*
X121013652Y-108232563D01*
X121019423Y-108227634D01*
X121118361Y-108089947D01*
X121126280Y-108070249D01*
X121178766Y-107939687D01*
X121178767Y-107939685D01*
X121181601Y-107932634D01*
X121192259Y-107857749D01*
X121204909Y-107768862D01*
X121204909Y-107768859D01*
X121205490Y-107764778D01*
X121205645Y-107750000D01*
X121186258Y-107589795D01*
X121197931Y-107519766D01*
X121222250Y-107485564D01*
X123920409Y-104787405D01*
X123982721Y-104753379D01*
X124009504Y-104750500D01*
X125469819Y-104750500D01*
X125481704Y-104751828D01*
X125481745Y-104751318D01*
X125490691Y-104752038D01*
X125499447Y-104754019D01*
X125552263Y-104750742D01*
X125560067Y-104750500D01*
X125575940Y-104750500D01*
X125586052Y-104749052D01*
X125596106Y-104748022D01*
X125624097Y-104746285D01*
X125642538Y-104745141D01*
X125650982Y-104742093D01*
X125654694Y-104741324D01*
X125669399Y-104737657D01*
X125673027Y-104736596D01*
X125681918Y-104735323D01*
X125724282Y-104716061D01*
X125733637Y-104712254D01*
X125768943Y-104699509D01*
X125768947Y-104699507D01*
X125777387Y-104696460D01*
X125784635Y-104691165D01*
X125787975Y-104689389D01*
X125801089Y-104681726D01*
X125804261Y-104679697D01*
X125812428Y-104675984D01*
X125819223Y-104670129D01*
X125819226Y-104670127D01*
X125847675Y-104645613D01*
X125855596Y-104639324D01*
X125862402Y-104634352D01*
X125866336Y-104631478D01*
X125877079Y-104620735D01*
X125883926Y-104614377D01*
X125914237Y-104588259D01*
X125921037Y-104582400D01*
X125925920Y-104574866D01*
X125931819Y-104568104D01*
X125931824Y-104568108D01*
X125940797Y-104557017D01*
X126817751Y-103680062D01*
X126880064Y-103646037D01*
X126923295Y-103644235D01*
X126923549Y-103644268D01*
X126929186Y-103645544D01*
X126934957Y-103645771D01*
X126934959Y-103645771D01*
X126987542Y-103647837D01*
X127140470Y-103653846D01*
X127146179Y-103653018D01*
X127146183Y-103653018D01*
X127344015Y-103624333D01*
X127344019Y-103624332D01*
X127349730Y-103623504D01*
X127428987Y-103596600D01*
X127544483Y-103557395D01*
X127544488Y-103557393D01*
X127549955Y-103555537D01*
X127563790Y-103547789D01*
X127571925Y-103543233D01*
X149094906Y-103543233D01*
X149121102Y-103817792D01*
X149122187Y-103822226D01*
X149122188Y-103822232D01*
X149165288Y-103998366D01*
X149186657Y-104085694D01*
X149290199Y-104341326D01*
X149292500Y-104345256D01*
X149292503Y-104345262D01*
X149427255Y-104575403D01*
X149427260Y-104575410D01*
X149429558Y-104579335D01*
X149432405Y-104582895D01*
X149566443Y-104750500D01*
X149601816Y-104794732D01*
X149605157Y-104797853D01*
X149648582Y-104838418D01*
X149803364Y-104983008D01*
X150029979Y-105140216D01*
X150034055Y-105142244D01*
X150034057Y-105142245D01*
X150272827Y-105261032D01*
X150272830Y-105261033D01*
X150276914Y-105263065D01*
X150538998Y-105348980D01*
X150543489Y-105349760D01*
X150543490Y-105349760D01*
X150806957Y-105395506D01*
X150806965Y-105395507D01*
X150810738Y-105396162D01*
X150814575Y-105396353D01*
X150896305Y-105400422D01*
X150896313Y-105400422D01*
X150897876Y-105400500D01*
X151070070Y-105400500D01*
X151072338Y-105400335D01*
X151072350Y-105400335D01*
X151206603Y-105390594D01*
X151275083Y-105385625D01*
X151279538Y-105384641D01*
X151279541Y-105384641D01*
X151539947Y-105327148D01*
X151539950Y-105327147D01*
X151544403Y-105326164D01*
X151802319Y-105228449D01*
X152043428Y-105094525D01*
X152262678Y-104927198D01*
X152322764Y-104865733D01*
X152452283Y-104733242D01*
X152452287Y-104733237D01*
X152455477Y-104729974D01*
X152468375Y-104712254D01*
X152615100Y-104510676D01*
X152615102Y-104510673D01*
X152617787Y-104506984D01*
X152746206Y-104262899D01*
X152838045Y-104002832D01*
X152866591Y-103858000D01*
X152890499Y-103736704D01*
X152890500Y-103736698D01*
X152891380Y-103732232D01*
X152891607Y-103727676D01*
X152904867Y-103461336D01*
X152904867Y-103461330D01*
X152905094Y-103456767D01*
X152878898Y-103182208D01*
X152869785Y-103144964D01*
X152814429Y-102918744D01*
X152813343Y-102914306D01*
X152709801Y-102658674D01*
X152707500Y-102654744D01*
X152707497Y-102654738D01*
X152572745Y-102424597D01*
X152572740Y-102424590D01*
X152570442Y-102420665D01*
X152452927Y-102273720D01*
X152401036Y-102208834D01*
X152401035Y-102208833D01*
X152398184Y-102205268D01*
X152270435Y-102085931D01*
X152199972Y-102020108D01*
X152199969Y-102020106D01*
X152196636Y-102016992D01*
X151970021Y-101859784D01*
X151961450Y-101855520D01*
X151727173Y-101738968D01*
X151727170Y-101738967D01*
X151723086Y-101736935D01*
X151461002Y-101651020D01*
X151456510Y-101650240D01*
X151193043Y-101604494D01*
X151193035Y-101604493D01*
X151189262Y-101603838D01*
X151179029Y-101603329D01*
X151103695Y-101599578D01*
X151103687Y-101599578D01*
X151102124Y-101599500D01*
X150929930Y-101599500D01*
X150927662Y-101599665D01*
X150927650Y-101599665D01*
X150793397Y-101609406D01*
X150724917Y-101614375D01*
X150720462Y-101615359D01*
X150720459Y-101615359D01*
X150460053Y-101672852D01*
X150460050Y-101672853D01*
X150455597Y-101673836D01*
X150197681Y-101771551D01*
X150193694Y-101773765D01*
X150193693Y-101773766D01*
X149966560Y-101899927D01*
X149956572Y-101905475D01*
X149952940Y-101908247D01*
X149763636Y-102052720D01*
X149737322Y-102072802D01*
X149734129Y-102076068D01*
X149734127Y-102076070D01*
X149547717Y-102266758D01*
X149547713Y-102266763D01*
X149544523Y-102270026D01*
X149541836Y-102273718D01*
X149541834Y-102273720D01*
X149413861Y-102449537D01*
X149382213Y-102493016D01*
X149253794Y-102737101D01*
X149161955Y-102997168D01*
X149143073Y-103092966D01*
X149118492Y-103217684D01*
X149108620Y-103267768D01*
X149108393Y-103272322D01*
X149108393Y-103272324D01*
X149096178Y-103517692D01*
X149094906Y-103543233D01*
X127571925Y-103543233D01*
X127729395Y-103455046D01*
X127729399Y-103455043D01*
X127734442Y-103452219D01*
X127897012Y-103317012D01*
X128032219Y-103154442D01*
X128035043Y-103149399D01*
X128035046Y-103149395D01*
X128132713Y-102974998D01*
X128132714Y-102974996D01*
X128135537Y-102969955D01*
X128137393Y-102964488D01*
X128137395Y-102964483D01*
X128201647Y-102775200D01*
X128203504Y-102769730D01*
X128204935Y-102759865D01*
X128233314Y-102564140D01*
X128233314Y-102564138D01*
X128233846Y-102560470D01*
X128235429Y-102500000D01*
X128216081Y-102289440D01*
X128203359Y-102244329D01*
X128160255Y-102091496D01*
X128158686Y-102085931D01*
X128153824Y-102076070D01*
X128067719Y-101901469D01*
X128065165Y-101896290D01*
X127938651Y-101726867D01*
X127801045Y-101599665D01*
X127787622Y-101587257D01*
X127787620Y-101587255D01*
X127783381Y-101583337D01*
X127684894Y-101521196D01*
X127609434Y-101473584D01*
X127609433Y-101473584D01*
X127604554Y-101470505D01*
X127408160Y-101392152D01*
X127402503Y-101391027D01*
X127402497Y-101391025D01*
X127206442Y-101352028D01*
X127206440Y-101352028D01*
X127200775Y-101350901D01*
X127195000Y-101350825D01*
X127194996Y-101350825D01*
X127088976Y-101349437D01*
X126989346Y-101348133D01*
X126983649Y-101349112D01*
X126983648Y-101349112D01*
X126786650Y-101382962D01*
X126786649Y-101382962D01*
X126780953Y-101383941D01*
X126582575Y-101457127D01*
X126577614Y-101460079D01*
X126577613Y-101460079D01*
X126430421Y-101547649D01*
X126400856Y-101565238D01*
X126241881Y-101704655D01*
X126110976Y-101870708D01*
X126108287Y-101875819D01*
X126108285Y-101875822D01*
X126058400Y-101970638D01*
X126012523Y-102057836D01*
X125949820Y-102259773D01*
X125949141Y-102265510D01*
X125935088Y-102384239D01*
X125907217Y-102449537D01*
X125848469Y-102489401D01*
X125777494Y-102491174D01*
X125716828Y-102454295D01*
X125685730Y-102390471D01*
X125684490Y-102380958D01*
X125676610Y-102295197D01*
X125676081Y-102289440D01*
X125663359Y-102244329D01*
X125620255Y-102091496D01*
X125618686Y-102085931D01*
X125613824Y-102076070D01*
X125527719Y-101901469D01*
X125525165Y-101896290D01*
X125398651Y-101726867D01*
X125261045Y-101599665D01*
X125247622Y-101587257D01*
X125247620Y-101587255D01*
X125243381Y-101583337D01*
X125144894Y-101521196D01*
X125069434Y-101473584D01*
X125069433Y-101473584D01*
X125064554Y-101470505D01*
X124868160Y-101392152D01*
X124862503Y-101391027D01*
X124862497Y-101391025D01*
X124666442Y-101352028D01*
X124666440Y-101352028D01*
X124660775Y-101350901D01*
X124655000Y-101350825D01*
X124654996Y-101350825D01*
X124548976Y-101349437D01*
X124449346Y-101348133D01*
X124443649Y-101349112D01*
X124443648Y-101349112D01*
X124246650Y-101382962D01*
X124246649Y-101382962D01*
X124240953Y-101383941D01*
X124042575Y-101457127D01*
X124037614Y-101460079D01*
X124037613Y-101460079D01*
X123890421Y-101547649D01*
X123860856Y-101565238D01*
X123701881Y-101704655D01*
X123687458Y-101722951D01*
X123582949Y-101855520D01*
X123525068Y-101896633D01*
X123454148Y-101899927D01*
X123392705Y-101864356D01*
X123360248Y-101801213D01*
X123357999Y-101777514D01*
X123357999Y-101605331D01*
X123357629Y-101598510D01*
X123352105Y-101547648D01*
X123348479Y-101532396D01*
X123303324Y-101411946D01*
X123294786Y-101396351D01*
X123218285Y-101294276D01*
X123205724Y-101281715D01*
X123103649Y-101205214D01*
X123088054Y-101196676D01*
X122967606Y-101151522D01*
X122952351Y-101147895D01*
X122901486Y-101142369D01*
X122894672Y-101142000D01*
X122272115Y-101142000D01*
X122256876Y-101146475D01*
X122255671Y-101147865D01*
X122254000Y-101155548D01*
X122254000Y-103839884D01*
X122258475Y-103855123D01*
X122259865Y-103856328D01*
X122267548Y-103857999D01*
X122894669Y-103857999D01*
X122901490Y-103857629D01*
X122952352Y-103852105D01*
X122967604Y-103848479D01*
X123088054Y-103803324D01*
X123103649Y-103794786D01*
X123205724Y-103718285D01*
X123218285Y-103705724D01*
X123294786Y-103603649D01*
X123303324Y-103588054D01*
X123348478Y-103467606D01*
X123352105Y-103452351D01*
X123357631Y-103401486D01*
X123358000Y-103394672D01*
X123358000Y-103217684D01*
X123378002Y-103149563D01*
X123431658Y-103103070D01*
X123501932Y-103092966D01*
X123566512Y-103122460D01*
X123586895Y-103144962D01*
X123661405Y-103250391D01*
X123812865Y-103397937D01*
X123817661Y-103401142D01*
X123817664Y-103401144D01*
X123900910Y-103456767D01*
X123985317Y-103513166D01*
X123985319Y-103513168D01*
X123988677Y-103515411D01*
X123988236Y-103516071D01*
X124035241Y-103562852D01*
X124050497Y-103632190D01*
X124025844Y-103698769D01*
X123969110Y-103741451D01*
X123924797Y-103749500D01*
X123820181Y-103749500D01*
X123808296Y-103748172D01*
X123808255Y-103748682D01*
X123799309Y-103747962D01*
X123790553Y-103745981D01*
X123755240Y-103748172D01*
X123737736Y-103749258D01*
X123729933Y-103749500D01*
X123714060Y-103749500D01*
X123703948Y-103750948D01*
X123693894Y-103751978D01*
X123665903Y-103753715D01*
X123647462Y-103754859D01*
X123639018Y-103757907D01*
X123635306Y-103758676D01*
X123620601Y-103762343D01*
X123616973Y-103763404D01*
X123608082Y-103764677D01*
X123565718Y-103783939D01*
X123556363Y-103787746D01*
X123521057Y-103800491D01*
X123521053Y-103800493D01*
X123512613Y-103803540D01*
X123505365Y-103808835D01*
X123502025Y-103810611D01*
X123488911Y-103818274D01*
X123485739Y-103820303D01*
X123477572Y-103824016D01*
X123470777Y-103829871D01*
X123470774Y-103829873D01*
X123442325Y-103854387D01*
X123434405Y-103860675D01*
X123423664Y-103868522D01*
X123412921Y-103879265D01*
X123406075Y-103885623D01*
X123368963Y-103917600D01*
X123364080Y-103925134D01*
X123358181Y-103931896D01*
X123358176Y-103931892D01*
X123349200Y-103942986D01*
X120195720Y-107096466D01*
X120186376Y-107103932D01*
X120186708Y-107104322D01*
X120179872Y-107110140D01*
X120172280Y-107114930D01*
X120166338Y-107121658D01*
X120162160Y-107126389D01*
X120125509Y-107154947D01*
X120110120Y-107162890D01*
X120110117Y-107162892D01*
X120103369Y-107166375D01*
X119975604Y-107277831D01*
X119934475Y-107336351D01*
X119894971Y-107392561D01*
X119878113Y-107416547D01*
X119816524Y-107574513D01*
X119815532Y-107582046D01*
X119815532Y-107582047D01*
X119799191Y-107706173D01*
X119770469Y-107771100D01*
X119763364Y-107778822D01*
X119549469Y-107992717D01*
X119487157Y-108026743D01*
X119416342Y-108021678D01*
X119394044Y-108010749D01*
X119370361Y-107996085D01*
X119370356Y-107996083D01*
X119360433Y-107989939D01*
X119348961Y-107987795D01*
X119348960Y-107987794D01*
X119255725Y-107970365D01*
X119255723Y-107970365D01*
X119250000Y-107969295D01*
X117750000Y-107969295D01*
X117748558Y-107969362D01*
X117748543Y-107969362D01*
X117736668Y-107969911D01*
X117721793Y-107970599D01*
X117714789Y-107972592D01*
X117714788Y-107972592D01*
X117632226Y-107996083D01*
X117613736Y-108001344D01*
X117604418Y-108008380D01*
X117604419Y-108008380D01*
X117533399Y-108062011D01*
X117533398Y-108062012D01*
X117524081Y-108069048D01*
X117506689Y-108097137D01*
X117471083Y-108154643D01*
X117471082Y-108154646D01*
X117464939Y-108164567D01*
X117462795Y-108176039D01*
X117462794Y-108176040D01*
X117445365Y-108269275D01*
X117444295Y-108275000D01*
X117444295Y-109275000D01*
X117444761Y-109278803D01*
X117444761Y-109278811D01*
X117449198Y-109315057D01*
X117453320Y-109348734D01*
X117460304Y-109364026D01*
X117463061Y-109370063D01*
X117473166Y-109440336D01*
X117468196Y-109459306D01*
X117464939Y-109464567D01*
X117462794Y-109476042D01*
X117455622Y-109514410D01*
X117444295Y-109575000D01*
X117444295Y-109598500D01*
X117424293Y-109666621D01*
X117370637Y-109713114D01*
X117318295Y-109724500D01*
X116845175Y-109724500D01*
X116833295Y-109723172D01*
X116833254Y-109723683D01*
X116824309Y-109722963D01*
X116815552Y-109720982D01*
X116762746Y-109724258D01*
X116754944Y-109724500D01*
X116739060Y-109724500D01*
X116734612Y-109725137D01*
X116734610Y-109725137D01*
X116728942Y-109725948D01*
X116718891Y-109726978D01*
X116681419Y-109729303D01*
X116681417Y-109729303D01*
X116672462Y-109729859D01*
X116664025Y-109732905D01*
X116660325Y-109733671D01*
X116645601Y-109737343D01*
X116641973Y-109738404D01*
X116633082Y-109739677D01*
X116590718Y-109758939D01*
X116581363Y-109762746D01*
X116546057Y-109775491D01*
X116546053Y-109775493D01*
X116537613Y-109778540D01*
X116530365Y-109783835D01*
X116527025Y-109785611D01*
X116513911Y-109793274D01*
X116510739Y-109795303D01*
X116502572Y-109799016D01*
X116495777Y-109804871D01*
X116495774Y-109804873D01*
X116467325Y-109829387D01*
X116459405Y-109835675D01*
X116448664Y-109843522D01*
X116437921Y-109854265D01*
X116431075Y-109860623D01*
X116393963Y-109892600D01*
X116389080Y-109900134D01*
X116383181Y-109906896D01*
X116383176Y-109906892D01*
X116374200Y-109917986D01*
X115529946Y-110762240D01*
X115467634Y-110796266D01*
X115440192Y-110799143D01*
X115418895Y-110799031D01*
X115411508Y-110800805D01*
X115411504Y-110800805D01*
X115271176Y-110834496D01*
X115254032Y-110838612D01*
X115247288Y-110842093D01*
X115247285Y-110842094D01*
X115192093Y-110870581D01*
X115103369Y-110916375D01*
X115097647Y-110921367D01*
X115097645Y-110921368D01*
X115063770Y-110950919D01*
X114975604Y-111027831D01*
X114971237Y-111034045D01*
X114921817Y-111104363D01*
X114878113Y-111166547D01*
X114816524Y-111324513D01*
X114815532Y-111332046D01*
X114815532Y-111332047D01*
X114797301Y-111470532D01*
X114794394Y-111492611D01*
X109510897Y-111492611D01*
X109501941Y-111473438D01*
X109500500Y-111454437D01*
X109500500Y-111156705D01*
X109520502Y-111088584D01*
X109574158Y-111042091D01*
X109626500Y-111030705D01*
X109800000Y-111030705D01*
X109801442Y-111030638D01*
X109801457Y-111030638D01*
X109813332Y-111030089D01*
X109828207Y-111029401D01*
X109913771Y-111005056D01*
X109925035Y-111001851D01*
X109936264Y-110998656D01*
X109991340Y-110957065D01*
X110016601Y-110937989D01*
X110016602Y-110937988D01*
X110025919Y-110930952D01*
X110063299Y-110870581D01*
X110078917Y-110845357D01*
X110078918Y-110845354D01*
X110085061Y-110835433D01*
X110088504Y-110817019D01*
X110104635Y-110730725D01*
X110104635Y-110730723D01*
X110105705Y-110725000D01*
X110105705Y-109575000D01*
X110104809Y-109569275D01*
X110092720Y-109492117D01*
X110091058Y-109481508D01*
X110085951Y-109472061D01*
X110083437Y-109464613D01*
X110080604Y-109393673D01*
X110081284Y-109391533D01*
X110085061Y-109385433D01*
X110087206Y-109373957D01*
X110091424Y-109363070D01*
X110093704Y-109363953D01*
X110118569Y-109315057D01*
X110179856Y-109279218D01*
X110210240Y-109275500D01*
X110404819Y-109275500D01*
X110416704Y-109276828D01*
X110416745Y-109276318D01*
X110425691Y-109277038D01*
X110434447Y-109279019D01*
X110487263Y-109275742D01*
X110495067Y-109275500D01*
X110510940Y-109275500D01*
X110521052Y-109274052D01*
X110531106Y-109273022D01*
X110561146Y-109271158D01*
X110577538Y-109270141D01*
X110585982Y-109267093D01*
X110589694Y-109266324D01*
X110604399Y-109262657D01*
X110608027Y-109261596D01*
X110616918Y-109260323D01*
X110659282Y-109241061D01*
X110668637Y-109237254D01*
X110703943Y-109224509D01*
X110703947Y-109224507D01*
X110712387Y-109221460D01*
X110719635Y-109216165D01*
X110722975Y-109214389D01*
X110736089Y-109206726D01*
X110739261Y-109204697D01*
X110747428Y-109200984D01*
X110754223Y-109195129D01*
X110754226Y-109195127D01*
X110782675Y-109170613D01*
X110790596Y-109164324D01*
X110797402Y-109159352D01*
X110801336Y-109156478D01*
X110812079Y-109145735D01*
X110818926Y-109139377D01*
X110849237Y-109113259D01*
X110856037Y-109107400D01*
X110860920Y-109099866D01*
X110866819Y-109093104D01*
X110866824Y-109093108D01*
X110875800Y-109082014D01*
X111219355Y-108738459D01*
X111281667Y-108704433D01*
X111310420Y-108701570D01*
X111323760Y-108701779D01*
X111331165Y-108700083D01*
X111331166Y-108700083D01*
X111391586Y-108686245D01*
X111489029Y-108663928D01*
X111640498Y-108587747D01*
X111646270Y-108582818D01*
X111646272Y-108582816D01*
X111707304Y-108530689D01*
X111772094Y-108501658D01*
X111789135Y-108500500D01*
X112509819Y-108500500D01*
X112521704Y-108501828D01*
X112521745Y-108501318D01*
X112530691Y-108502038D01*
X112539447Y-108504019D01*
X112592263Y-108500742D01*
X112600067Y-108500500D01*
X112615940Y-108500500D01*
X112626052Y-108499052D01*
X112636106Y-108498022D01*
X112664097Y-108496285D01*
X112682538Y-108495141D01*
X112690982Y-108492093D01*
X112694694Y-108491324D01*
X112709399Y-108487657D01*
X112713027Y-108486596D01*
X112721918Y-108485323D01*
X112764282Y-108466061D01*
X112773637Y-108462254D01*
X112808943Y-108449509D01*
X112808947Y-108449507D01*
X112817387Y-108446460D01*
X112824635Y-108441165D01*
X112827975Y-108439389D01*
X112841089Y-108431726D01*
X112844261Y-108429697D01*
X112852428Y-108425984D01*
X112859223Y-108420129D01*
X112859226Y-108420127D01*
X112887675Y-108395613D01*
X112895596Y-108389324D01*
X112902402Y-108384352D01*
X112906336Y-108381478D01*
X112917079Y-108370735D01*
X112923926Y-108364377D01*
X112961037Y-108332400D01*
X112965920Y-108324866D01*
X112971819Y-108318104D01*
X112971824Y-108318108D01*
X112980800Y-108307014D01*
X117384280Y-103903534D01*
X117393624Y-103896068D01*
X117393292Y-103895678D01*
X117400128Y-103889860D01*
X117407720Y-103885070D01*
X117442756Y-103845399D01*
X117448102Y-103839712D01*
X117459320Y-103828494D01*
X117462676Y-103824016D01*
X117465450Y-103820316D01*
X117471832Y-103812477D01*
X117496682Y-103784339D01*
X117502623Y-103777612D01*
X117506437Y-103769489D01*
X117508508Y-103766336D01*
X117516327Y-103753324D01*
X117518143Y-103750006D01*
X117523526Y-103742824D01*
X117539858Y-103699259D01*
X117543783Y-103689944D01*
X117550404Y-103675842D01*
X117563553Y-103647837D01*
X117564935Y-103638964D01*
X117566042Y-103635342D01*
X117569891Y-103620672D01*
X117570702Y-103616984D01*
X117573852Y-103608581D01*
X117574517Y-103599633D01*
X117576446Y-103590860D01*
X117579702Y-103591576D01*
X117599001Y-103540308D01*
X117638072Y-103506189D01*
X117734442Y-103452219D01*
X117803639Y-103394669D01*
X120642001Y-103394669D01*
X120642371Y-103401490D01*
X120647895Y-103452352D01*
X120651521Y-103467604D01*
X120696676Y-103588054D01*
X120705214Y-103603649D01*
X120781715Y-103705724D01*
X120794276Y-103718285D01*
X120896351Y-103794786D01*
X120911946Y-103803324D01*
X121032394Y-103848478D01*
X121047649Y-103852105D01*
X121098514Y-103857631D01*
X121105328Y-103858000D01*
X121727885Y-103858000D01*
X121743124Y-103853525D01*
X121744329Y-103852135D01*
X121746000Y-103844452D01*
X121746000Y-102772115D01*
X121741525Y-102756876D01*
X121740135Y-102755671D01*
X121732452Y-102754000D01*
X120660116Y-102754000D01*
X120644877Y-102758475D01*
X120643672Y-102759865D01*
X120642001Y-102767548D01*
X120642001Y-103394669D01*
X117803639Y-103394669D01*
X117897012Y-103317012D01*
X118032219Y-103154442D01*
X118035043Y-103149399D01*
X118035046Y-103149395D01*
X118132713Y-102974998D01*
X118132714Y-102974996D01*
X118135537Y-102969955D01*
X118137393Y-102964488D01*
X118137395Y-102964483D01*
X118201647Y-102775200D01*
X118203504Y-102769730D01*
X118204935Y-102759865D01*
X118233314Y-102564140D01*
X118233314Y-102564138D01*
X118233846Y-102560470D01*
X118235429Y-102500000D01*
X118216081Y-102289440D01*
X118203359Y-102244329D01*
X118198721Y-102227885D01*
X120642000Y-102227885D01*
X120646475Y-102243124D01*
X120647865Y-102244329D01*
X120655548Y-102246000D01*
X121727885Y-102246000D01*
X121743124Y-102241525D01*
X121744329Y-102240135D01*
X121746000Y-102232452D01*
X121746000Y-101160116D01*
X121741525Y-101144877D01*
X121740135Y-101143672D01*
X121732452Y-101142001D01*
X121105331Y-101142001D01*
X121098510Y-101142371D01*
X121047648Y-101147895D01*
X121032396Y-101151521D01*
X120911946Y-101196676D01*
X120896351Y-101205214D01*
X120794276Y-101281715D01*
X120781715Y-101294276D01*
X120705214Y-101396351D01*
X120696676Y-101411946D01*
X120651522Y-101532394D01*
X120647895Y-101547649D01*
X120642369Y-101598514D01*
X120642000Y-101605328D01*
X120642000Y-102227885D01*
X118198721Y-102227885D01*
X118160255Y-102091496D01*
X118158686Y-102085931D01*
X118153824Y-102076070D01*
X118067719Y-101901469D01*
X118065165Y-101896290D01*
X117938651Y-101726867D01*
X117801045Y-101599665D01*
X117787622Y-101587257D01*
X117787620Y-101587255D01*
X117783381Y-101583337D01*
X117684894Y-101521196D01*
X117609434Y-101473584D01*
X117609433Y-101473584D01*
X117604554Y-101470505D01*
X117408160Y-101392152D01*
X117402503Y-101391027D01*
X117402497Y-101391025D01*
X117206442Y-101352028D01*
X117206440Y-101352028D01*
X117200775Y-101350901D01*
X117195000Y-101350825D01*
X117194996Y-101350825D01*
X117088976Y-101349437D01*
X116989346Y-101348133D01*
X116983649Y-101349112D01*
X116983648Y-101349112D01*
X116786650Y-101382962D01*
X116786649Y-101382962D01*
X116780953Y-101383941D01*
X116582575Y-101457127D01*
X116577614Y-101460079D01*
X116577613Y-101460079D01*
X116430421Y-101547649D01*
X116400856Y-101565238D01*
X116241881Y-101704655D01*
X116110976Y-101870708D01*
X116108287Y-101875819D01*
X116108285Y-101875822D01*
X116058400Y-101970638D01*
X116012523Y-102057836D01*
X115949820Y-102259773D01*
X115949141Y-102265510D01*
X115935088Y-102384239D01*
X115907217Y-102449537D01*
X115848469Y-102489401D01*
X115777494Y-102491174D01*
X115716828Y-102454295D01*
X115685730Y-102390471D01*
X115684490Y-102380958D01*
X115676610Y-102295197D01*
X115676081Y-102289440D01*
X115663359Y-102244329D01*
X115620255Y-102091496D01*
X115618686Y-102085931D01*
X115613824Y-102076070D01*
X115527719Y-101901469D01*
X115525165Y-101896290D01*
X115398651Y-101726867D01*
X115261045Y-101599665D01*
X115247622Y-101587257D01*
X115247620Y-101587255D01*
X115243381Y-101583337D01*
X115144894Y-101521196D01*
X115069434Y-101473584D01*
X115069433Y-101473584D01*
X115064554Y-101470505D01*
X114868160Y-101392152D01*
X114862503Y-101391027D01*
X114862497Y-101391025D01*
X114666442Y-101352028D01*
X114666440Y-101352028D01*
X114660775Y-101350901D01*
X114655000Y-101350825D01*
X114654996Y-101350825D01*
X114548976Y-101349437D01*
X114449346Y-101348133D01*
X114443649Y-101349112D01*
X114443648Y-101349112D01*
X114246650Y-101382962D01*
X114246649Y-101382962D01*
X114240953Y-101383941D01*
X114042575Y-101457127D01*
X114037614Y-101460079D01*
X114037613Y-101460079D01*
X113890421Y-101547649D01*
X113860856Y-101565238D01*
X113701881Y-101704655D01*
X113687458Y-101722951D01*
X113582949Y-101855520D01*
X113525068Y-101896633D01*
X113454148Y-101899927D01*
X113392705Y-101864356D01*
X113360248Y-101801213D01*
X113357999Y-101777514D01*
X113357999Y-101605331D01*
X113357629Y-101598510D01*
X113352105Y-101547648D01*
X113348479Y-101532396D01*
X113303324Y-101411946D01*
X113294786Y-101396351D01*
X113218285Y-101294276D01*
X113205724Y-101281715D01*
X113103649Y-101205214D01*
X113088054Y-101196676D01*
X112967606Y-101151522D01*
X112952351Y-101147895D01*
X112901486Y-101142369D01*
X112894672Y-101142000D01*
X112272115Y-101142000D01*
X112256876Y-101146475D01*
X112255671Y-101147865D01*
X112254000Y-101155548D01*
X112254000Y-103839884D01*
X112258475Y-103855123D01*
X112259865Y-103856328D01*
X112267548Y-103857999D01*
X112894669Y-103857999D01*
X112901490Y-103857629D01*
X112952352Y-103852105D01*
X112967604Y-103848479D01*
X113088054Y-103803324D01*
X113103649Y-103794786D01*
X113205724Y-103718285D01*
X113218285Y-103705724D01*
X113294786Y-103603649D01*
X113303324Y-103588054D01*
X113348478Y-103467606D01*
X113352105Y-103452351D01*
X113357631Y-103401486D01*
X113358000Y-103394672D01*
X113358000Y-103217684D01*
X113378002Y-103149563D01*
X113431658Y-103103070D01*
X113501932Y-103092966D01*
X113566512Y-103122460D01*
X113586895Y-103144962D01*
X113661405Y-103250391D01*
X113812865Y-103397937D01*
X113817661Y-103401142D01*
X113817664Y-103401144D01*
X113900910Y-103456767D01*
X113988677Y-103515411D01*
X113993985Y-103517692D01*
X113993986Y-103517692D01*
X114177650Y-103596600D01*
X114177653Y-103596601D01*
X114182953Y-103598878D01*
X114188582Y-103600152D01*
X114188583Y-103600152D01*
X114383550Y-103644269D01*
X114383553Y-103644269D01*
X114389186Y-103645544D01*
X114394957Y-103645771D01*
X114394959Y-103645771D01*
X114447542Y-103647837D01*
X114600470Y-103653846D01*
X114606179Y-103653018D01*
X114606183Y-103653018D01*
X114804015Y-103624333D01*
X114804019Y-103624332D01*
X114809730Y-103623504D01*
X114888987Y-103596600D01*
X115004483Y-103557395D01*
X115004488Y-103557393D01*
X115009955Y-103555537D01*
X115023790Y-103547789D01*
X115189395Y-103455046D01*
X115189399Y-103455043D01*
X115194442Y-103452219D01*
X115357012Y-103317012D01*
X115492219Y-103154442D01*
X115495043Y-103149399D01*
X115495046Y-103149395D01*
X115592713Y-102974998D01*
X115592714Y-102974996D01*
X115595537Y-102969955D01*
X115597393Y-102964488D01*
X115597395Y-102964483D01*
X115661647Y-102775200D01*
X115663504Y-102769730D01*
X115664333Y-102764015D01*
X115685090Y-102620860D01*
X115714660Y-102556315D01*
X115774432Y-102518003D01*
X115845429Y-102518087D01*
X115905109Y-102556542D01*
X115934525Y-102621158D01*
X115935515Y-102630695D01*
X115938796Y-102680749D01*
X115940217Y-102686345D01*
X115940218Y-102686350D01*
X115962000Y-102772115D01*
X115990845Y-102885690D01*
X115993262Y-102890933D01*
X116055736Y-103026450D01*
X116079369Y-103077714D01*
X116201405Y-103250391D01*
X116219243Y-103267768D01*
X116322909Y-103368755D01*
X116357746Y-103430616D01*
X116353609Y-103501492D01*
X116324082Y-103548104D01*
X112409591Y-107462595D01*
X112347279Y-107496621D01*
X112320496Y-107499500D01*
X111789309Y-107499500D01*
X111721188Y-107479498D01*
X111705499Y-107467583D01*
X111652721Y-107420560D01*
X111502881Y-107341224D01*
X111338441Y-107299919D01*
X111330843Y-107299879D01*
X111330841Y-107299879D01*
X111253668Y-107299475D01*
X111168895Y-107299031D01*
X111161508Y-107300805D01*
X111161504Y-107300805D01*
X111018162Y-107335220D01*
X111004032Y-107338612D01*
X110997288Y-107342093D01*
X110997285Y-107342094D01*
X110875206Y-107405104D01*
X110853369Y-107416375D01*
X110847647Y-107421367D01*
X110847645Y-107421368D01*
X110800386Y-107462595D01*
X110725604Y-107527831D01*
X110628113Y-107666547D01*
X110566524Y-107824513D01*
X110565532Y-107832046D01*
X110565532Y-107832047D01*
X110549191Y-107956173D01*
X110520469Y-108021100D01*
X110513364Y-108028822D01*
X110304591Y-108237595D01*
X110242279Y-108271621D01*
X110215496Y-108274500D01*
X110207435Y-108274500D01*
X110139314Y-108254498D01*
X110092821Y-108200842D01*
X110086245Y-108182981D01*
X110076852Y-108149966D01*
X110076850Y-108149962D01*
X110073656Y-108138736D01*
X110041469Y-108096113D01*
X110012989Y-108058399D01*
X110012987Y-108058397D01*
X110005952Y-108049081D01*
X109961694Y-108021678D01*
X109920357Y-107996083D01*
X109920354Y-107996082D01*
X109910433Y-107989939D01*
X109898961Y-107987795D01*
X109898960Y-107987794D01*
X109805725Y-107970365D01*
X109805723Y-107970365D01*
X109800000Y-107969295D01*
X108300000Y-107969295D01*
X108298558Y-107969362D01*
X108298543Y-107969362D01*
X108286668Y-107969911D01*
X108271793Y-107970599D01*
X108264789Y-107972592D01*
X108264788Y-107972592D01*
X108182226Y-107996083D01*
X108163736Y-108001344D01*
X108154418Y-108008380D01*
X108154419Y-108008380D01*
X108083399Y-108062011D01*
X108083398Y-108062012D01*
X108074081Y-108069048D01*
X108056689Y-108097137D01*
X108021083Y-108154643D01*
X108021082Y-108154646D01*
X108014939Y-108164567D01*
X108012795Y-108176039D01*
X108012794Y-108176040D01*
X107995365Y-108269275D01*
X107994295Y-108275000D01*
X107994295Y-109275000D01*
X107994761Y-109278803D01*
X107994761Y-109278811D01*
X107999198Y-109315057D01*
X108003320Y-109348734D01*
X108010304Y-109364026D01*
X108013061Y-109370063D01*
X108023166Y-109440336D01*
X108018196Y-109459306D01*
X108014939Y-109464567D01*
X108012794Y-109476042D01*
X108005622Y-109514410D01*
X107994295Y-109575000D01*
X107994295Y-110725000D01*
X107994362Y-110726442D01*
X107994362Y-110726457D01*
X107994911Y-110738332D01*
X107995599Y-110753207D01*
X108026344Y-110861264D01*
X108033380Y-110870581D01*
X108084284Y-110937989D01*
X108094048Y-110950919D01*
X108131809Y-110974299D01*
X108179643Y-111003917D01*
X108179646Y-111003918D01*
X108189567Y-111010061D01*
X108201039Y-111012205D01*
X108201040Y-111012206D01*
X108294275Y-111029635D01*
X108294277Y-111029635D01*
X108300000Y-111030705D01*
X108373500Y-111030705D01*
X108441621Y-111050707D01*
X108488114Y-111104363D01*
X108499500Y-111156705D01*
X108499500Y-111454288D01*
X108479498Y-111522409D01*
X108475444Y-111527719D01*
X108475604Y-111527831D01*
X108406883Y-111625612D01*
X108378113Y-111666547D01*
X108377406Y-111666050D01*
X108331999Y-111712155D01*
X108262743Y-111727776D01*
X108196035Y-111703474D01*
X108186969Y-111696123D01*
X108102721Y-111621060D01*
X108095067Y-111617007D01*
X108035080Y-111585246D01*
X107952881Y-111541724D01*
X107788441Y-111500419D01*
X107780843Y-111500379D01*
X107780841Y-111500379D01*
X107703668Y-111499975D01*
X107618895Y-111499531D01*
X107611508Y-111501305D01*
X107611504Y-111501305D01*
X107479365Y-111533030D01*
X107454032Y-111539112D01*
X107447288Y-111542593D01*
X107447285Y-111542594D01*
X107442089Y-111545276D01*
X107303369Y-111616875D01*
X107297647Y-111621867D01*
X107297645Y-111621868D01*
X107246998Y-111666050D01*
X107175604Y-111728331D01*
X107134475Y-111786851D01*
X107087711Y-111853391D01*
X107078113Y-111867047D01*
X107024664Y-112004135D01*
X107020515Y-112014778D01*
X107016524Y-112025013D01*
X107015532Y-112032546D01*
X107015532Y-112032547D01*
X106997665Y-112168266D01*
X106994394Y-112193111D01*
X100177390Y-112193111D01*
X100178766Y-112189687D01*
X100178767Y-112189685D01*
X100181601Y-112182634D01*
X100197620Y-112070077D01*
X100204909Y-112018862D01*
X100204909Y-112018859D01*
X100205490Y-112014778D01*
X100205645Y-112000000D01*
X100203840Y-111985080D01*
X100191145Y-111880180D01*
X100185276Y-111831680D01*
X100125345Y-111673077D01*
X100029312Y-111533349D01*
X100029776Y-111533030D01*
X100001941Y-111473438D01*
X100000500Y-111454437D01*
X100000500Y-111156705D01*
X100020502Y-111088584D01*
X100074158Y-111042091D01*
X100126500Y-111030705D01*
X100250000Y-111030705D01*
X100251442Y-111030638D01*
X100251457Y-111030638D01*
X100263332Y-111030089D01*
X100278207Y-111029401D01*
X100363771Y-111005056D01*
X100375035Y-111001851D01*
X100386264Y-110998656D01*
X100441340Y-110957065D01*
X100466601Y-110937989D01*
X100466602Y-110937988D01*
X100475919Y-110930952D01*
X100513299Y-110870581D01*
X100528917Y-110845357D01*
X100528918Y-110845354D01*
X100535061Y-110835433D01*
X100538504Y-110817019D01*
X100554635Y-110730725D01*
X100554635Y-110730723D01*
X100555705Y-110725000D01*
X100555705Y-109575000D01*
X100554809Y-109569275D01*
X100542720Y-109492117D01*
X100541058Y-109481508D01*
X100535951Y-109472061D01*
X100533437Y-109464613D01*
X100530604Y-109393673D01*
X100531284Y-109391533D01*
X100535061Y-109385433D01*
X100537206Y-109373957D01*
X100541424Y-109363070D01*
X100543891Y-109364026D01*
X100568428Y-109315759D01*
X100629711Y-109279913D01*
X100670215Y-109276597D01*
X100675690Y-109277038D01*
X100684447Y-109279019D01*
X100737263Y-109275742D01*
X100745067Y-109275500D01*
X100760940Y-109275500D01*
X100771052Y-109274052D01*
X100781106Y-109273022D01*
X100811146Y-109271158D01*
X100827538Y-109270141D01*
X100835982Y-109267093D01*
X100839694Y-109266324D01*
X100854399Y-109262657D01*
X100858027Y-109261596D01*
X100866918Y-109260323D01*
X100909282Y-109241061D01*
X100918637Y-109237254D01*
X100953943Y-109224509D01*
X100953947Y-109224507D01*
X100962387Y-109221460D01*
X100969635Y-109216165D01*
X100972975Y-109214389D01*
X100986089Y-109206726D01*
X100989261Y-109204697D01*
X100997428Y-109200984D01*
X101004223Y-109195129D01*
X101004226Y-109195127D01*
X101032675Y-109170613D01*
X101040596Y-109164324D01*
X101047402Y-109159352D01*
X101051336Y-109156478D01*
X101062079Y-109145735D01*
X101068926Y-109139377D01*
X101099237Y-109113259D01*
X101106037Y-109107400D01*
X101110920Y-109099866D01*
X101116819Y-109093104D01*
X101116824Y-109093108D01*
X101125800Y-109082014D01*
X101469355Y-108738459D01*
X101531667Y-108704433D01*
X101560420Y-108701570D01*
X101573760Y-108701779D01*
X101581165Y-108700083D01*
X101581166Y-108700083D01*
X101641586Y-108686245D01*
X101739029Y-108663928D01*
X101890498Y-108587747D01*
X101896270Y-108582818D01*
X101896272Y-108582816D01*
X101957304Y-108530689D01*
X102022094Y-108501658D01*
X102039135Y-108500500D01*
X102509819Y-108500500D01*
X102521704Y-108501828D01*
X102521745Y-108501318D01*
X102530691Y-108502038D01*
X102539447Y-108504019D01*
X102592263Y-108500742D01*
X102600067Y-108500500D01*
X102615940Y-108500500D01*
X102626052Y-108499052D01*
X102636106Y-108498022D01*
X102664097Y-108496285D01*
X102682538Y-108495141D01*
X102690982Y-108492093D01*
X102694694Y-108491324D01*
X102709399Y-108487657D01*
X102713027Y-108486596D01*
X102721918Y-108485323D01*
X102764282Y-108466061D01*
X102773637Y-108462254D01*
X102808943Y-108449509D01*
X102808947Y-108449507D01*
X102817387Y-108446460D01*
X102824635Y-108441165D01*
X102827975Y-108439389D01*
X102841089Y-108431726D01*
X102844261Y-108429697D01*
X102852428Y-108425984D01*
X102859223Y-108420129D01*
X102859226Y-108420127D01*
X102887675Y-108395613D01*
X102895596Y-108389324D01*
X102902402Y-108384352D01*
X102906336Y-108381478D01*
X102917079Y-108370735D01*
X102923926Y-108364377D01*
X102961037Y-108332400D01*
X102965920Y-108324866D01*
X102971819Y-108318104D01*
X102971824Y-108318108D01*
X102980800Y-108307014D01*
X107384280Y-103903534D01*
X107393624Y-103896068D01*
X107393292Y-103895678D01*
X107400128Y-103889860D01*
X107407720Y-103885070D01*
X107442756Y-103845399D01*
X107448102Y-103839712D01*
X107459320Y-103828494D01*
X107462676Y-103824016D01*
X107465450Y-103820316D01*
X107471832Y-103812477D01*
X107496682Y-103784339D01*
X107502623Y-103777612D01*
X107506437Y-103769489D01*
X107508508Y-103766336D01*
X107516327Y-103753324D01*
X107518143Y-103750006D01*
X107523526Y-103742824D01*
X107539858Y-103699259D01*
X107543783Y-103689944D01*
X107550404Y-103675842D01*
X107563553Y-103647837D01*
X107564935Y-103638964D01*
X107566042Y-103635342D01*
X107569891Y-103620672D01*
X107570702Y-103616984D01*
X107573852Y-103608581D01*
X107574517Y-103599633D01*
X107576446Y-103590860D01*
X107579702Y-103591576D01*
X107599001Y-103540308D01*
X107638072Y-103506189D01*
X107734442Y-103452219D01*
X107803639Y-103394669D01*
X110642001Y-103394669D01*
X110642371Y-103401490D01*
X110647895Y-103452352D01*
X110651521Y-103467604D01*
X110696676Y-103588054D01*
X110705214Y-103603649D01*
X110781715Y-103705724D01*
X110794276Y-103718285D01*
X110896351Y-103794786D01*
X110911946Y-103803324D01*
X111032394Y-103848478D01*
X111047649Y-103852105D01*
X111098514Y-103857631D01*
X111105328Y-103858000D01*
X111727885Y-103858000D01*
X111743124Y-103853525D01*
X111744329Y-103852135D01*
X111746000Y-103844452D01*
X111746000Y-102772115D01*
X111741525Y-102756876D01*
X111740135Y-102755671D01*
X111732452Y-102754000D01*
X110660116Y-102754000D01*
X110644877Y-102758475D01*
X110643672Y-102759865D01*
X110642001Y-102767548D01*
X110642001Y-103394669D01*
X107803639Y-103394669D01*
X107897012Y-103317012D01*
X108032219Y-103154442D01*
X108035043Y-103149399D01*
X108035046Y-103149395D01*
X108132713Y-102974998D01*
X108132714Y-102974996D01*
X108135537Y-102969955D01*
X108137393Y-102964488D01*
X108137395Y-102964483D01*
X108201647Y-102775200D01*
X108203504Y-102769730D01*
X108204935Y-102759865D01*
X108233314Y-102564140D01*
X108233314Y-102564138D01*
X108233846Y-102560470D01*
X108235429Y-102500000D01*
X108216081Y-102289440D01*
X108203359Y-102244329D01*
X108198721Y-102227885D01*
X110642000Y-102227885D01*
X110646475Y-102243124D01*
X110647865Y-102244329D01*
X110655548Y-102246000D01*
X111727885Y-102246000D01*
X111743124Y-102241525D01*
X111744329Y-102240135D01*
X111746000Y-102232452D01*
X111746000Y-101160116D01*
X111741525Y-101144877D01*
X111740135Y-101143672D01*
X111732452Y-101142001D01*
X111105331Y-101142001D01*
X111098510Y-101142371D01*
X111047648Y-101147895D01*
X111032396Y-101151521D01*
X110911946Y-101196676D01*
X110896351Y-101205214D01*
X110794276Y-101281715D01*
X110781715Y-101294276D01*
X110705214Y-101396351D01*
X110696676Y-101411946D01*
X110651522Y-101532394D01*
X110647895Y-101547649D01*
X110642369Y-101598514D01*
X110642000Y-101605328D01*
X110642000Y-102227885D01*
X108198721Y-102227885D01*
X108160255Y-102091496D01*
X108158686Y-102085931D01*
X108153824Y-102076070D01*
X108067719Y-101901469D01*
X108065165Y-101896290D01*
X107938651Y-101726867D01*
X107801045Y-101599665D01*
X107787622Y-101587257D01*
X107787620Y-101587255D01*
X107783381Y-101583337D01*
X107684894Y-101521196D01*
X107609434Y-101473584D01*
X107609433Y-101473584D01*
X107604554Y-101470505D01*
X107408160Y-101392152D01*
X107402503Y-101391027D01*
X107402497Y-101391025D01*
X107206442Y-101352028D01*
X107206440Y-101352028D01*
X107200775Y-101350901D01*
X107195000Y-101350825D01*
X107194996Y-101350825D01*
X107088976Y-101349437D01*
X106989346Y-101348133D01*
X106983649Y-101349112D01*
X106983648Y-101349112D01*
X106786650Y-101382962D01*
X106786649Y-101382962D01*
X106780953Y-101383941D01*
X106582575Y-101457127D01*
X106577614Y-101460079D01*
X106577613Y-101460079D01*
X106430421Y-101547649D01*
X106400856Y-101565238D01*
X106241881Y-101704655D01*
X106110976Y-101870708D01*
X106108287Y-101875819D01*
X106108285Y-101875822D01*
X106058400Y-101970638D01*
X106012523Y-102057836D01*
X105949820Y-102259773D01*
X105949141Y-102265510D01*
X105935088Y-102384239D01*
X105907217Y-102449537D01*
X105848469Y-102489401D01*
X105777494Y-102491174D01*
X105716828Y-102454295D01*
X105685730Y-102390471D01*
X105684490Y-102380958D01*
X105676610Y-102295197D01*
X105676081Y-102289440D01*
X105663359Y-102244329D01*
X105620255Y-102091496D01*
X105618686Y-102085931D01*
X105613824Y-102076070D01*
X105527719Y-101901469D01*
X105525165Y-101896290D01*
X105398651Y-101726867D01*
X105261045Y-101599665D01*
X105247622Y-101587257D01*
X105247620Y-101587255D01*
X105243381Y-101583337D01*
X105144894Y-101521196D01*
X105069434Y-101473584D01*
X105069433Y-101473584D01*
X105064554Y-101470505D01*
X104868160Y-101392152D01*
X104862503Y-101391027D01*
X104862497Y-101391025D01*
X104666442Y-101352028D01*
X104666440Y-101352028D01*
X104660775Y-101350901D01*
X104655000Y-101350825D01*
X104654996Y-101350825D01*
X104548976Y-101349437D01*
X104449346Y-101348133D01*
X104443649Y-101349112D01*
X104443648Y-101349112D01*
X104246650Y-101382962D01*
X104246649Y-101382962D01*
X104240953Y-101383941D01*
X104042575Y-101457127D01*
X104037614Y-101460079D01*
X104037613Y-101460079D01*
X103890421Y-101547649D01*
X103860856Y-101565238D01*
X103701881Y-101704655D01*
X103687458Y-101722951D01*
X103582949Y-101855520D01*
X103525068Y-101896633D01*
X103454148Y-101899927D01*
X103392705Y-101864356D01*
X103360248Y-101801213D01*
X103357999Y-101777514D01*
X103357999Y-101605331D01*
X103357629Y-101598510D01*
X103352105Y-101547648D01*
X103348479Y-101532396D01*
X103303324Y-101411946D01*
X103294786Y-101396351D01*
X103218285Y-101294276D01*
X103205724Y-101281715D01*
X103103649Y-101205214D01*
X103088054Y-101196676D01*
X102967606Y-101151522D01*
X102952351Y-101147895D01*
X102901486Y-101142369D01*
X102894672Y-101142000D01*
X102272115Y-101142000D01*
X102256876Y-101146475D01*
X102255671Y-101147865D01*
X102254000Y-101155548D01*
X102254000Y-103839884D01*
X102258475Y-103855123D01*
X102259865Y-103856328D01*
X102267548Y-103857999D01*
X102894669Y-103857999D01*
X102901490Y-103857629D01*
X102952352Y-103852105D01*
X102967604Y-103848479D01*
X103088054Y-103803324D01*
X103103649Y-103794786D01*
X103205724Y-103718285D01*
X103218285Y-103705724D01*
X103294786Y-103603649D01*
X103303324Y-103588054D01*
X103348478Y-103467606D01*
X103352105Y-103452351D01*
X103357631Y-103401486D01*
X103358000Y-103394672D01*
X103358000Y-103217684D01*
X103378002Y-103149563D01*
X103431658Y-103103070D01*
X103501932Y-103092966D01*
X103566512Y-103122460D01*
X103586895Y-103144962D01*
X103661405Y-103250391D01*
X103812865Y-103397937D01*
X103817661Y-103401142D01*
X103817664Y-103401144D01*
X103900910Y-103456767D01*
X103988677Y-103515411D01*
X103993985Y-103517692D01*
X103993986Y-103517692D01*
X104177650Y-103596600D01*
X104177653Y-103596601D01*
X104182953Y-103598878D01*
X104188582Y-103600152D01*
X104188583Y-103600152D01*
X104383550Y-103644269D01*
X104383553Y-103644269D01*
X104389186Y-103645544D01*
X104394957Y-103645771D01*
X104394959Y-103645771D01*
X104447542Y-103647837D01*
X104600470Y-103653846D01*
X104606179Y-103653018D01*
X104606183Y-103653018D01*
X104804015Y-103624333D01*
X104804019Y-103624332D01*
X104809730Y-103623504D01*
X104888987Y-103596600D01*
X105004483Y-103557395D01*
X105004488Y-103557393D01*
X105009955Y-103555537D01*
X105023790Y-103547789D01*
X105189395Y-103455046D01*
X105189399Y-103455043D01*
X105194442Y-103452219D01*
X105357012Y-103317012D01*
X105492219Y-103154442D01*
X105495043Y-103149399D01*
X105495046Y-103149395D01*
X105592713Y-102974998D01*
X105592714Y-102974996D01*
X105595537Y-102969955D01*
X105597393Y-102964488D01*
X105597395Y-102964483D01*
X105661647Y-102775200D01*
X105663504Y-102769730D01*
X105664333Y-102764015D01*
X105685090Y-102620860D01*
X105714660Y-102556315D01*
X105774432Y-102518003D01*
X105845429Y-102518087D01*
X105905109Y-102556542D01*
X105934525Y-102621158D01*
X105935515Y-102630695D01*
X105938796Y-102680749D01*
X105940217Y-102686345D01*
X105940218Y-102686350D01*
X105962000Y-102772115D01*
X105990845Y-102885690D01*
X105993262Y-102890933D01*
X106055736Y-103026450D01*
X106079369Y-103077714D01*
X106201405Y-103250391D01*
X106219243Y-103267768D01*
X106322909Y-103368755D01*
X106357746Y-103430616D01*
X106353609Y-103501492D01*
X106324082Y-103548104D01*
X102409591Y-107462595D01*
X102347279Y-107496621D01*
X102320496Y-107499500D01*
X102039309Y-107499500D01*
X101971188Y-107479498D01*
X101955499Y-107467583D01*
X101902721Y-107420560D01*
X101752881Y-107341224D01*
X101588441Y-107299919D01*
X101580843Y-107299879D01*
X101580841Y-107299879D01*
X101503668Y-107299475D01*
X101418895Y-107299031D01*
X101411508Y-107300805D01*
X101411504Y-107300805D01*
X101268162Y-107335220D01*
X101254032Y-107338612D01*
X101247288Y-107342093D01*
X101247285Y-107342094D01*
X101125206Y-107405104D01*
X101103369Y-107416375D01*
X101097647Y-107421367D01*
X101097645Y-107421368D01*
X101050386Y-107462595D01*
X100975604Y-107527831D01*
X100878113Y-107666547D01*
X100816524Y-107824513D01*
X100815532Y-107832046D01*
X100815532Y-107832047D01*
X100799191Y-107956173D01*
X100770469Y-108021100D01*
X100763364Y-108028822D01*
X100681887Y-108110299D01*
X100619575Y-108144325D01*
X100548760Y-108139260D01*
X100492242Y-108097137D01*
X100462987Y-108058397D01*
X100455952Y-108049081D01*
X100411694Y-108021678D01*
X100370357Y-107996083D01*
X100370354Y-107996082D01*
X100360433Y-107989939D01*
X100348961Y-107987795D01*
X100348960Y-107987794D01*
X100255725Y-107970365D01*
X100255723Y-107970365D01*
X100250000Y-107969295D01*
X98750000Y-107969295D01*
X98748558Y-107969362D01*
X98748543Y-107969362D01*
X98736668Y-107969911D01*
X98721793Y-107970599D01*
X98714789Y-107972592D01*
X98714788Y-107972592D01*
X98632226Y-107996083D01*
X98613736Y-108001344D01*
X98604418Y-108008380D01*
X98604419Y-108008380D01*
X98533399Y-108062011D01*
X98533398Y-108062012D01*
X98524081Y-108069048D01*
X98506689Y-108097137D01*
X98471083Y-108154643D01*
X98471082Y-108154646D01*
X98464939Y-108164567D01*
X98462795Y-108176039D01*
X98462794Y-108176040D01*
X98445365Y-108269275D01*
X98444295Y-108275000D01*
X98444295Y-109275000D01*
X98444761Y-109278803D01*
X98444761Y-109278811D01*
X98449198Y-109315057D01*
X98453320Y-109348734D01*
X98460304Y-109364026D01*
X98463061Y-109370063D01*
X98473166Y-109440336D01*
X98468196Y-109459306D01*
X98464939Y-109464567D01*
X98462794Y-109476042D01*
X98455622Y-109514410D01*
X98444295Y-109575000D01*
X98444295Y-110725000D01*
X90300500Y-110725000D01*
X90300500Y-103543233D01*
X91594906Y-103543233D01*
X91621102Y-103817792D01*
X91622187Y-103822226D01*
X91622188Y-103822232D01*
X91665288Y-103998366D01*
X91686657Y-104085694D01*
X91790199Y-104341326D01*
X91792500Y-104345256D01*
X91792503Y-104345262D01*
X91927255Y-104575403D01*
X91927260Y-104575410D01*
X91929558Y-104579335D01*
X91932405Y-104582895D01*
X92066443Y-104750500D01*
X92101816Y-104794732D01*
X92105157Y-104797853D01*
X92148582Y-104838418D01*
X92303364Y-104983008D01*
X92529979Y-105140216D01*
X92534055Y-105142244D01*
X92534057Y-105142245D01*
X92772827Y-105261032D01*
X92772830Y-105261033D01*
X92776914Y-105263065D01*
X93038998Y-105348980D01*
X93043489Y-105349760D01*
X93043490Y-105349760D01*
X93306957Y-105395506D01*
X93306965Y-105395507D01*
X93310738Y-105396162D01*
X93314575Y-105396353D01*
X93396305Y-105400422D01*
X93396313Y-105400422D01*
X93397876Y-105400500D01*
X93570070Y-105400500D01*
X93572338Y-105400335D01*
X93572350Y-105400335D01*
X93706603Y-105390594D01*
X93775083Y-105385625D01*
X93779538Y-105384641D01*
X93779541Y-105384641D01*
X94039947Y-105327148D01*
X94039950Y-105327147D01*
X94044403Y-105326164D01*
X94302319Y-105228449D01*
X94543428Y-105094525D01*
X94762678Y-104927198D01*
X94822764Y-104865733D01*
X94952283Y-104733242D01*
X94952287Y-104733237D01*
X94955477Y-104729974D01*
X94968375Y-104712254D01*
X95115100Y-104510676D01*
X95115102Y-104510673D01*
X95117787Y-104506984D01*
X95246206Y-104262899D01*
X95338045Y-104002832D01*
X95366591Y-103858000D01*
X95390499Y-103736704D01*
X95390500Y-103736698D01*
X95391380Y-103732232D01*
X95391607Y-103727676D01*
X95404867Y-103461336D01*
X95404867Y-103461330D01*
X95405094Y-103456767D01*
X95399169Y-103394669D01*
X100642001Y-103394669D01*
X100642371Y-103401490D01*
X100647895Y-103452352D01*
X100651521Y-103467604D01*
X100696676Y-103588054D01*
X100705214Y-103603649D01*
X100781715Y-103705724D01*
X100794276Y-103718285D01*
X100896351Y-103794786D01*
X100911946Y-103803324D01*
X101032394Y-103848478D01*
X101047649Y-103852105D01*
X101098514Y-103857631D01*
X101105328Y-103858000D01*
X101727885Y-103858000D01*
X101743124Y-103853525D01*
X101744329Y-103852135D01*
X101746000Y-103844452D01*
X101746000Y-102772115D01*
X101741525Y-102756876D01*
X101740135Y-102755671D01*
X101732452Y-102754000D01*
X100660116Y-102754000D01*
X100644877Y-102758475D01*
X100643672Y-102759865D01*
X100642001Y-102767548D01*
X100642001Y-103394669D01*
X95399169Y-103394669D01*
X95378898Y-103182208D01*
X95369785Y-103144964D01*
X95314429Y-102918744D01*
X95313343Y-102914306D01*
X95209801Y-102658674D01*
X95207500Y-102654744D01*
X95207497Y-102654738D01*
X95072745Y-102424597D01*
X95072740Y-102424590D01*
X95070442Y-102420665D01*
X94952927Y-102273720D01*
X94916272Y-102227885D01*
X100642000Y-102227885D01*
X100646475Y-102243124D01*
X100647865Y-102244329D01*
X100655548Y-102246000D01*
X101727885Y-102246000D01*
X101743124Y-102241525D01*
X101744329Y-102240135D01*
X101746000Y-102232452D01*
X101746000Y-101160116D01*
X101741525Y-101144877D01*
X101740135Y-101143672D01*
X101732452Y-101142001D01*
X101105331Y-101142001D01*
X101098510Y-101142371D01*
X101047648Y-101147895D01*
X101032396Y-101151521D01*
X100911946Y-101196676D01*
X100896351Y-101205214D01*
X100794276Y-101281715D01*
X100781715Y-101294276D01*
X100705214Y-101396351D01*
X100696676Y-101411946D01*
X100651522Y-101532394D01*
X100647895Y-101547649D01*
X100642369Y-101598514D01*
X100642000Y-101605328D01*
X100642000Y-102227885D01*
X94916272Y-102227885D01*
X94901036Y-102208834D01*
X94901035Y-102208833D01*
X94898184Y-102205268D01*
X94770435Y-102085931D01*
X94699972Y-102020108D01*
X94699969Y-102020106D01*
X94696636Y-102016992D01*
X94470021Y-101859784D01*
X94461450Y-101855520D01*
X94227173Y-101738968D01*
X94227170Y-101738967D01*
X94223086Y-101736935D01*
X93961002Y-101651020D01*
X93956510Y-101650240D01*
X93693043Y-101604494D01*
X93693035Y-101604493D01*
X93689262Y-101603838D01*
X93679029Y-101603329D01*
X93603695Y-101599578D01*
X93603687Y-101599578D01*
X93602124Y-101599500D01*
X93429930Y-101599500D01*
X93427662Y-101599665D01*
X93427650Y-101599665D01*
X93293397Y-101609406D01*
X93224917Y-101614375D01*
X93220462Y-101615359D01*
X93220459Y-101615359D01*
X92960053Y-101672852D01*
X92960050Y-101672853D01*
X92955597Y-101673836D01*
X92697681Y-101771551D01*
X92693694Y-101773765D01*
X92693693Y-101773766D01*
X92466560Y-101899927D01*
X92456572Y-101905475D01*
X92452940Y-101908247D01*
X92263636Y-102052720D01*
X92237322Y-102072802D01*
X92234129Y-102076068D01*
X92234127Y-102076070D01*
X92047717Y-102266758D01*
X92047713Y-102266763D01*
X92044523Y-102270026D01*
X92041836Y-102273718D01*
X92041834Y-102273720D01*
X91913861Y-102449537D01*
X91882213Y-102493016D01*
X91753794Y-102737101D01*
X91661955Y-102997168D01*
X91643073Y-103092966D01*
X91618492Y-103217684D01*
X91608620Y-103267768D01*
X91608393Y-103272322D01*
X91608393Y-103272324D01*
X91596178Y-103517692D01*
X91594906Y-103543233D01*
X90300500Y-103543233D01*
X90300500Y-102037317D01*
X90302414Y-102015437D01*
X90303222Y-102010855D01*
X90305136Y-102000000D01*
X90303222Y-101989145D01*
X90303222Y-101978122D01*
X90303587Y-101978122D01*
X90302949Y-101965764D01*
X90316680Y-101773766D01*
X90317156Y-101767119D01*
X90319714Y-101749327D01*
X90325616Y-101722199D01*
X90367426Y-101530004D01*
X90372490Y-101512756D01*
X90417893Y-101391025D01*
X90450933Y-101302440D01*
X90458400Y-101286090D01*
X90529682Y-101155548D01*
X90565973Y-101089087D01*
X90575690Y-101073967D01*
X90710206Y-100894275D01*
X90721979Y-100880689D01*
X90880689Y-100721979D01*
X90894275Y-100710206D01*
X91073967Y-100575690D01*
X91089087Y-100565973D01*
X91286094Y-100458398D01*
X91302440Y-100450933D01*
X91512755Y-100372490D01*
X91530004Y-100367426D01*
X91581133Y-100356303D01*
X91749331Y-100319713D01*
X91767119Y-100317156D01*
X91869790Y-100309813D01*
X91965764Y-100302949D01*
X91978122Y-100303587D01*
X91978122Y-100303222D01*
X91989145Y-100303222D01*
X92000000Y-100305136D01*
X92015437Y-100302414D01*
X92037317Y-100300500D01*
X135547626Y-100300500D01*
X135559183Y-100301065D01*
X135570168Y-100304246D01*
X135607994Y-100300970D01*
X135618866Y-100300500D01*
X135627948Y-100300500D01*
X135633649Y-100299438D01*
X135633651Y-100299438D01*
X135634521Y-100299276D01*
X135646720Y-100297616D01*
X135670105Y-100295591D01*
X135670106Y-100295591D01*
X135681696Y-100294587D01*
X135692145Y-100289480D01*
X135695433Y-100288568D01*
X135698617Y-100287339D01*
X135710053Y-100285209D01*
X135739952Y-100266779D01*
X135750734Y-100260840D01*
X135771819Y-100250533D01*
X135782269Y-100245425D01*
X135790178Y-100236899D01*
X135792916Y-100234866D01*
X135795446Y-100232572D01*
X135805348Y-100226468D01*
X135812387Y-100217212D01*
X135812392Y-100217207D01*
X135826607Y-100198513D01*
X135834526Y-100189092D01*
X135850490Y-100171882D01*
X135858401Y-100163354D01*
X135862710Y-100152553D01*
X135864529Y-100149676D01*
X135866066Y-100146619D01*
X135873108Y-100137359D01*
X135882874Y-100103632D01*
X135886869Y-100091997D01*
X135891931Y-100079308D01*
X135935751Y-100023451D01*
X136008960Y-100000000D01*
X147189154Y-100000000D01*
X147257275Y-100020002D01*
G37*
G04 #@! TD.AperFunction*
G04 #@! TD*
G04 #@! TA.AperFunction,Conductor*
G04 #@! TO.N,VBUS*
G36*
X128004487Y-109000321D02*
G01*
X128053871Y-109003853D01*
X128275650Y-109019715D01*
X128293433Y-109022272D01*
X128554658Y-109079098D01*
X128571900Y-109084160D01*
X128822393Y-109177589D01*
X128838740Y-109185055D01*
X129073375Y-109313176D01*
X129088498Y-109322895D01*
X129302510Y-109483103D01*
X129316096Y-109494876D01*
X129505124Y-109683904D01*
X129516897Y-109697490D01*
X129677105Y-109911502D01*
X129686824Y-109926625D01*
X129814945Y-110161260D01*
X129822411Y-110177607D01*
X129915839Y-110428097D01*
X129920902Y-110445342D01*
X129977728Y-110706567D01*
X129980286Y-110724355D01*
X129999679Y-110995513D01*
X130000000Y-111004501D01*
X130000000Y-116245128D01*
X129998272Y-116265924D01*
X129965729Y-116460393D01*
X129944527Y-116828113D01*
X129963162Y-117195971D01*
X129963699Y-117199326D01*
X129963700Y-117199332D01*
X129998414Y-117416058D01*
X130000000Y-117435986D01*
X130000000Y-121500000D01*
X148995499Y-121500000D01*
X149004487Y-121500321D01*
X149053871Y-121503853D01*
X149275650Y-121519715D01*
X149293433Y-121522272D01*
X149554658Y-121579098D01*
X149571900Y-121584160D01*
X149822393Y-121677589D01*
X149838740Y-121685055D01*
X150073375Y-121813176D01*
X150088498Y-121822895D01*
X150302510Y-121983103D01*
X150316096Y-121994876D01*
X150505124Y-122183904D01*
X150516897Y-122197490D01*
X150677105Y-122411502D01*
X150686824Y-122426625D01*
X150814945Y-122661260D01*
X150822411Y-122677607D01*
X150915839Y-122928097D01*
X150920902Y-122945342D01*
X150977728Y-123206567D01*
X150980286Y-123224355D01*
X150999679Y-123495513D01*
X151000000Y-123504501D01*
X151000000Y-125495499D01*
X150999679Y-125504487D01*
X150980286Y-125775645D01*
X150977728Y-125793433D01*
X150920903Y-126054654D01*
X150915840Y-126071900D01*
X150822411Y-126322393D01*
X150814945Y-126338740D01*
X150686824Y-126573375D01*
X150677105Y-126588498D01*
X150516897Y-126802510D01*
X150505124Y-126816096D01*
X150316096Y-127005124D01*
X150302510Y-127016897D01*
X150088498Y-127177105D01*
X150073375Y-127186824D01*
X149838740Y-127314945D01*
X149822393Y-127322411D01*
X149571900Y-127415840D01*
X149554658Y-127420902D01*
X149293433Y-127477728D01*
X149275650Y-127480285D01*
X149053871Y-127496147D01*
X149004487Y-127499679D01*
X148995499Y-127500000D01*
X127004501Y-127500000D01*
X126995513Y-127499679D01*
X126946129Y-127496147D01*
X126724350Y-127480285D01*
X126706567Y-127477728D01*
X126445342Y-127420902D01*
X126428100Y-127415840D01*
X126177607Y-127322411D01*
X126161260Y-127314945D01*
X125926625Y-127186824D01*
X125911502Y-127177105D01*
X125697490Y-127016897D01*
X125683904Y-127005124D01*
X125494876Y-126816096D01*
X125483103Y-126802510D01*
X125322895Y-126588498D01*
X125313176Y-126573375D01*
X125185055Y-126338740D01*
X125177589Y-126322393D01*
X125084160Y-126071900D01*
X125079097Y-126054654D01*
X125022272Y-125793433D01*
X125019714Y-125775645D01*
X125000321Y-125504487D01*
X125000000Y-125495499D01*
X125000000Y-118318002D01*
X125009257Y-118270598D01*
X125138678Y-117951872D01*
X125139958Y-117948720D01*
X125240865Y-117594482D01*
X125302925Y-117231418D01*
X125304888Y-117199332D01*
X125325301Y-116865572D01*
X125325411Y-116863775D01*
X125325494Y-116840000D01*
X125305575Y-116472209D01*
X125246052Y-116108720D01*
X125147620Y-115753786D01*
X125143140Y-115742526D01*
X125012693Y-115414730D01*
X125011431Y-115411558D01*
X125011433Y-115411557D01*
X125000000Y-115359555D01*
X125000000Y-113765736D01*
X125020002Y-113697615D01*
X125069384Y-113653172D01*
X125070975Y-113652372D01*
X125080830Y-113647415D01*
X125183231Y-113559956D01*
X125203983Y-113542232D01*
X125203984Y-113542231D01*
X125209755Y-113537302D01*
X125308693Y-113399615D01*
X125371933Y-113242302D01*
X125395822Y-113074446D01*
X125395977Y-113059668D01*
X125375608Y-112891348D01*
X125315677Y-112732745D01*
X125219644Y-112593017D01*
X125213451Y-112587499D01*
X125098725Y-112485281D01*
X125098722Y-112485279D01*
X125093053Y-112480228D01*
X125067040Y-112466455D01*
X125016197Y-112416901D01*
X125000000Y-112355101D01*
X125000000Y-111004501D01*
X125000321Y-110995513D01*
X125019714Y-110724355D01*
X125022272Y-110706567D01*
X125079098Y-110445342D01*
X125084161Y-110428097D01*
X125177589Y-110177607D01*
X125185055Y-110161260D01*
X125313176Y-109926625D01*
X125322895Y-109911502D01*
X125483103Y-109697490D01*
X125494876Y-109683904D01*
X125683904Y-109494876D01*
X125697490Y-109483103D01*
X125911502Y-109322895D01*
X125926625Y-109313176D01*
X126161260Y-109185055D01*
X126177607Y-109177589D01*
X126428100Y-109084160D01*
X126445342Y-109079098D01*
X126706567Y-109022272D01*
X126724350Y-109019715D01*
X126946129Y-109003853D01*
X126995513Y-109000321D01*
X127004501Y-109000000D01*
X127995499Y-109000000D01*
X128004487Y-109000321D01*
G37*
G04 #@! TD.AperFunction*
G04 #@! TD*
M02*
