G04 #@! TF.GenerationSoftware,KiCad,Pcbnew,(6.0.5)*
G04 #@! TF.CreationDate,2022-06-23T18:32:15+02:00*
G04 #@! TF.ProjectId,microjuice,6d696372-6f6a-4756-9963-652e6b696361,rev?*
G04 #@! TF.SameCoordinates,Original*
G04 #@! TF.FileFunction,Soldermask,Bot*
G04 #@! TF.FilePolarity,Negative*
%FSLAX46Y46*%
G04 Gerber Fmt 4.6, Leading zero omitted, Abs format (unit mm)*
G04 Created by KiCad (PCBNEW (6.0.5)) date 2022-06-23 18:32:15*
%MOMM*%
%LPD*%
G01*
G04 APERTURE LIST*
G04 Aperture macros list*
%AMFreePoly0*
4,1,6,1.000000,0.000000,0.500000,-0.750000,-0.500000,-0.750000,-0.500000,0.750000,0.500000,0.750000,1.000000,0.000000,1.000000,0.000000,$1*%
%AMFreePoly1*
4,1,6,0.500000,-0.750000,-0.650000,-0.750000,-0.150000,0.000000,-0.650000,0.750000,0.500000,0.750000,0.500000,-0.750000,0.500000,-0.750000,$1*%
G04 Aperture macros list end*
%ADD10C,0.150000*%
%ADD11C,7.000000*%
%ADD12C,3.200000*%
%ADD13C,6.200000*%
%ADD14R,1.700000X1.700000*%
%ADD15O,1.700000X1.700000*%
%ADD16FreePoly0,270.000000*%
%ADD17FreePoly1,270.000000*%
G04 APERTURE END LIST*
D10*
X97500000Y-136750000D02*
X146000000Y-136750000D01*
X146000000Y-136750000D02*
X146000000Y-133650000D01*
X146000000Y-133650000D02*
X97500000Y-133650000D01*
X97500000Y-133650000D02*
X97500000Y-136750000D01*
G36*
X97500000Y-136750000D02*
G01*
X146000000Y-136750000D01*
X146000000Y-133650000D01*
X97500000Y-133650000D01*
X97500000Y-136750000D01*
G37*
D11*
G04 #@! TO.C,H6*
X150800000Y-124600000D03*
G04 #@! TD*
G04 #@! TO.C,H10*
X132000000Y-132588000D03*
G04 #@! TD*
D12*
G04 #@! TO.C,H12*
X151000000Y-133500000D03*
G04 #@! TD*
D13*
G04 #@! TO.C,H9*
X121920000Y-116840000D03*
G04 #@! TD*
D12*
G04 #@! TO.C,H15*
X93500000Y-133500000D03*
G04 #@! TD*
D14*
G04 #@! TO.C,J5*
X122000000Y-102500000D03*
D15*
X124540000Y-102500000D03*
X127080000Y-102500000D03*
G04 #@! TD*
D14*
G04 #@! TO.C,J4*
X112000000Y-102500000D03*
D15*
X114540000Y-102500000D03*
X117080000Y-102500000D03*
G04 #@! TD*
D12*
G04 #@! TO.C,H13*
X151000000Y-103500000D03*
G04 #@! TD*
D13*
G04 #@! TO.C,H7*
X100330000Y-116840000D03*
G04 #@! TD*
G04 #@! TO.C,H5*
X143510000Y-116840000D03*
G04 #@! TD*
D11*
G04 #@! TO.C,H2*
X112000000Y-132588000D03*
G04 #@! TD*
G04 #@! TO.C,H11*
X142000000Y-132588000D03*
G04 #@! TD*
G04 #@! TO.C,H1*
X102000000Y-132588000D03*
G04 #@! TD*
D14*
G04 #@! TO.C,J3*
X102000000Y-102500000D03*
D15*
X104540000Y-102500000D03*
X107080000Y-102500000D03*
G04 #@! TD*
D13*
G04 #@! TO.C,H8*
X110490000Y-116840000D03*
G04 #@! TD*
D11*
G04 #@! TO.C,H3*
X121920000Y-132588000D03*
G04 #@! TD*
D12*
G04 #@! TO.C,H14*
X93500000Y-103500000D03*
G04 #@! TD*
D13*
G04 #@! TO.C,H4*
X133350000Y-116840000D03*
G04 #@! TD*
D16*
G04 #@! TO.C,JP1*
X99500000Y-108775000D03*
D17*
X99500000Y-110225000D03*
G04 #@! TD*
D16*
G04 #@! TO.C,JP2*
X109050000Y-108775000D03*
D17*
X109050000Y-110225000D03*
G04 #@! TD*
D16*
G04 #@! TO.C,JP3*
X118500000Y-108775000D03*
D17*
X118500000Y-110225000D03*
G04 #@! TD*
M02*
