M48
; DRILL file {KiCad (6.0.5)} date Thu Jun 23 18:32:15 2022
; FORMAT={-:-/ absolute / metric / decimal}
; #@! TF.CreationDate,2022-06-23T18:32:15+02:00
; #@! TF.GenerationSoftware,Kicad,Pcbnew,(6.0.5)
; #@! TF.FileFunction,MixedPlating,1,2
FMAT,2
METRIC
; #@! TA.AperFunction,Plated,PTH,ViaDrill
T1C0.400
; #@! TA.AperFunction,Plated,PTH,ComponentDrill
T2C1.000
; #@! TA.AperFunction,Plated,PTH,ComponentDrill
T3C4.250
; #@! TA.AperFunction,Plated,PTH,ComponentDrill
T4C4.600
; #@! TA.AperFunction,NonPlated,NPTH,ComponentDrill
T5C3.200
%
G90
G05
T1
X95.25Y-110.25
X99.5Y-112.0
X101.4Y-110.5
X101.5Y-108.0
X107.7Y-112.2
X109.0Y-112.0
X110.5Y-112.2
X111.0Y-110.5
X111.25Y-108.0
X115.5Y-111.5
X118.1Y-114.4
X120.5Y-107.75
X120.5Y-110.5
X123.25Y-111.0
X124.69Y-113.06
X126.2Y-111.25
X127.4Y-111.25
X128.6Y-111.25
X140.5Y-106.5
X140.5Y-109.5
X143.1Y-100.6
X144.4Y-100.6
X145.3Y-104.8
X145.7Y-100.6
T2
X102.0Y-102.5
X104.54Y-102.5
X107.08Y-102.5
X112.0Y-102.5
X114.54Y-102.5
X117.08Y-102.5
X122.0Y-102.5
X124.54Y-102.5
X127.08Y-102.5
T3
X100.33Y-116.84
X110.49Y-116.84
X121.92Y-116.84
X133.35Y-116.84
X143.51Y-116.84
T4
X102.0Y-132.588
X112.0Y-132.588
X121.92Y-132.588
X132.0Y-132.588
X142.0Y-132.588
X150.8Y-124.6
T5
X93.5Y-103.5
X93.5Y-133.5
X151.0Y-103.5
X151.0Y-133.5
T0
M30
