G04 #@! TF.GenerationSoftware,KiCad,Pcbnew,(6.0.5)*
G04 #@! TF.CreationDate,2022-06-23T18:32:15+02:00*
G04 #@! TF.ProjectId,microjuice,6d696372-6f6a-4756-9963-652e6b696361,rev?*
G04 #@! TF.SameCoordinates,Original*
G04 #@! TF.FileFunction,Soldermask,Top*
G04 #@! TF.FilePolarity,Negative*
%FSLAX46Y46*%
G04 Gerber Fmt 4.6, Leading zero omitted, Abs format (unit mm)*
G04 Created by KiCad (PCBNEW (6.0.5)) date 2022-06-23 18:32:15*
%MOMM*%
%LPD*%
G01*
G04 APERTURE LIST*
G04 Aperture macros list*
%AMRoundRect*
0 Rectangle with rounded corners*
0 $1 Rounding radius*
0 $2 $3 $4 $5 $6 $7 $8 $9 X,Y pos of 4 corners*
0 Add a 4 corners polygon primitive as box body*
4,1,4,$2,$3,$4,$5,$6,$7,$8,$9,$2,$3,0*
0 Add four circle primitives for the rounded corners*
1,1,$1+$1,$2,$3*
1,1,$1+$1,$4,$5*
1,1,$1+$1,$6,$7*
1,1,$1+$1,$8,$9*
0 Add four rect primitives between the rounded corners*
20,1,$1+$1,$2,$3,$4,$5,0*
20,1,$1+$1,$4,$5,$6,$7,0*
20,1,$1+$1,$6,$7,$8,$9,0*
20,1,$1+$1,$8,$9,$2,$3,0*%
G04 Aperture macros list end*
%ADD10C,0.150000*%
%ADD11RoundRect,0.200000X0.275000X-0.200000X0.275000X0.200000X-0.275000X0.200000X-0.275000X-0.200000X0*%
%ADD12RoundRect,0.150000X0.150000X-0.587500X0.150000X0.587500X-0.150000X0.587500X-0.150000X-0.587500X0*%
%ADD13C,7.000000*%
%ADD14RoundRect,0.150000X0.150000X-0.512500X0.150000X0.512500X-0.150000X0.512500X-0.150000X-0.512500X0*%
%ADD15RoundRect,0.250000X1.500000X0.550000X-1.500000X0.550000X-1.500000X-0.550000X1.500000X-0.550000X0*%
%ADD16R,1.800000X2.500000*%
%ADD17C,3.200000*%
%ADD18C,6.200000*%
%ADD19RoundRect,0.225000X0.250000X-0.225000X0.250000X0.225000X-0.250000X0.225000X-0.250000X-0.225000X0*%
%ADD20R,1.700000X1.700000*%
%ADD21O,1.700000X1.700000*%
%ADD22RoundRect,0.250000X0.425000X-0.450000X0.425000X0.450000X-0.425000X0.450000X-0.425000X-0.450000X0*%
%ADD23RoundRect,0.250000X-0.450000X-0.425000X0.450000X-0.425000X0.450000X0.425000X-0.450000X0.425000X0*%
%ADD24R,1.500000X2.000000*%
%ADD25R,3.800000X2.000000*%
%ADD26R,1.900000X8.000000*%
%ADD27R,2.000000X7.500000*%
%ADD28RoundRect,0.200000X-0.275000X0.200000X-0.275000X-0.200000X0.275000X-0.200000X0.275000X0.200000X0*%
%ADD29RoundRect,0.218750X0.256250X-0.218750X0.256250X0.218750X-0.256250X0.218750X-0.256250X-0.218750X0*%
G04 APERTURE END LIST*
D10*
X97500000Y-133650000D02*
X146000000Y-133650000D01*
X146000000Y-133650000D02*
X146000000Y-136750000D01*
X146000000Y-136750000D02*
X97500000Y-136750000D01*
X97500000Y-136750000D02*
X97500000Y-133650000D01*
G36*
X97500000Y-133650000D02*
G01*
X146000000Y-133650000D01*
X146000000Y-136750000D01*
X97500000Y-136750000D01*
X97500000Y-133650000D01*
G37*
D11*
G04 #@! TO.C,R2*
X115500000Y-116250000D03*
X115500000Y-114600000D03*
G04 #@! TD*
D12*
G04 #@! TO.C,D3*
X112050000Y-110437500D03*
X113950000Y-110437500D03*
X113000000Y-108562500D03*
G04 #@! TD*
D13*
G04 #@! TO.C,H6*
X150800000Y-124600000D03*
G04 #@! TD*
D14*
G04 #@! TO.C,U4*
X117550000Y-110637500D03*
X118500000Y-110637500D03*
X119450000Y-110637500D03*
X119450000Y-108362500D03*
X117550000Y-108362500D03*
G04 #@! TD*
D13*
G04 #@! TO.C,H10*
X132000000Y-132588000D03*
G04 #@! TD*
D15*
G04 #@! TO.C,C1*
X128700000Y-109500000D03*
X123300000Y-109500000D03*
G04 #@! TD*
D12*
G04 #@! TO.C,D2*
X102300000Y-110437500D03*
X104200000Y-110437500D03*
X103250000Y-108562500D03*
G04 #@! TD*
D16*
G04 #@! TO.C,D1*
X134000000Y-111200000D03*
X134000000Y-107200000D03*
G04 #@! TD*
D17*
G04 #@! TO.C,H12*
X151000000Y-133500000D03*
G04 #@! TD*
D18*
G04 #@! TO.C,H9*
X121920000Y-116840000D03*
G04 #@! TD*
D19*
G04 #@! TO.C,C4*
X96500000Y-110275000D03*
X96500000Y-108725000D03*
G04 #@! TD*
D17*
G04 #@! TO.C,H15*
X93500000Y-133500000D03*
G04 #@! TD*
D19*
G04 #@! TO.C,C5*
X115750000Y-110275000D03*
X115750000Y-108725000D03*
G04 #@! TD*
G04 #@! TO.C,C3*
X106250000Y-110275000D03*
X106250000Y-108725000D03*
G04 #@! TD*
D20*
G04 #@! TO.C,J5*
X122000000Y-102500000D03*
D21*
X124540000Y-102500000D03*
X127080000Y-102500000D03*
G04 #@! TD*
D22*
G04 #@! TO.C,C6*
X146000000Y-110850000D03*
X146000000Y-108150000D03*
G04 #@! TD*
D14*
G04 #@! TO.C,U3*
X108100000Y-110637500D03*
X109050000Y-110637500D03*
X110000000Y-110637500D03*
X110000000Y-108362500D03*
X108100000Y-108362500D03*
G04 #@! TD*
D23*
G04 #@! TO.C,C2*
X140150000Y-102500000D03*
X142850000Y-102500000D03*
G04 #@! TD*
D20*
G04 #@! TO.C,J4*
X112000000Y-102500000D03*
D21*
X114540000Y-102500000D03*
X117080000Y-102500000D03*
G04 #@! TD*
D11*
G04 #@! TO.C,R1*
X105250000Y-116325000D03*
X105250000Y-114675000D03*
G04 #@! TD*
D24*
G04 #@! TO.C,U1*
X142800000Y-105350000D03*
X140500000Y-105350000D03*
D25*
X140500000Y-111650000D03*
D24*
X138200000Y-105350000D03*
G04 #@! TD*
D17*
G04 #@! TO.C,H13*
X151000000Y-103500000D03*
G04 #@! TD*
D18*
G04 #@! TO.C,H7*
X100330000Y-116840000D03*
G04 #@! TD*
G04 #@! TO.C,H5*
X143510000Y-116840000D03*
G04 #@! TD*
D13*
G04 #@! TO.C,H2*
X112000000Y-132588000D03*
G04 #@! TD*
D14*
G04 #@! TO.C,U2*
X98550000Y-110637500D03*
X99500000Y-110637500D03*
X100450000Y-110637500D03*
X100450000Y-108362500D03*
X98550000Y-108362500D03*
G04 #@! TD*
D26*
G04 #@! TO.C,J1*
X137790000Y-92900000D03*
D27*
X140300000Y-93150000D03*
X142900000Y-93150000D03*
D26*
X145410000Y-92900000D03*
G04 #@! TD*
D28*
G04 #@! TO.C,R4*
X94000000Y-108675000D03*
X94000000Y-110325000D03*
G04 #@! TD*
D13*
G04 #@! TO.C,H11*
X142000000Y-132588000D03*
G04 #@! TD*
G04 #@! TO.C,H1*
X102000000Y-132588000D03*
G04 #@! TD*
D29*
G04 #@! TO.C,D4*
X94000000Y-114037500D03*
X94000000Y-112462500D03*
G04 #@! TD*
D20*
G04 #@! TO.C,J3*
X102000000Y-102500000D03*
D21*
X104540000Y-102500000D03*
X107080000Y-102500000D03*
G04 #@! TD*
D18*
G04 #@! TO.C,H8*
X110490000Y-116840000D03*
G04 #@! TD*
D11*
G04 #@! TO.C,R3*
X127000000Y-116325000D03*
X127000000Y-114675000D03*
G04 #@! TD*
D13*
G04 #@! TO.C,H3*
X121920000Y-132588000D03*
G04 #@! TD*
D17*
G04 #@! TO.C,H14*
X93500000Y-103500000D03*
G04 #@! TD*
D18*
G04 #@! TO.C,H4*
X133350000Y-116840000D03*
G04 #@! TD*
M02*
